SplineFontDB: 3.0
FontName: Blockbone-Black
FullName: Blockbone Back
FamilyName: BlockBone
Weight: Black
Copyright: Copyright 2024, The Blockbone Project Authors (https://github.com/mitradranirban/blockbone)
UComments: "2024-11-22: Created with FontForge (http://fontforge.org)"
Version: 0.500
StyleMapFamilyName: BlockBoneBlock
ItalicAngle: 0
UnderlinePosition: -100
UnderlineWidth: 50
Ascent: 800
Descent: 200
InvalidEm: 0
UFOAscent: 800
UFODescent: -200
LayerCount: 2
Layer: 0 0 "Back" 1
Layer: 1 0 "public.default" 0 "glyphs"
StyleMap: 0x0000
FSType: 0
OS2Version: 0
OS2_WeightWidthSlopeOnly: 0
OS2_UseTypoMetrics: 0
CreationTime: 1744304717
ModificationTime: 1744304775
PfmFamily: 16
TTFWeight: 900
TTFWidth: 5
LineGap: 0
VLineGap: 0
Panose: 2 1 10 2 7 3 2 2 2 3
OS2TypoAscent: 1200
OS2TypoAOffset: 0
OS2TypoDescent: -300
OS2TypoDOffset: 0
OS2TypoLinegap: 0
OS2WinAscent: 1200
OS2WinAOffset: 0
OS2WinDescent: 300
OS2WinDOffset: 0
HheadAscent: 1200
HheadAOffset: 0
HheadDescent: -300
HheadDOffset: 0
OS2FamilyClass: 2306
OS2Vendor: 'anir'
Lookup: 4 0 1 "ligaStandardLigaturesinLatinlookup0" { "ligaStandardLigaturesinLatinlookup0 subtable"  } ['liga' ('latn' <'dflt' > ) ]
Lookup: 4 0 0 "fracDiagonalFractionsinLatinlookup2" { "fracDiagonalFractionsinLatinlookup2 subtable"  } ['frac' ('latn' <'dflt' > ) ]
Lookup: 1 0 0 "SingleSubstitutionlookup6" { "SingleSubstitutionlookup6 subtable"  } []
Lookup: 6 0 0 "ordnOrdinalsinLatinlookup5" { "ordnOrdinalsinLatinlookup5 contextual 0"  "ordnOrdinalsinLatinlookup5 contextual 1"  } ['ordn' ('latn' <'dflt' > ) ]
MarkAttachClasses: 1
DEI: 91125
ChainSub2: coverage "ordnOrdinalsinLatinlookup5 contextual 1" 0 0 0 1
 1 1 0
  Coverage: 3 o O
  BCoverage: 49 zero one two three four five six nine seven eight
 1
  SeqLookup: 0 "SingleSubstitutionlookup6"
EndFPST
ChainSub2: coverage "ordnOrdinalsinLatinlookup5 contextual 0" 0 0 0 1
 1 1 0
  Coverage: 3 a A
  BCoverage: 49 zero one two three four five six nine seven eight
 1

StartChar: .notdef
Encoding: 0 -1 0
GlifName: _notdef
Width: 500
VWidth: 0
Flags: HW
LayerCount: 2
Fore
SplineSet
82 749 m 257
 82 -2 l 257
 441 -2 l 257
 441 749 l 257
 82 749 l 257
407 696 m 257
 407 51.6234321594 l 257
 289.5 382 l 257
 407 696 l 257
235.5 382 m 257
 120.063293457 57.4248313904 l 257
 122 407 l 257
 121 698 l 257
 235.5 382 l 257
262.5 457.916320801 m 257
 166 698 l 257
 351 698 l 257
 262.5 457.916320801 l 257
262.5 306.083679199 m 257
 355 46 l 257
 170 46 l 257
 262.5 306.083679199 l 257
EndSplineSet
EndChar

StartChar: A
Encoding: 1 65 1
GlifName: A_
Width: 700
VWidth: 0
GlyphClass: 2
Flags: HW
LayerCount: 2
Fore
SplineSet
336 613 m 257
 268 563 195.666666667 519 119 481 c 257
 143 433 155 381.166666667 155 325.5 c 128
 155 269.833333333 148.166666667 213.333333333 134.5 156 c 128
 120.833333333 98.6666666667 104.666666667 44.3333333333 86 -7 c 256
 72.6666666667 -45 54 -79.3333333333 30 -110 c 256
 21.3333333333 -122 11.6666666667 -133.333333333 1 -144 c 257
 11.6666666667 -150.666666667 24 -159.333333333 38 -170 c 257
 56 -152.666666667 74.6666666667 -132.666666667 94 -110 c 256
 126 -73.3333333333 160.333333333 -29.3333333333 197 22 c 256
 255.666666667 103.333333333 291 202.666666667 303 320 c 257
 488 320 l 257
 488 236 484.333333333 168 477 116 c 257
 539 62 l 257
 590 19 l 257
 677 139 l 257
 648 163 l 257
 627 180 l 258
 619.666666667 186 616 199.666666667 616 221 c 258
 612 487 l 257
 612 514 l 258
 612 525.333333333 613.333333333 534 616 540 c 257
 622.666666667 552 631.5 562.5 642.5 571.5 c 128
 653.5 580.5 662.666666667 591 670 603 c 257
 558 671.666666667 435.666666667 726.333333333 303 767 c 257
 202.333333333 726.333333333 108.333333333 670 21 598 c 257
 20.3333333333 595.333333333 21.1666666667 586.833333333 23.5 572.5 c 128
 25.8333333333 558.166666667 27 549.333333333 27 546 c 257
 91 599.333333333 161.666666667 626 239 626 c 256
 270.333333333 626 302.666666667 621.666666667 336 613 c 257
486 436 m 257
 308 436 l 257
 310.666666667 480.666666667 317.833333333 514.333333333 329.5 537 c 128
 341.166666667 559.666666667 359 579.666666667 383 597 c 257
 421.666666667 580.333333333 456 561.333333333 486 540 c 257
 486 523 486 523 486 509.5 c 128
 486 496 486 496 486 436 c 257
EndSplineSet
Substitution2: "SingleSubstitutionlookup6 subtable" ordfeminine
EndChar

StartChar: AE
Encoding: 2 198 2
GlifName: A_E_
Width: 1000
VWidth: 0
GlyphClass: 2
Flags: HW
LayerCount: 2
Fore
SplineSet
344 596 m 257
 298 562.666666667 223.666666667 520.666666667 121 470 c 257
 145 422 156.666666667 372 156 320 c 128
 155.333333333 268 148.166666667 213.333333333 134.5 156 c 128
 120.833333333 98.6666666667 104.666666667 44.1666666667 86 -7.5 c 128
 67.3333333333 -59.1666666667 39 -104.666666667 1 -144 c 257
 11.6666666667 -150.666666667 24 -159.333333333 38 -170 c 257
 85.3333333333 -124 138.833333333 -61.5 198.5 17.5 c 128
 258.166666667 96.5 294 194.666666667 306 312 c 257
 507 309 l 257
 518.333333333 306.333333333 530.666666667 293.333333333 544 270 c 258
 587 195 l 257
 677 139 l 257
 627 180 l 257
 619.666666667 186 616 199.666666667 616 221 c 258
 612 487 l 257
 612 514 l 258
 612 525.333333333 613.333333333 534 616 540 c 257
 622.666666667 552 624.833333333 564 622.5 576 c 128
 620.166666667 588 622.666666667 600 630 612 c 257
 540 666.666666667 431 714 303 754 c 257
 209 716.666666667 115.333333333 659 22 581 c 257
 22 567 24 556.5 28 549.5 c 128
 32 542.5 34 537.333333333 34 534 c 257
 138.666666667 592 212.666666667 619 256 615 c 256
 293.333333333 611.666666667 322.666666667 605.333333333 344 596 c 257
487 427 m 257
 309 427 l 257
 311.666666667 471.666666667 318.666666667 506.833333333 330 532.5 c 128
 341.333333333 558.166666667 359 579.666666667 383 597 c 257
 421.666666667 580.333333333 456 561.333333333 486 540 c 257
 486 528.666666667 486.166666667 517 486.5 505 c 128
 486.833333333 493 487 467 487 427 c 257
664 637 m 257
 490 540 l 257
 486 437 l 257
 506 339 l 257
 531 282 l 257
 550 226 l 257
 571 187 l 257
 593 167 l 257
 615 141 l 257
 643 123 l 257
 674 102 l 257
 701 86 l 257
 732 74 l 257
 775 55 l 257
 847 35 l 257
 916 24 l 257
 968 96 l 257
 1021 170 l 257
 863 179 l 257
 729 243 l 257
 681 291 l 257
 639 361 l 257
 630 452 l 257
 632 525 l 257
 644 555 l 257
 670 581 l 257
 708 617 l 257
 714 581 l 257
 713 519 l 257
 712 421 l 257
 725 308 l 257
 695 291 l 257
 725 249 l 257
 761 262 l 257
 785 273 l 257
 818 285 l 257
 841 291 l 257
 831 351 l 257
 828 425 l 257
 924 423 l 257
 1029 423 l 257
 1028 537 l 257
 1001 537 l 257
 965 537 l 257
 940 537 l 257
 925 537 l 257
 915 537 l 257
 905 537 l 257
 888 537 l 257
 862 537 l 257
 826 537 l 257
 827 570 l 257
 833 617 l 257
 836 631 l 257
 864 628 l 257
 897 617 l 257
 914 611 l 257
 929 600 l 257
 944 593 l 257
 958 587 l 257
 982 571 l 257
 1063 662 l 257
 952 705 l 257
 854 759 l 257
 664 637 l 257
EndSplineSet
EndChar

StartChar: Adieresis
Encoding: 6 196 6
GlifName: A_dieresis
Width: 700
VWidth: 0
GlyphClass: 2
Flags: HW
LayerCount: 2
Fore
SplineSet
352 726 m 256
 215 753 l 257
 211.666666667 741 208.833333333 729.833333333 206.5 719.5 c 0
 204.166666667 709.166666667 202.333333333 701.833333333 201 697.5 c 0
 199.666666667 693.166666667 199 690.666666667 199 690 c 256
 193.666666667 675.333333333 188.833333333 659.333333333 184.5 642 c 0
 180.166666667 624.666666667 177 611.166666667 175 601.5 c 0
 172 587 l 257
 191.333333333 597.666666667 216 614.5 246 637.5 c 0
 276 660.5 301.333333333 681 322 699 c 0
 342.666666667 717 352.666666667 726 352 726 c 256
668 618 m 256
 663.333333333 636 658.5 656.666666667 653.5 680 c 0
 648.5 703.333333333 643.666666667 724.666666667 639 744 c 256
 637 745.333333333 632.333333333 745.5 625 744.5 c 0
 617.666666667 743.5 609.166666667 742.166666667 599.5 740.5 c 0
 585 738 l 256
 508 720 l 257
 530 700.666666667 554.333333333 682.5 581 665.5 c 0
 607.666666667 648.5 629 636 645 628 c 0
 661 620 668.666666667 616.666666667 668 618 c 256
204 572 m 257
 174.666666667 550.666666667 142.333333333 531 107 513 c 257
 131 465 145.833333333 406.5 151.5 337.5 c 128
 157.166666667 268.5 153.166666667 205.333333333 139.5 148 c 128
 125.833333333 90.6666666667 109.666666667 36.3333333333 91 -15 c 256
 77.6666666667 -53 59 -87.3333333333 35 -118 c 256
 28.3333333333 -126.666666667 20 -136.333333333 10 -147 c 257
 10 -145.666666667 23.6666666667 -154.333333333 51 -173 c 257
 56.3333333333 -167.666666667 72.3333333333 -149.333333333 99 -118 c 256
 131 -81.3333333333 165.333333333 -37.3333333333 202 14 c 256
 260.666666667 95.3333333333 296 194.666666667 308 312 c 257
 493 312 l 257
 493 228 489.333333333 160 482 108 c 257
 544 54 l 257
 595 11 l 257
 682 131 l 257
 653 155 l 257
 632 172 l 258
 624.666666667 178 621 191.666666667 621 213 c 258
 617 479 l 257
 617 506 l 258
 617 517.333333333 618.333333333 526 621 532 c 257
 627.666666667 544 636.5 554.5 647.5 563.5 c 128
 658.5 572.5 667.666666667 583 675 595 c 257
 595.666666667 615.666666667 511.666666667 669 423 755 c 257
 401 731 375.333333333 708 346 686 c 257
 334 672.666666667 324.666666667 664 318 660 c 128
 311.333333333 656 308 652.333333333 308 649 c 257
 284 631.666666667 265.666666667 619.666666667 253 613 c 256
 247 609.666666667 230.666666667 596 204 572 c 257
491 428 m 257
 313 428 l 257
 315.666666667 472.666666667 319.166666667 514 323.5 552 c 128
 327.833333333 590 349.333333333 602.333333333 388 589 c 257
 426.666666667 572.333333333 461 553.333333333 491 532 c 257
 491 515 491 515 491 501.5 c 128
 491 488 491 488 491 428 c 257
EndSplineSet
EndChar

StartChar: Agrave
Encoding: 7 192 7
GlifName: A_grave
Width: 800
VWidth: 0
GlyphClass: 4
Flags: HW
AnchorPoint: "top" 289.233 711.92 mark 0
LayerCount: 2
Fore
SplineSet
223 632 m 257
 222 633 l 257
 222 671 220 705.833333333 216 737.5 c 0
 212 769.166666667 208.166666667 791.333333333 204.5 804 c 0
 200.833333333 816.666666667 198.666666667 823 198 823 c 256
 190 821 176.333333333 818.166666667 157 814.5 c 0
 137.666666667 810.833333333 120.666666667 807.666666667 106 805 c 0
 91.3333333333 802.333333333 84 800.666666667 84 800 c 256
 91.3333333333 794 100.166666667 784.166666667 110.5 770.5 c 0
 120.833333333 756.833333333 126.666666667 749.333333333 128 748 c 256
 148 728 172.333333333 697 201 655 c 257
 223 632 l 257
204 572 m 257
 174.666666667 550.666666667 142.333333333 531 107 513 c 257
 131 465 145.833333333 406.5 151.5 337.5 c 128
 157.166666667 268.5 153.166666667 205.333333333 139.5 148 c 128
 125.833333333 90.6666666667 109.666666667 36.3333333333 91 -15 c 256
 77.6666666667 -53 59 -87.3333333333 35 -118 c 256
 28.3333333333 -126.666666667 20 -136.333333333 10 -147 c 257
 10 -145.666666667 23.6666666667 -154.333333333 51 -173 c 257
 56.3333333333 -167.666666667 72.3333333333 -149.333333333 99 -118 c 256
 131 -81.3333333333 165.333333333 -37.3333333333 202 14 c 256
 260.666666667 95.3333333333 296 194.666666667 308 312 c 257
 493 312 l 257
 493 228 489.333333333 160 482 108 c 257
 544 54 l 257
 595 11 l 257
 682 131 l 257
 653 155 l 257
 632 172 l 258
 624.666666667 178 621 191.666666667 621 213 c 258
 617 479 l 257
 617 506 l 258
 617 517.333333333 618.333333333 526 621 532 c 257
 627.666666667 544 636.5 554.5 647.5 563.5 c 128
 658.5 572.5 667.666666667 583 675 595 c 257
 595.666666667 615.666666667 511.666666667 669 423 755 c 257
 401 731 375.333333333 708 346 686 c 257
 334 672.666666667 324.666666667 664 318 660 c 128
 311.333333333 656 308 652.333333333 308 649 c 257
 284 631.666666667 265.666666667 619.666666667 253 613 c 256
 247 609.666666667 230.666666667 596 204 572 c 257
491 428 m 257
 313 428 l 257
 315.666666667 472.666666667 319.166666667 514 323.5 552 c 128
 327.833333333 590 349.333333333 602.333333333 388 589 c 257
 426.666666667 572.333333333 461 553.333333333 491 532 c 257
 491 515 491 515 491 501.5 c 128
 491 488 491 488 491 428 c 257
EndSplineSet
EndChar

StartChar: Atilde
Encoding: 11 195 11
GlifName: A_tilde
Width: 1000
VWidth: 0
GlyphClass: 2
Flags: HW
LayerCount: 2
Fore
SplineSet
559 911 m 257
 556.333333333 899 556 888.166666667 558 878.5 c 0
 560 868.833333333 560 860.166666667 558 852.5 c 0
 556 844.833333333 550.333333333 839.333333333 541 836 c 256
 525 830.666666667 506.166666667 829.333333333 484.5 832 c 0
 462.833333333 834.666666667 446.666666667 840.333333333 436 849 c 256
 424 859 406.666666667 870.333333333 384 883 c 0
 361.333333333 895.666666667 344.333333333 903.333333333 333 906 c 256
 321.666666667 909.333333333 299.5 909.666666667 266.5 907 c 0
 233.5 904.333333333 212.666666667 899.666666667 204 893 c 256
 192.666666667 884.333333333 170 857.333333333 136 812 c 257
 276 679 l 257
 278.666666667 691.666666667 279.166666667 701.166666667 277.5 707.5 c 0
 275.833333333 713.833333333 275.333333333 720.666666667 276 728 c 0
 276.666666667 735.333333333 279.666666667 743 285 751 c 256
 289 757.666666667 292.666666667 767.5 296 780.5 c 0
 299.333333333 793.5 303.166666667 803.666666667 307.5 811 c 0
 311.833333333 818.333333333 319 822.333333333 329 823 c 256
 371 825.666666667 399.333333333 820 414 806 c 256
 430 791.333333333 455.666666667 776.666666667 491 762 c 256
 506.333333333 756 532.666666667 737.666666667 570 707 c 257
 633 742 l 257
 653.666666667 758.666666667 669 781.333333333 679 810 c 257
 559 911 l 257
204 572 m 257
 174.666666667 550.666666667 142.333333333 531 107 513 c 257
 131 465 145.833333333 406.5 151.5 337.5 c 128
 157.166666667 268.5 153.166666667 205.333333333 139.5 148 c 128
 125.833333333 90.6666666667 109.666666667 36.3333333333 91 -15 c 256
 77.6666666667 -53 59 -87.3333333333 35 -118 c 256
 28.3333333333 -126.666666667 20 -136.333333333 10 -147 c 257
 10 -145.666666667 23.6666666667 -154.333333333 51 -173 c 257
 56.3333333333 -167.666666667 72.3333333333 -149.333333333 99 -118 c 256
 131 -81.3333333333 165.333333333 -37.3333333333 202 14 c 256
 260.666666667 95.3333333333 296 194.666666667 308 312 c 257
 493 312 l 257
 493 228 489.333333333 160 482 108 c 257
 544 54 l 257
 595 11 l 257
 682 131 l 257
 653 155 l 257
 632 172 l 258
 624.666666667 178 621 191.666666667 621 213 c 258
 617 479 l 257
 617 506 l 258
 617 517.333333333 618.333333333 526 621 532 c 257
 627.666666667 544 636.5 554.5 647.5 563.5 c 128
 658.5 572.5 667.666666667 583 675 595 c 257
 595.666666667 615.666666667 511.666666667 669 423 755 c 257
 401 731 375.333333333 708 346 686 c 257
 334 672.666666667 324.666666667 664 318 660 c 128
 311.333333333 656 308 652.333333333 308 649 c 257
 284 631.666666667 265.666666667 619.666666667 253 613 c 256
 247 609.666666667 230.666666667 596 204 572 c 257
491 428 m 257
 313 428 l 257
 315.666666667 472.666666667 319.166666667 514 323.5 552 c 128
 327.833333333 590 349.333333333 602.333333333 388 589 c 257
 426.666666667 572.333333333 461 553.333333333 491 532 c 257
 491 515 491 515 491 501.5 c 128
 491 488 491 488 491 428 c 257
EndSplineSet
EndChar

StartChar: B
Encoding: 12 66 12
GlifName: B_
Width: 702
VWidth: 0
GlyphClass: 2
Flags: HW
LayerCount: 2
Fore
SplineSet
92 577 m 257
 147 483 l 257
 138 232 l 257
 19 146 l 257
 122 126 l 257
 209 88 l 257
 272 58 l 257
 332 6 l 257
 405 38 l 258
 441 54.6666666667 483.333333333 83 532 123 c 256
 534.666666667 125 540.666666667 130 550 138 c 0
 559.333333333 146 565.666666667 151.333333333 569 154 c 0
 572.333333333 156.666666667 578.166666667 161.5 586.5 168.5 c 0
 594.833333333 175.5 600.666666667 180.833333333 604 184.5 c 0
 607.333333333 188.166666667 612.166666667 193.166666667 618.5 199.5 c 0
 624.833333333 205.833333333 629.666666667 211.333333333 633 216 c 0
 636.333333333 220.666666667 639.833333333 225.666666667 643.5 231 c 0
 647.166666667 236.333333333 650 241.666666667 652 247 c 258
 681 315 l 257
 676 338 l 257
 656 393 l 257
 599 469 l 257
 531 537 l 257
 642 612 l 257
 533 690 l 257
 392 748 l 257
 92 577 l 257
411 575 m 258
 446 551 l 257
 394 519 l 257
 352 483 l 257
 294 458 l 257
 293 546 l 257
 294 631 l 257
 298.5 631 l 0
 301.5 631 305.166666667 630.5 309.5 629.5 c 0
 313.833333333 628.5 318.166666667 627.666666667 322.5 627 c 0
 326.833333333 626.333333333 330.333333333 625.5 333 624.5 c 0
 335.666666667 623.5 337 622.666666667 337 622 c 256
 336.333333333 621.333333333 337.333333333 620 340 618 c 0
 342.666666667 616 346 613.833333333 350 611.5 c 0
 354 609.166666667 358.166666667 607 362.5 605 c 0
 366.833333333 603 371 601 375 599 c 256
 380.333333333 596.333333333 392.333333333 588.333333333 411 575 c 258
251 248 m 257
 299 272 l 257
 299 403 l 257
 369 427 l 257
 435 409 l 257
 508 344 l 257
 523 276 l 257
 517 229 l 257
 493 165 l 257
 444 115 l 257
 251 248 l 257
EndSplineSet
PickledDataWithLists: "(dp0
Vxyz.fontra.layer-names
p1
(dp2
VBlockbone-Black/public.default
p3
Vdefault
p4
ss."
EndChar

StartChar: C
Encoding: 13 67 13
GlifName: C_
Width: 550
VWidth: 0
GlyphClass: 2
Flags: HW
LayerCount: 2
Fore
SplineSet
514 588 m 257
 522 611 l 257
 525 628 l 257
 535 665 l 257
 519 677 l 257
 501 689 l 257
 479 706 l 257
 459 720 l 257
 437 736 l 257
 417 750 l 257
 357 720 l 257
 301 692 l 257
 245 663 l 257
 162 623 l 257
 71 577 l 257
 13 547 l 257
 14 501 l 257
 14 446 l 257
 16 402 l 257
 20 343 l 257
 27 296 l 257
 39 258 l 257
 53 228 l 257
 66 200 l 257
 97 167 l 257
 125 139 l 257
 172 109 l 257
 221 83 l 257
 275 60 l 257
 307 47 l 257
 343 33 l 257
 366 24 l 257
 390 18 l 257
 417 8 l 257
 423 18 l 257
 431 38 l 257
 439 57 l 257
 447 69 l 257
 452 82 l 257
 465 104 l 257
 472 123 l 257
 481 140 l 257
 485 152 l 257
 492 164 l 257
 497 175 l 257
 503 186 l 257
 492 183 l 257
 469 179 l 257
 443 179 l 257
 418 177 l 257
 377 182 l 257
 358 186 l 257
 321 196 l 257
 305 203 l 257
 288 210 l 257
 271 220 l 257
 246 239 l 257
 199 296 l 257
 180 340 l 257
 163 415 l 257
 159 469 l 257
 173 515 l 257
 196 561 l 257
 241 589 l 257
 242 537 l 257
 247 481 l 257
 246 385 l 257
 246 338 l 257
 227 304 l 257
 210 283 l 257
 236 251 l 257
 394 319 l 257
 379 385 l 257
 375 521 l 257
 386 590 l 257
 418 578 l 257
 444 567 l 257
 463 553 l 257
 479 540 l 257
 496 528 l 257
 499 548 l 257
 507 567 l 257
 514 588 l 257
EndSplineSet
EndChar

StartChar: D
Encoding: 18 68 18
GlifName: D_
Width: 633
VWidth: 0
GlyphClass: 2
Flags: HW
LayerCount: 2
Fore
SplineSet
7 635 m 257
 80 624 l 257
 158 620 l 257
 213 603 l 257
 276 582 l 257
 217 555 l 257
 169 542 l 257
 108 538 l 257
 55 531 l 257
 99 468 l 257
 114 412 l 257
 114 357 l 257
 114 304 l 257
 103 252 l 257
 5 134 l 257
 89 113 l 257
 167 81 l 257
 251 50 l 257
 335 18 l 257
 406 71 l 257
 463 111 l 257
 514 155 l 257
 543 195 l 257
 617 260 l 257
 623 315 l 257
 606 395 l 257
 581 483 l 257
 535 546 l 257
 495 605 l 257
 415 662 l 257
 320 715 l 257
 234 742 l 257
 169 754 l 257
 7 635 l 257
305 561 m 257
 358 519 l 257
 398 475 l 257
 427 418 l 257
 446 380 l 257
 465 308 l 257
 444 235 l 257
 425 193 l 257
 381 159 l 257
 322 157 l 257
 280 174 l 257
 234 203 l 257
 181 241 l 257
 230 260 l 257
 287 260 l 257
 276 306 l 257
 265 359 l 257
 265 412 l 257
 268 456 l 257
 274 498 l 257
 305 561 l 257
EndSplineSet
EndChar

StartChar: E
Encoding: 21 69 21
GlifName: E_
Width: 700
VWidth: 0
GlyphClass: 2
Flags: HW
LayerCount: 2
Fore
SplineSet
192 631 m 257
 11 527 l 257
 17 427 l 257
 33 329 l 257
 57 270 l 257
 83 216 l 257
 109 178 l 257
 131 154 l 257
 154 131 l 257
 177 111 l 257
 205 92 l 257
 231 77 l 257
 259 64 l 257
 302 45 l 257
 374 25 l 257
 443 14 l 257
 495 86 l 257
 548 160 l 257
 378 175 l 257
 256 240 l 257
 216 283 l 257
 174 353 l 257
 157 442 l 257
 159 515 l 257
 171 545 l 257
 200 577 l 257
 242 604 l 257
 241 571 l 257
 240 509 l 257
 239 411 l 257
 253 294 l 257
 216 282 l 257
 252 239 l 257
 288 252 l 257
 312 263 l 257
 345 275 l 257
 368 281 l 257
 358 341 l 257
 355 415 l 257
 451 413 l 257
 556 413 l 257
 555 527 l 257
 528 527 l 257
 492 527 l 257
 467 527 l 257
 452 527 l 257
 442 527 l 257
 432 527 l 257
 415 527 l 257
 389 527 l 257
 353 527 l 257
 354 560 l 257
 360 607 l 257
 363 621 l 257
 391 618 l 257
 424 607 l 257
 441 601 l 257
 456 590 l 257
 471 583 l 257
 485 577 l 257
 509 561 l 257
 590 652 l 257
 479 695 l 257
 381 749 l 257
 192 631 l 257
EndSplineSet
EndChar

StartChar: Edieresis
Encoding: 25 203 25
GlifName: E_dieresis
Width: 700
VWidth: 0
GlyphClass: 2
Flags: HW
LayerCount: 2
Fore
SplineSet
192 631 m 257
 11 527 l 257
 17 427 l 257
 33 329 l 257
 57 270 l 257
 83 216 l 257
 109 178 l 257
 131 154 l 257
 154 131 l 257
 177 111 l 257
 205 92 l 257
 231 77 l 257
 259 64 l 257
 302 45 l 257
 374 25 l 257
 443 14 l 257
 495 86 l 257
 548 160 l 257
 378 175 l 257
 256 240 l 257
 216 283 l 257
 174 353 l 257
 157 442 l 257
 159 515 l 257
 171 545 l 257
 200 577 l 257
 242 604 l 257
 241 571 l 257
 240 509 l 257
 239 411 l 257
 253 294 l 257
 216 282 l 257
 252 239 l 257
 288 252 l 257
 312 263 l 257
 345 275 l 257
 368 281 l 257
 358 341 l 257
 355 415 l 257
 451 413 l 257
 556 413 l 257
 555 527 l 257
 528 527 l 257
 492 527 l 257
 467 527 l 257
 452 527 l 257
 442 527 l 257
 432 527 l 257
 415 527 l 257
 389 527 l 257
 353 527 l 257
 354 560 l 257
 360 607 l 257
 363 621 l 257
 391 618 l 257
 424 607 l 257
 441 601 l 257
 456 590 l 257
 471 583 l 257
 485 577 l 257
 509 561 l 257
 591 657 l 257
 481 700 l 257
 389 749 l 257
 192 631 l 257
116 816 m 256
 111.333333333 798.666666667 110 776.833333333 112 750.5 c 0
 114 724.166666667 117.166666667 698.666666667 121.5 674 c 0
 125.833333333 649.333333333 128.333333333 637.333333333 129 638 c 256
 143 645.333333333 178 667.666666667 234 705 c 256
 318 760 l 257
 299.333333333 764.666666667 272.666666667 772.166666667 238 782.5 c 0
 203.333333333 792.833333333 174.5 801.333333333 151.5 808 c 0
 128.5 814.666666667 116.666666667 817.333333333 116 816 c 256
613 676 m 256
 613 725.333333333 615 766 619 798 c 256
 596 794 l 0
 580.666666667 791.333333333 565.166666667 788.666666667 549.5 786 c 0
 533.833333333 783.333333333 525.666666667 782 525 782 c 256
 442 764 l 257
 457.333333333 742.666666667 479.333333333 724.666666667 508 710 c 0
 536.666666667 695.333333333 561.333333333 685.666666667 582 681 c 0
 602.666666667 676.333333333 613 674.666666667 613 676 c 256
EndSplineSet
EndChar

StartChar: F
Encoding: 31 70 31
GlifName: F_
Width: 500
VWidth: 0
GlyphClass: 2
Flags: HW
LayerCount: 2
Fore
SplineSet
486 672 m 257
 357 707 l 257
 246 745 l 257
 192 682 l 257
 134 628 l 257
 64 573 l 257
 21 541 l 257
 47 485 l 257
 84 424 l 257
 86 419 97 397 117 358 c 257
 148 306 l 257
 183 238 l 257
 209 184 l 257
 237 140 l 257
 258 93 l 257
 281 29 l 257
 293 -12 l 257
 287 -41 l 257
 230 -20 l 257
 197 8 l 257
 164 41 l 257
 141 74 l 257
 106 109 l 257
 68 163 l 257
 52 109 l 257
 30 60 l 257
 7 15 l 257
 36 -18 l 257
 74 -65 l 257
 111 -102 l 257
 149 -133 l 257
 195 -165 l 257
 223 -181 l 257
 263 -128 l 257
 300 -76 l 257
 324 -41 l 257
 343 -13 l 257
 373 25 l 257
 399 63 l 257
 425 99 l 257
 396 141 l 257
 365 192 l 257
 338 241 l 257
 312 287 l 257
 288 335 l 257
 272 367 l 257
 333 364 l 257
 382 361 l 257
 450 356 l 257
 456 397 l 257
 465 445 l 257
 468 473 l 257
 398 465 l 257
 318 460 l 257
 271 460 l 257
 230 462 l 257
 219 490 l 257
 212 508 l 257
 204 527 l 257
 195 559 l 257
 189 587 l 257
 192 607 l 257
 218 614 l 257
 235 614 l 257
 256 607 l 257
 277 602 l 257
 297 594 l 257
 325 583 l 257
 349 570 l 257
 369 558 l 257
 387 540 l 257
 399 560 l 257
 413 585 l 257
 436 604 l 257
 453 630 l 257
 486 672 l 257
EndSplineSet
EndChar

StartChar: G
Encoding: 32 71 32
GlifName: G_
Width: 730
VWidth: 0
GlyphClass: 2
Flags: HW
LayerCount: 2
Fore
SplineSet
539 527 m 257
 573 560 l 257
 607 592 l 257
 649 634 l 257
 595 649 l 257
 545 667 l 257
 482 683 l 257
 468 691 l 257
 449 703 l 257
 408 725 l 257
 387 738 l 257
 369 752 l 257
 296 712 l 257
 229 668 l 257
 183 629 l 257
 154 602 l 257
 108 554 l 257
 68 505 l 257
 35 455 l 257
 30 396 l 257
 35 369 l 257
 46 308 l 257
 78 229 l 257
 102 188 l 257
 137 152 l 257
 155 138 l 257
 183 110 l 257
 227 82 l 257
 284 49 l 257
 332 25 l 257
 358 16 l 257
 396 33 l 257
 423 49 l 257
 455 72 l 257
 506 105 l 257
 554 147 l 257
 596 190 l 257
 636 243 l 257
 662 279 l 257
 683 316 l 257
 700 349 l 257
 670 394 l 257
 645 424 l 257
 615 458 l 257
 572 500 l 257
 539 527 l 257
 467 559 l 257
 410 506 l 257
 357 459 l 257
 358 435 l 257
 421 422 l 257
 468 395 l 257
 518 352 l 257
 541 316 l 257
 554 270 l 257
 553 236 l 257
 549 215 l 257
 546 202 l 257
 533 185 l 257
 514 174 l 257
 495 163 l 257
 462 155 l 257
 426 152 l 257
 400 158 l 257
 374 166 l 257
 343 182 l 257
 314 199 l 257
 286 220 l 257
 249 249 l 257
 213 285 l 257
 197 303 l 257
 173 346 l 257
 159 399 l 257
 159 455 l 257
 172 507 l 257
 193 547 l 257
 216 576 l 257
 231 529 l 257
 230 500 l 257
 227 342 l 257
 213 285 l 257
 248 250 l 257
 315 297 l 257
 367 316 l 257
 361 361 l 257
 357 459 l 257
 356 518 l 257
 357 568 l 257
 361 610 l 257
 378 605 l 257
 393 599 l 257
 407 594 l 257
 427 584 l 257
 449 572 l 257
 467 560 l 257
 494 547 l 257
 528 532 l 257
 539 527 l 257
EndSplineSet
EndChar

StartChar: Germandbls
Encoding: 36 7838 36
GlifName: G_ermandbls
Width: 700
VWidth: 0
GlyphClass: 2
Flags: HW
LayerCount: 2
Fore
SplineSet
165 -215 m 257
 169 -217 191.833333333 -217.333333333 233.5 -216 c 0
 275.166666667 -214.666666667 308.666666667 -211 334 -205 c 257
 490 -123 l 257
 496 -118.333333333 505.166666667 -107.666666667 517.5 -91 c 0
 529.833333333 -74.3333333333 543.666666667 -55.3333333333 559 -34 c 0
 574.333333333 -12.6666666667 586.333333333 3 595 13 c 256
 605 25 613.333333333 40.1666666667 620 58.5 c 0
 626.666666667 76.8333333333 632.833333333 98.1666666667 638.5 122.5 c 0
 644.166666667 146.833333333 648.333333333 162.666666667 651 170 c 256
 657.666666667 192.666666667 658 221.166666667 652 255.5 c 0
 646 289.833333333 637.333333333 316.333333333 626 335 c 256
 622.666666667 340.333333333 615.166666667 353.666666667 603.5 375 c 0
 591.833333333 396.333333333 581 414.333333333 571 429 c 0
 561 443.666666667 550.666666667 454.333333333 540 461 c 256
 517.333333333 476.333333333 486.333333333 500.333333333 447 533 c 257
 455 545 469.666666667 562.5 165 -215 c 257
EndSplineSet
EndChar

StartChar: H
Encoding: 37 72 37
GlifName: H_
Width: 650
VWidth: 0
GlyphClass: 2
Flags: HW
LayerCount: 2
Fore
SplineSet
509 675 m 257
 441 696 l 257
 368 720 l 257
 297 749 l 257
 230 713 l 257
 152 670 l 257
 55 616 l 257
 19 596 l 257
 30 544 l 257
 38 482 l 257
 43 445 l 257
 48 372 l 257
 45 291 l 257
 40 224 l 257
 28 150 l 257
 12 89 l 257
 48 74 l 257
 96 54 l 257
 157 35 l 257
 233 14 l 257
 274 74 l 257
 304 126 l 257
 339 162 l 257
 286 169 l 257
 217 192 l 257
 193 207 l 257
 190 297 l 257
 189 372 l 257
 237 401 l 257
 286 407 l 257
 330 382 l 257
 365 330 l 257
 392 276 l 257
 417 194 l 257
 417 128 l 257
 400 52 l 257
 376 -7 l 257
 337 -51 l 257
 301 -78 l 257
 262 -102 l 257
 198 -123 l 257
 227 -152 l 257
 267 -180 l 257
 299 -182 l 257
 343 -156 l 257
 388 -104 l 257
 423 -58 l 257
 463 3 l 257
 488 54 l 257
 520 118 l 257
 552 186 l 257
 569 239 l 257
 587 293 l 257
 555 344 l 257
 510 394 l 257
 481 431 l 257
 442 468 l 257
 404 509 l 257
 370 542 l 257
 338 527 l 257
 296 497 l 257
 263 476 l 257
 225 451 l 257
 192 432 l 257
 190 470 l 257
 191 510 l 257
 192 532 l 257
 190 566 l 257
 190 593 l 257
 207 617 l 257
 224 625 l 257
 245 626 l 257
 272 620 l 257
 308 605 l 257
 338 591 l 257
 370 583 l 257
 396 597 l 257
 419 615 l 257
 443 631 l 257
 468 647 l 257
 509 675 l 257
EndSplineSet
EndChar

StartChar: I
Encoding: 38 73 38
GlifName: I_
Width: 518
VWidth: 0
GlyphClass: 2
Flags: HW
LayerCount: 2
Fore
SplineSet
35 598 m 257
 68 610 l 257
 95 617 l 257
 122 623 l 257
 159 618 l 257
 202 610 l 257
 239 603 l 257
 285 601 l 257
 325 601 l 257
 361 602 l 257
 382 604 l 257
 366 587 l 257
 349 571 l 257
 333 555 l 257
 321 544 l 257
 301 527 l 257
 307 486 l 257
 313 444 l 257
 322 393 l 257
 329 351 l 257
 336 299 l 257
 341 242 l 257
 342 209 l 257
 341 192 l 257
 330 169 l 257
 318 157 l 257
 304 150 l 257
 288 151 l 257
 270 157 l 257
 227 176 l 257
 195 193 l 257
 154 219 l 257
 129 237 l 257
 92 271 l 257
 63 301 l 257
 39 330 l 257
 31 277 l 257
 24 237 l 257
 18 203 l 257
 13 160 l 257
 24 130 l 257
 45 113 l 257
 83 96 l 257
 106 85 l 257
 137 70 l 257
 162 58 l 257
 203 39 l 257
 237 23 l 257
 253 15 l 257
 273 37 l 257
 293 57 l 257
 313 78 l 257
 340 105 l 257
 365 130 l 257
 390 152 l 257
 420 177 l 257
 440 192 l 257
 456 223 l 257
 465 251 l 257
 470 285 l 257
 471 325 l 257
 469 354 l 257
 466 394 l 257
 461 431 l 257
 456 480 l 257
 452 524 l 257
 449 554 l 257
 446 591 l 257
 441 630 l 257
 455 655 l 257
 468 678 l 257
 478 697 l 257
 487 712 l 257
 503 740 l 257
 459 739 l 257
 414 739 l 257
 365 740 l 257
 321 741 l 257
 286 743 l 257
 258 745 l 257
 237 746 l 257
 211 749 l 257
 191 751 l 257
 166 754 l 257
 138 757 l 257
 120 760 l 257
 101 763 l 257
 93 749 l 257
 80 723 l 257
 70 705 l 257
 56 677 l 257
 52 661 l 257
 44 641 l 257
 35 598 l 257
EndSplineSet
EndChar

StartChar: J
Encoding: 44 74 44
GlifName: J_
Width: 556
VWidth: 0
GlyphClass: 2
Flags: HW
LayerCount: 2
Fore
SplineSet
141 762 m 257
 7 506 l 257
 88 558 l 257
 149 583 l 257
 238 600 l 257
 295 605 l 257
 387 606 l 257
 372 551 l 257
 363 499 l 257
 345 500 l 257
 326 501 l 257
 303 504 l 257
 283 507 l 257
 254 514 l 257
 214 527 l 257
 122 355 l 257
 147 361 l 257
 183 368 l 257
 220 373 l 257
 249 377 l 257
 279 379 l 257
 309 379 l 257
 350 377 l 257
 347 338 l 257
 343 298 l 257
 337 269 l 257
 331 230 l 257
 324 197 l 257
 319 180 l 257
 313 157 l 257
 306 130 l 257
 295 96 l 257
 283 66 l 257
 275 47 l 257
 265 28 l 257
 244 -5 l 257
 220 -36 l 257
 189 -66 l 257
 146 -92 l 257
 100 -111 l 257
 3 -135 l 257
 43 -165 l 257
 80 -193 l 257
 107 -177 l 257
 158 -145 l 257
 197 -118 l 257
 223 -97 l 257
 248 -77 l 257
 269 -59 l 257
 288 -40 l 257
 314 -14 l 257
 335 5 l 257
 351 27 l 257
 396 97 l 257
 430 145 l 257
 454 202 l 257
 478 266 l 257
 493 325 l 257
 503 382 l 257
 505 456 l 257
 506 514 l 257
 503 574 l 257
 505 626 l 257
 503 661 l 257
 509 694 l 257
 520 716 l 257
 532 734 l 257
 536 749 l 257
 490 740 l 257
 450 734 l 257
 379 727 l 257
 321 732 l 257
 246 735 l 257
 141 762 l 257
EndSplineSet
EndChar

StartChar: K
Encoding: 45 75 45
GlifName: K_
Width: 700
VWidth: 0
GlyphClass: 2
Flags: HW
LayerCount: 2
Fore
SplineSet
69 749 m 257
 51 679 l 257
 35 623 l 257
 26 586 l 257
 69 592 l 257
 123 600 l 257
 158 598 l 257
 159 569 l 257
 157 493 l 257
 145 368 l 257
 138 272 l 257
 125 219 l 257
 110 176 l 257
 88 136 l 257
 64 99 l 257
 43 75 l 257
 22 54 l 257
 55 53 l 257
 103 48 l 257
 160 41 l 257
 204 34 l 257
 254 23 l 257
 282 15 l 257
 299 46 l 257
 320 86 l 257
 342 125 l 257
 363 166 l 257
 336 162 l 257
 317 161 l 257
 296 160 l 257
 260.666666667 158 238 158.333333333 228 161 c 257
 208 169 l 257
 237 198 l 257
 261 217 l 257
 284 243 l 257
 300 280 l 257
 306 318 l 257
 349 339 l 257
 381 353 l 257
 469 173 l 257
 493 109 l 257
 518 52 l 257
 532 15 l 257
 553 28 l 257
 611 64 l 257
 650 87 l 257
 688 110 l 257
 668 142 l 257
 649 175 l 257
 624 208 l 257
 616 230 l 257
 600 254 l 257
 581 287 l 257
 565 313 l 257
 546 364 l 257
 524 418 l 257
 550 431 l 257
 620 469 l 257
 688 499 l 257
 638 556 l 257
 600 600 l 257
 565 652 l 257
 536 695 l 257
 501 750 l 257
 447 664 l 257
 412 619 l 257
 377 569 l 257
 354 541 l 257
 338 519 l 257
 305 484 l 257
 302 510 l 257
 302 542 l 257
 309 612 l 257
 318 655 l 257
 332 691 l 257
 353 726 l 257
 305 729 l 257
 186 740 l 257
 101 747 l 257
 69 749 l 257
309 387 m 257
 441 556 l 257
 499 483 l 257
 309 387 l 257
EndSplineSet
EndChar

StartChar: L
Encoding: 46 76 46
GlifName: L_
Width: 580
VWidth: 0
GlyphClass: 2
Flags: HW
LayerCount: 2
Fore
SplineSet
261 263 m 257
 285 244 l 257
 318 271 l 257
 337 286 l 257
 360 305 l 257
 386 325 l 257
 401 344 l 257
 417 365 l 257
 427 388 l 257
 428 396 l 257
 424 416 l 257
 420 430 l 257
 421 452 l 257
 416 470 l 257
 415 494 l 257
 410 516 l 257
 408 539 l 257
 408 565 l 257
 409 580 l 257
 407 599 l 257
 409 626 l 257
 413 653 l 257
 430 658 l 257
 456 665 l 257
 490 667 l 257
 515 673 l 257
 548 674 l 257
 528 713 l 257
 517 731 l 257
 495 751 l 257
 454 748 l 257
 393 726 l 257
 334 700 l 257
 267 678 l 257
 195 655 l 257
 136 628 l 257
 88 611 l 257
 55 589 l 257
 50 569 l 257
 55 545 l 257
 72 484 l 257
 87 428 l 257
 103 395 l 257
 114 358 l 257
 116 301 l 257
 105 259 l 257
 92 229 l 257
 77 188 l 257
 59 161 l 257
 40 129 l 257
 7 100 l 257
 44 94 l 257
 83 81 l 257
 138 73 l 257
 174 64 l 257
 212 59 l 257
 226 55 l 257
 253 51 l 257
 282 44 l 257
 309 38 l 257
 344 31 l 257
 373 25 l 257
 410 18 l 257
 434 16 l 257
 450 16 l 257
 465 24 l 257
 478 36 l 257
 488 49 l 257
 498 62 l 257
 507 78 l 257
 518 94 l 257
 528 109 l 257
 538 125 l 257
 554 151 l 257
 536 150 l 257
 509 150 l 257
 492 150 l 257
 470 150 l 257
 452 152 l 257
 430 153 l 257
 410 155 l 257
 389 158 l 257
 370 159 l 257
 349 162 l 257
 325 165 l 257
 304 171 l 257
 288 173 l 257
 263 177 l 257
 239 184 l 257
 217 192 l 257
 244 209 l 257
 261 224 l 257
 285 244 l 257
 261 263 l 257
 251 301 l 257
 253 319 l 257
 253 352 l 257
 252 373 l 257
 246 400 l 257
 241 431 l 257
 233 455 l 257
 227 491 l 257
 222 524 l 257
 221 553 l 257
 236 578 l 257
 261 596 l 257
 293 612 l 257
 289 572 l 257
 292 520 l 257
 296 464 l 257
 296 414 l 257
 277 329 l 257
 251 301 l 257
 261 263 l 257
EndSplineSet
EndChar

StartChar: Lslash
Encoding: 47 321 47
GlifName: L_slash
Width: 500
VWidth: 0
GlyphClass: 2
Flags: HW
LayerCount: 2
Fore
SplineSet
261 263 m 257
 285 244 l 257
 318 271 l 257
 337 286 l 257
 360 305 l 257
 386 325 l 257
 401 344 l 257
 417 365 l 257
 427 388 l 257
 428 396 l 257
 424 416 l 257
 420 430 l 257
 421 452 l 257
 419 459 l 257
 504 500 l 257
 493 575 l 257
 408 539 l 257
 407 544 l 257
 405 556 l 257
 409 600 l 257
 411 617 l 257
 413 653 l 257
 430 658 l 257
 456 665 l 257
 490 667 l 257
 515 673 l 257
 548 674 l 257
 528 713 l 257
 517 731 l 257
 495 751 l 257
 454 748 l 257
 393 726 l 257
 334 700 l 257
 267 678 l 257
 195 655 l 257
 136 628 l 257
 88 611 l 257
 55 589 l 257
 50 569 l 257
 55 545 l 257
 72 484 l 257
 96 398 l 257
 4 328 l 257
 38 243 l 257
 106 293 l 257
 105 259 l 257
 92 229 l 257
 77 188 l 257
 59 161 l 257
 40 129 l 257
 7 100 l 257
 44 94 l 257
 83 81 l 257
 138 73 l 257
 174 64 l 257
 212 59 l 257
 226 55 l 257
 253 51 l 257
 282 44 l 257
 309 38 l 257
 344 31 l 257
 373 25 l 257
 410 18 l 257
 434 16 l 257
 450 16 l 257
 465 24 l 257
 478 36 l 257
 488 49 l 257
 498 62 l 257
 507 78 l 257
 518 94 l 257
 528 109 l 257
 538 125 l 257
 554 151 l 257
 536 150 l 257
 509 150 l 257
 492 150 l 257
 470 150 l 257
 452 152 l 257
 430 153 l 257
 410 155 l 257
 389 158 l 257
 370 159 l 257
 349 162 l 257
 325 165 l 257
 304 171 l 257
 288 173 l 257
 263 177 l 257
 239 184 l 257
 217 192 l 257
 244 209 l 257
 261 224 l 257
 285 244 l 257
 261 263 l 257
 251 301 l 257
 253 319 l 257
 253 352 l 257
 252 373 l 257
 257 386 l 257
 305 413 l 257
 305 500 l 257
 305 507 l 257
 224 465 l 257
 221 553 l 257
 236 578 l 257
 261 596 l 257
 293 612 l 257
 289 572 l 257
 292 520 l 257
 296 464 l 257
 296 414 l 257
 277 329 l 257
 251 301 l 257
 261 263 l 257
EndSplineSet
EndChar

StartChar: M
Encoding: 48 77 48
GlifName: M_
Width: 950
VWidth: 0
GlyphClass: 2
Flags: HW
LayerCount: 2
Fore
SplineSet
281 698 m 257
 259 749 l 257
 204 729 l 257
 158 711 l 257
 108 689 l 257
 69 665 l 257
 39 633 l 257
 35 588 l 257
 49 543 l 257
 71 496 l 257
 91 448 l 257
 116 394 l 257
 138 336 l 257
 144 280 l 257
 135 257 l 257
 112 224 l 257
 71 180 l 257
 43 151 l 257
 20 130 l 257
 245 15 l 257
 328 162 l 257
 281 174 l 257
 244 188 l 257
 199 213 l 257
 217 237 l 257
 235 260 l 257
 260 298 l 257
 277 327 l 257
 296 381 l 257
 289 432 l 257
 276 468 l 257
 252 513 l 257
 275 536 l 257
 312 566 l 257
 348 595 l 257
 370 591 l 257
 421 571 l 257
 418 512 l 257
 416 412 l 257
 414 406 411 381.666666667 407 339 c 257
 404 249 l 257
 399 214 l 257
 391 191 l 257
 383 167 l 257
 363 132 l 257
 396 103 l 257
 435 69 l 257
 484 15 l 257
 513 51 l 257
 539 82 l 257
 597 154 l 257
 578 164 l 257
 562 190 l 257
 554 223 l 257
 552 281 l 257
 554 345 l 257
 555 420 l 257
 559 526 l 257
 564 576 l 257
 577 605 l 257
 590 604 l 257
 608.666666667 601.333333333 645 582 699 546 c 257
 726 526 l 257
 716 518.666666667 703.5 500.666666667 688.5 472 c 0
 673.5 443.333333333 666.333333333 417.333333333 667 394 c 257
 667 318 l 257
 667 286 l 257
 667 203 l 257
 674 147 l 257
 676 132.333333333 685.333333333 111.5 702 84.5 c 0
 718.666666667 57.5 733.666666667 41.3333333333 747 36 c 257
 775 21 l 257
 790 15 l 257
 869 160 l 257
 841 182 l 257
 816 224 l 257
 810 261 l 257
 813 301 l 257
 816 351 l 257
 816 406 l 257
 819 449 l 257
 822 500 l 257
 830 538 l 257
 844 567 l 257
 870 605 l 257
 901 631 l 257
 782 683 l 257
 661 748 l 257
 564 647 l 257
 522 669 l 257
 449 725 l 257
 415 750 l 257
 336 671 l 257
 227 564 l 257
 215 591 l 257
 208 628 l 257
 210 652 l 257
 221 667 l 257
 248 685 l 257
 281 698 l 257
EndSplineSet
EndChar

StartChar: N
Encoding: 49 78 49
GlifName: N_
Width: 700
VWidth: 0
GlyphClass: 2
Flags: HW
LayerCount: 2
Fore
SplineSet
278 699 m 257
 257 749 l 257
 207 731 l 257
 165 714 l 257
 132 700 l 257
 82 674 l 257
 56 656 l 257
 36 627 l 257
 32 596 l 257
 36 576 l 257
 44 554 l 257
 59 517 l 257
 78 472 l 257
 82 463 l 257
 86.6666666667 456.333333333 97.5 432.833333333 114.5 392.5 c 0
 131.5 352.166666667 139.666666667 326 139 314 c 257
 142 297 l 257
 140 282 l 257
 137 266 l 257
 115 232 l 257
 89 201 l 257
 66 178 l 257
 18 130 l 257
 57 109 l 257
 94 92 l 257
 147 64 l 257
 191 41 l 257
 244 14 l 257
 274 73 l 257
 325 162 l 257
 291 171 l 257
 261 181 l 257
 232 193 l 257
 197 211 l 257
 215 236 l 257
 236 268 l 257
 253 291 l 257
 267 314 l 257
 280 340 l 257
 293 380 l 257
 291 414 l 257
 272 472 l 257
 257 503 l 257
 301 541 l 257
 350 562 l 257
 379 565 l 257
 418 559 l 257
 476 528 l 257
 444 479 l 257
 426 434 l 257
 419 369 l 257
 419 304 l 257
 418 254 l 257
 420 201 l 257
 424 163 l 257
 434 126 l 257
 452 82 l 257
 476 55 l 257
 510 29 l 257
 544 16 l 257
 578 83 l 257
 621 162 l 257
 609 166 l 257
 592 178 l 257
 582 189 l 257
 575 201 l 257
 570 216 l 257
 565 237 l 257
 567 375 l 257
 569 432 l 257
 572 470 l 257
 576 504 l 257
 583 535 l 257
 597 569 l 257
 614 597 l 257
 636 618 l 257
 653 631 l 257
 591 656 l 257
 557 673 l 257
 525 689 l 257
 480 713 l 257
 436 736 l 257
 411 752 l 257
 362 699 l 257
 326 660 l 257
 297 629 l 257
 228 555 l 257
 220 570 l 257
 206 619 l 257
 208 648 l 257
 225 673 l 257
 278 699 l 257
EndSplineSet
EndChar

StartChar: O
Encoding: 51 79 51
GlifName: O_
Width: 800
VWidth: 0
GlyphClass: 2
Flags: HW
LayerCount: 2
Fore
SplineSet
461 645 m 257
 460 751 l 257
 374 732 l 257
 317 711 l 257
 259 686 l 257
 211 657 l 257
 166 620 l 257
 120 575 l 257
 81 539 l 257
 56 503 l 257
 20 453 l 257
 28 399 l 257
 39 350 l 257
 56 291 l 257
 74 246 l 257
 100 195 l 257
 129 135 l 257
 174 84 l 257
 230 51 l 257
 285 30 l 257
 376 15 l 257
 458 20 l 257
 510 41 l 257
 583 80 l 257
 622 112 l 257
 667 163 l 257
 717 233 l 257
 740 281 l 257
 760 333 l 257
 776 401 l 257
 782 493 l 257
 729 529 l 257
 668 576 l 257
 617 629 l 257
 571 693 l 257
 547 730 l 257
 491 679 l 257
 461 645 l 257
218 323 m 257
 206 400 l 257
 204 455 l 257
 217 529 l 257
 266 603 l 257
 304 635 l 257
 317 565 l 257
 321 511 l 257
 323 455 l 257
 325 400 l 257
 325 339 l 257
 322 262 l 257
 316 215 l 257
 306 175 l 257
 345 145 l 257
 382 178 l 257
 410 204 l 257
 446 222 l 257
 481 236 l 257
 508 243 l 257
 495 275 l 257
 480 322 l 257
 471 379 l 257
 463 446 l 257
 459 518 l 257
 454 579 l 257
 509 538 l 257
 536 513 l 257
 558 490 l 257
 580 461 l 257
 599 430 l 257
 620 393 l 257
 633 356 l 257
 640 326 l 257
 649 281 l 257
 642 242 l 257
 626 213 l 257
 609 180 l 257
 586 156 l 257
 559 136 l 257
 523 121 l 257
 471 115 l 257
 397 121 l 257
 345 145 l 257
 306 175 l 257
 244 249 l 257
 218 323 l 257
EndSplineSet
Substitution2: "SingleSubstitutionlookup6 subtable" ordmasculine
EndChar

StartChar: OE
Encoding: 52 338 52
GlifName: O_E_
Width: 1200
VWidth: 0
GlyphClass: 2
Flags: HW
LayerCount: 2
Fore
SplineSet
462 652 m 257
 460 751 l 257
 374 732 l 257
 317 711 l 257
 259 686 l 257
 211 657 l 257
 166 620 l 257
 120 575 l 257
 81 539 l 257
 56 503 l 257
 20 453 l 257
 28 399 l 257
 39 350 l 257
 56 291 l 257
 74 246 l 257
 100 195 l 257
 129 135 l 257
 174 84 l 257
 230 51 l 257
 285 30 l 257
 376 15 l 257
 458 20 l 257
 470 37 l 257
 462 652 l 257
218 323 m 257
 206 400 l 257
 204 455 l 257
 217 529 l 257
 266 603 l 257
 304 635 l 257
 317 565 l 257
 321 511 l 257
 325 339 l 257
 322 262 l 257
 316 215 l 257
 306 175 l 257
 345 145 l 257
 382 178 l 257
 410 204 l 257
 446 222 l 257
 481 236 l 257
 500 237 l 257
 491 237 l 257
 480 233 l 257
 446 222 l 257
 412 203 l 257
 400 197 l 257
 423 160 l 257
 455 132 l 257
 471 115 l 257
 397 121 l 257
 345 145 l 257
 306 175 l 257
 244 249 l 257
 218 323 l 257
464 614 m 257
 467 28 l 257
 554 61 l 257
 679 30 l 257
 748 19 l 257
 800 91 l 257
 853 165 l 257
 695 174 l 257
 561 238 l 257
 521 288 l 257
 479 358 l 257
 464 438 l 257
 464 520 l 257
 484 560 l 257
 502 576 l 257
 540 612 l 257
 546 576 l 257
 545 514 l 257
 544 416 l 257
 557 303 l 257
 527 286 l 257
 557 244 l 257
 593 257 l 257
 617 268 l 257
 650 280 l 257
 673 286 l 257
 663 346 l 257
 660 420 l 257
 756 418 l 257
 861 418 l 257
 860 532 l 257
 833 532 l 257
 797 532 l 257
 772 532 l 257
 757 532 l 257
 747 532 l 257
 737 532 l 257
 720 532 l 257
 694 532 l 257
 658 532 l 257
 659 565 l 257
 665 612 l 257
 668 626 l 257
 696 623 l 257
 729 612 l 257
 746 606 l 257
 761 595 l 257
 776 588 l 257
 790 582 l 257
 814 566 l 257
 895 657 l 257
 784 700 l 257
 686 754 l 257
 464 614 l 257
EndSplineSet
EndChar

StartChar: Odieresis
Encoding: 55 214 55
GlifName: O_dieresis
Width: 800
VWidth: 0
GlyphClass: 2
Flags: HW
LayerCount: 2
Fore
SplineSet
461 645 m 257
 460 751 l 257
 374 732 l 257
 317 711 l 257
 259 686 l 257
 211 657 l 257
 166 620 l 257
 120 575 l 257
 81 539 l 257
 56 503 l 257
 20 453 l 257
 28 399 l 257
 39 350 l 257
 56 291 l 257
 74 246 l 257
 100 195 l 257
 129 135 l 257
 174 84 l 257
 230 51 l 257
 285 30 l 257
 376 15 l 257
 458 20 l 257
 510 41 l 257
 583 80 l 257
 622 112 l 257
 667 163 l 257
 717 233 l 257
 740 281 l 257
 760 333 l 257
 776 401 l 257
 782 493 l 257
 729 529 l 257
 668 576 l 257
 617 629 l 257
 571 693 l 257
 547 730 l 257
 491 679 l 257
 461 645 l 257
218 323 m 257
 206 400 l 257
 204 455 l 257
 217 529 l 257
 266 603 l 257
 304 635 l 257
 317 565 l 257
 321 511 l 257
 323 455 l 257
 325 400 l 257
 325 339 l 257
 322 262 l 257
 316 215 l 257
 306 175 l 257
 345 145 l 257
 382 178 l 257
 410 204 l 257
 446 222 l 257
 481 236 l 257
 508 243 l 257
 495 275 l 257
 480 322 l 257
 471 379 l 257
 463 446 l 257
 459 518 l 257
 454 579 l 257
 509 538 l 257
 536 513 l 257
 558 490 l 257
 580 461 l 257
 599 430 l 257
 620 393 l 257
 633 356 l 257
 640 326 l 257
 649 281 l 257
 642 242 l 257
 626 213 l 257
 609 180 l 257
 586 156 l 257
 559 136 l 257
 523 121 l 257
 471 115 l 257
 397 121 l 257
 345 145 l 257
 306 175 l 257
 244 249 l 257
 218 323 l 257
256 720 m 256
 244.666666667 722 222.833333333 726.5 190.5 733.5 c 0
 158.166666667 740.5 129.333333333 746.666666667 104 752 c 0
 78.6666666667 757.333333333 66 759.666666667 66 759 c 256
 64.6666666667 750.333333333 63.8333333333 741.833333333 63.5 733.5 c 0
 63.1666666667 725.166666667 63 717.666666667 63 711 c 0
 63 704.333333333 63.1666666667 698.5 63.5 693.5 c 0
 63.8333333333 688.5 64.1666666667 684.333333333 64.5 681 c 0
 65 676 l 256
 75 581 l 257
 81 587 88 593.666666667 96 601 c 0
 104 608.333333333 112.333333333 615.333333333 121 622 c 0
 129.666666667 628.666666667 138.666666667 635.5 148 642.5 c 0
 157.333333333 649.5 166.5 656.166666667 175.5 662.5 c 0
 184.5 668.833333333 193.166666667 674.833333333 201.5 680.5 c 0
 209.833333333 686.166666667 217.333333333 691.333333333 224 696 c 0
 230.666666667 700.666666667 236.666666667 704.833333333 242 708.5 c 0
 247.333333333 712.166666667 251.166666667 715 253.5 717 c 0
 255.833333333 719 256.666666667 720 256 720 c 256
747 561 m 256
 757.666666667 590.333333333 763.166666667 625.666666667 763.5 667 c 0
 763.833333333 708.333333333 765 734.333333333 767 745 c 256
 746 741 l 0
 732 738.333333333 718 735.5 704 732.5 c 0
 690 729.5 682.666666667 728 682 728 c 256
 593 710 l 257
 608.333333333 686 628.833333333 661.5 654.5 636.5 c 0
 680.166666667 611.5 701.833333333 592.166666667 719.5 578.5 c 0
 737.166666667 564.833333333 746.333333333 559 747 561 c 256
EndSplineSet
EndChar

StartChar: Oslash
Encoding: 57 216 57
GlifName: O_slash
Width: 800
VWidth: 0
GlyphClass: 2
Flags: HW
LayerCount: 2
Fore
SplineSet
461 645 m 257
 460 751 l 257
 374 732 l 257
 317 711 l 257
 259 686 l 257
 211 657 l 257
 166 620 l 257
 120 575 l 257
 81 539 l 257
 56 503 l 257
 20 453 l 257
 28 399 l 257
 39 350 l 257
 56 291 l 257
 74 246 l 257
 100 195 l 257
 129 135 l 257
 174 84 l 257
 230 51 l 257
 285 30 l 257
 376 15 l 257
 458 20 l 257
 510 41 l 257
 583 80 l 257
 622 112 l 257
 667 163 l 257
 717 233 l 257
 740 281 l 257
 760 333 l 257
 776 401 l 257
 782 493 l 257
 729 529 l 257
 668 576 l 257
 617 629 l 257
 571 693 l 257
 547 730 l 257
 491 679 l 257
 461 645 l 257
218 323 m 257
 206 400 l 257
 204 455 l 257
 217 529 l 257
 266 603 l 257
 304 635 l 257
 317 565 l 257
 321 511 l 257
 323 455 l 257
 325 400 l 257
 325 339 l 257
 322 262 l 257
 316 215 l 257
 306 175 l 257
 345 145 l 257
 382 178 l 257
 410 204 l 257
 446 222 l 257
 481 236 l 257
 508 243 l 257
 495 275 l 257
 480 322 l 257
 471 379 l 257
 463 446 l 257
 459 518 l 257
 454 579 l 257
 509 538 l 257
 536 513 l 257
 558 490 l 257
 580 461 l 257
 599 430 l 257
 620 393 l 257
 633 356 l 257
 640 326 l 257
 649 281 l 257
 642 242 l 257
 626 213 l 257
 609 180 l 257
 586 156 l 257
 559 136 l 257
 523 121 l 257
 471 115 l 257
 397 121 l 257
 345 145 l 257
 306 175 l 257
 244 249 l 257
 218 323 l 257
623 736 m 257
 125 -1 l 257
 137.5 -1 l 0
 150 -1 150 -1 168 -1 c 0
 180 -1 192 -0.833333333333 204 -0.5 c 0
 216 -0.166666666667 226.333333333 0 235 0 c 0
 248 0 l 257
 755 744 l 257
 623 736 l 257
EndSplineSet
EndChar

StartChar: P
Encoding: 59 80 59
GlifName: P_
Width: 630
VWidth: 0
GlyphClass: 2
Flags: HW
LayerCount: 2
Fore
SplineSet
104 750 m 257
 92 734 l 257
 82 721 l 257
 66 700 l 257
 45 674 l 257
 20 642 l 257
 38 634 l 257
 75 617 l 257
 101 606 l 257
 126 593 l 257
 129 430 l 257
 128 262 l 257
 103 236 l 257
 67 202 l 257
 27 160 l 257
 125 125 l 257
 117 13 l 257
 113 -13 l 257
 106 -61 l 257
 93 -119 l 257
 79 -170 l 257
 200 -92 l 257
 294 -34 l 257
 289 -24 l 257
 286 -15 l 257
 282 2 l 257
 280 15 l 257
 278 29 l 257
 277 39 l 257
 276 52 l 257
 275 71 l 257
 299 62 l 257
 338 48 l 257
 362 40 l 257
 389 30 l 257
 412 22 l 257
 431 15 l 257
 446 35 l 257
 483 89 l 257
 514 140 l 257
 550 211 l 257
 571 264 l 257
 591 329 l 257
 603 392 l 257
 609 459 l 257
 601 516 l 257
 590 562 l 257
 576 596 l 257
 542 651 l 257
 523 673 l 257
 503 695 l 257
 473 725 l 257
 441 749 l 257
 292 630 l 257
 298 692 l 257
 104 750 l 257
325 561 m 257
 343 565 l 257
 360 563 l 257
 383 547 l 257
 411 518 l 257
 433 485 l 257
 452 452 l 257
 464 424 l 257
 476 389 l 257
 485 354 l 257
 492 318 l 257
 497 259 l 257
 494 219 l 257
 487 193 l 257
 475 176 l 257
 464 169 l 257
 450 162 l 257
 434 161 l 257
 273 237 l 257
 285 507 l 257
 287 522 l 257
 309 550 l 257
 325 561 l 257
EndSplineSet
EndChar

StartChar: Q
Encoding: 60 81 60
GlifName: Q_
Width: 845
VWidth: 0
GlyphClass: 2
Flags: HW
LayerCount: 2
Fore
SplineSet
452 750 m 257
 411 742 l 257
 390 740 l 257
 363 731 l 257
 340 724 l 257
 301 709 l 257
 256 688 l 257
 204 657 l 257
 157 619 l 257
 114 576 l 257
 73 540 l 257
 9 453 l 257
 18 418 l 257
 26 369 l 257
 47 312 l 257
 60 250 l 257
 84 205 l 257
 95 164 l 257
 125 123 l 257
 153 93 l 257
 185 67 l 257
 224 48 l 257
 264 35 l 257
 299 24 l 257
 352 17 l 257
 406 13 l 257
 515 49 l 257
 535 26 l 257
 554 9 l 257
 579 -13 l 257
 615 -36 l 257
 647 -57 l 257
 660 -65 l 257
 672 -72 l 257
 685 -79 l 257
 699 -86 l 257
 712 -93 l 257
 732 -102 l 257
 759 -113 l 257
 782 -122 l 257
 801 -128 l 257
 829 -137 l 257
 852 -143 l 257
 877 -148 l 257
 899 -152 l 257
 927 -156 l 257
 963 -160 l 257
 995 -161 l 257
 1029 -161 l 257
 1063 -160 l 257
 1091 -158 l 257
 1113 -156 l 257
 1131 -154 l 257
 1141 -153 l 257
 1154 -151 l 257
 1176 -148 l 257
 1189 -146 l 257
 1203 -144 l 257
 1211 -142 l 257
 1212 -123 l 257
 1213 -94 l 257
 1191 -96 l 257
 1173 -97 l 257
 1151 -98 l 257
 1132 -99 l 257
 1110 -99 l 257
 1098 -99 l 257
 1084 -98 l 257
 1070 -97 l 257
 1056 -96 l 257
 1044 -95 l 257
 1033 -94 l 257
 1018 -92 l 257
 990 -88 l 257
 973 -85 l 257
 955 -81 l 257
 928 -74 l 257
 908 -68 l 257
 871 -54 l 257
 850 -45 l 257
 838 -39 l 257
 811 -24 l 257
 794 -13 l 257
 785 -7 l 257
 770 5 l 257
 756 16 l 257
 734 36 l 257
 714 57 l 257
 690 86 l 257
 680 100 l 257
 660 133 l 257
 649 153 l 257
 667 175 l 257
 679 191 l 257
 691 210 l 257
 704 231 l 257
 714 249 l 257
 723 268 l 257
 733 289 l 257
 745 318 l 257
 759 365 l 257
 768 415 l 257
 773 460 l 257
 774 493 l 257
 741 513 l 257
 718 529 l 257
 695 547 l 257
 671 566 l 257
 636 599 l 257
 613 625 l 257
 593 649 l 257
 577 671 l 257
 559 700 l 257
 541 733 l 257
 447 642 l 257
 452 750 l 257
446 579 m 257
 468 563 l 257
 484 550 l 257
 507 529 l 257
 524 514 l 257
 544 490 l 257
 561 474 l 257
 574 455 l 257
 583 440 l 257
 597 424 l 257
 605 405 l 257
 615 384 l 257
 619 372 l 257
 623 360 l 257
 631 336 l 257
 634 318 l 257
 638 294 l 257
 638 287 l 257
 638 271 637.333333333 260 636 254 c 256
 629.333333333 230 622 209 614 191 c 257
 603 178 l 257
 575 149 l 257
 536 130 l 257
 490 114 l 257
 440 112 l 257
 390 120 l 257
 341 142 l 257
 295 176 l 257
 261 210 l 257
 239 243 l 257
 215 284 l 257
 207 316 l 257
 203 341 l 257
 198 367 l 257
 192 426 l 257
 195 484 l 257
 208 537 l 257
 229 574 l 257
 259 610 l 257
 300 637 l 257
 307 581 l 257
 311 493 l 257
 316 292 l 257
 308 216 l 257
 295 175 l 257
 341 142 l 257
 363 174 l 257
 394 199 l 257
 429 218 l 257
 464 231 l 257
 500 241 l 257
 479 299 l 257
 460 382 l 257
 451 463 l 257
 446 579 l 257
EndSplineSet
EndChar

StartChar: R
Encoding: 61 82 61
GlifName: R_
Width: 750
VWidth: 0
GlyphClass: 2
Flags: HW
LayerCount: 2
Fore
SplineSet
30 620 m 257
 57 620 l 257
 81 617 l 257
 92 615 l 257
 103 612 l 257
 116 607 l 257
 126 581 l 257
 141 534 l 257
 156 472 l 257
 160 436 l 257
 162 404 l 257
 162 388 161 367 159 341 c 257
 152 309 l 257
 142 276 l 257
 124 232 l 257
 106 201 l 257
 78 161 l 257
 55 134 l 257
 27 107 l 257
 114 74 l 257
 262 15 l 257
 274 29 l 257
 289 47 l 257
 311 72 l 257
 331 95 l 257
 353 121 l 257
 379 151 l 257
 351 145 l 257
 329 143 l 257
 302 147 l 257
 171 191 l 257
 192 224 l 257
 210 260 l 257
 222 281 l 257
 245 326 l 257
 261 360 l 257
 278 401 l 257
 289 435 l 257
 296 468 l 257
 300 487 l 257
 305 524 l 257
 306 565 l 257
 329 596 l 257
 352 628 l 257
 380 610 l 257
 406 595 l 257
 422 585 l 257
 441 574 l 257
 467 560 l 257
 492 545 l 257
 471 532 l 257
 455 522 l 257
 436 509 l 257
 419 497 l 257
 405 488 l 257
 387 477 l 257
 370 465 l 257
 356 455 l 257
 390 386 l 257
 416 333 l 257
 440 284 l 257
 440.666666667 280 446.833333333 264.833333333 458.5 238.5 c 0
 470.166666667 212.166666667 480 192 488 178 c 257
 509 128 l 257
 529 78 l 257
 541 49 l 257
 555 15 l 257
 601 47 l 257
 649 79 l 257
 723 130 l 257
 709 134 l 257
 692 141 l 257
 674 153 l 257
 661 168 l 257
 648 191 l 257
 628 230 l 257
 600 290 l 257
 564 374 l 257
 543 424 l 257
 510 499 l 257
 544 517 l 257
 577 534 l 257
 618 557 l 257
 650 573 l 257
 689 594 l 257
 659 609 l 257
 632 623 l 257
 607 636 l 257
 574 653 l 257
 551 665 l 257
 515 683 l 257
 468 708 l 257
 438 723 l 257
 418 734 l 257
 387 750 l 257
 371 728 l 257
 355 706 l 257
 340 686 l 257
 322 660 l 257
 295 624 l 257
 288 643 l 257
 274 669 l 257
 262 687 l 257
 245 707 l 257
 229 723 l 257
 209 739 l 257
 193 749 l 257
 152 717 l 257
 118 690 l 257
 78 658 l 257
 30 620 l 257
EndSplineSet
EndChar

StartChar: S
Encoding: 62 83 62
GlifName: S_
Width: 729
VWidth: 0
GlyphClass: 2
Flags: HW
LayerCount: 2
Fore
SplineSet
709 710 m 257
 691 732 l 257
 658 717 l 257
 620 705 l 257
 591 699 l 257
 549 699 l 257
 497 714 l 257
 448 737 l 257
 324 764 l 257
 274 761 l 257
 219 747 l 257
 174 709 l 257
 149 681 l 257
 118 642 l 257
 90 599 l 257
 58 529 l 257
 41 477 l 257
 158 375 l 257
 196 350 l 257
 219 338 l 257
 250 323 l 257
 271 316 l 257
 298 309 l 257
 333 303 l 257
 359 303 l 257
 375 332 l 257
 397 358 l 257
 421 375 l 257
 465 391 l 257
 520 393 l 257
 561 377 l 257
 592 355 l 257
 616 325 l 257
 625 291 l 257
 619 248 l 257
 586 208 l 257
 549 187 l 257
 500 174 l 257
 437 173 l 257
 373 188 l 257
 336 207 l 257
 292 227 l 257
 254 251 l 257
 221 276 l 257
 177 324 l 257
 165 351 l 257
 158 375 l 257
 41 477 l 257
 25 401 l 257
 19 336 l 257
 29 284 l 257
 59 224 l 257
 105 165 l 257
 183 96 l 257
 232 69 l 257
 273 51 l 257
 334 30 l 257
 385 18 l 257
 427 14 l 257
 464 18 l 257
 499 38 l 257
 538 69 l 257
 572 97 l 257
 607 133 l 257
 642 184 l 257
 665 230 l 257
 682 302 l 257
 677 360 l 257
 660 402 l 257
 630 445 l 257
 574 490 l 257
 505 519 l 257
 442 529 l 257
 380 530 l 257
 322 522 l 257
 302 488 l 257
 275 448 l 257
 238 430 l 257
 209 430 l 257
 184 438 l 257
 162 454 l 257
 140 493 l 257
 136 519 l 257
 138 542 l 257
 145 565 l 257
 158 583 l 257
 177 598 l 257
 199 607 l 257
 224 613 l 257
 247 615 l 257
 285 615 l 257
 314 611 l 257
 339 606 l 257
 360 601 l 257
 414 585 l 257
 471 566 l 257
 525 554 l 257
 580 562 l 257
 609 580 l 257
 648 609 l 257
 668 636 l 257
 691 669 l 257
 709 710 l 257
EndSplineSet
EndChar

StartChar: T
Encoding: 64 84 64
GlifName: T_
Width: 700
VWidth: 0
GlyphClass: 2
Flags: HW
LayerCount: 2
Fore
SplineSet
652 763 m 257
 638 761.666666667 617.666666667 759.833333333 591 757.5 c 0
 564.333333333 755.166666667 546.833333333 753.666666667 538.5 753 c 0
 530.166666667 752.333333333 516 751.333333333 496 750 c 0
 476 748.666666667 460.166666667 748.166666667 448.5 748.5 c 0
 436.833333333 748.833333333 420.5 749 399.5 749 c 0
 378.5 749 357 749.833333333 335 751.5 c 0
 313 753.166666667 287.166666667 754.833333333 257.5 756.5 c 0
 227.833333333 758.166666667 193 760.666666667 153 764 c 257
 153 763.333333333 148.833333333 756.833333333 140.5 744.5 c 0
 132.166666667 732.166666667 122.333333333 717.166666667 111 699.5 c 0
 99.6666666667 681.833333333 90 666 82 652 c 257
 37 585 l 257
 80 602 l 257
 114 616.666666667 141.833333333 626.166666667 163.5 630.5 c 0
 185.166666667 634.833333333 201.666666667 635.5 213 632.5 c 0
 224.333333333 629.5 236 623.333333333 248 614 c 257
 248 612.666666667 237.333333333 602.166666667 216 582.5 c 0
 194.666666667 562.833333333 170.166666667 539.333333333 142.5 512 c 0
 114.833333333 484.666666667 95.3333333333 462.666666667 84 446 c 257
 12 357 l 257
 35 291 l 257
 54 250 l 257
 74 215 l 257
 92 185 l 257
 122 143 151.833333333 109.5 181.5 84.5 c 0
 211.166666667 59.5 251 40 301 26 c 256
 309 24 320.5 23 335.5 23 c 0
 350.5 23 368.166666667 23.5 388.5 24.5 c 0
 408.833333333 25.5 423 26 431 26 c 257
 477.666666667 34 536 51.3333333333 606 78 c 257
 643 94 l 257
 644 131 l 257
 645 159 l 257
 641.666666667 159 627.333333333 154.166666667 602 144.5 c 0
 576.666666667 134.833333333 549.666666667 125.833333333 521 117.5 c 0
 492.333333333 109.166666667 457.666666667 107.666666667 417 113 c 0
 376.333333333 118.333333333 339 133.333333333 305 158 c 257
 270 193 l 257
 170.666666667 334.333333333 180 457.333333333 298 562 c 256
 314.934075879 576.881460621 319.91485605 508.472768587 312.942340511 356.773923897 c 0
 308 271 l 257
 270 193 l 257
 305 157 l 257
 309 159.666666667 315.833333333 164.166666667 325.5 170.5 c 0
 335.166666667 176.833333333 341.333333333 180.833333333 344 182.5 c 0
 346.666666667 184.166666667 351.833333333 187.166666667 359.5 191.5 c 0
 367.166666667 195.833333333 373.333333333 198.833333333 378 200.5 c 0
 382.666666667 202.166666667 389.333333333 204.5 398 207.5 c 0
 406.666666667 210.5 416 213 426 215 c 0
 441 218 441 218 461 222 c 257
 465 308 466.833333333 391.5 466.5 472.5 c 0
 466.166666667 553.5 466.333333333 603.666666667 467 623 c 257
 578 586 l 257
 580.666666667 598 590.333333333 621.166666667 607 655.5 c 0
 623.666666667 689.833333333 638.666666667 725.666666667 652 763 c 257
EndSplineSet
EndChar

StartChar: Thorn
Encoding: 65 222 65
GlifName: T_horn
Width: 630
VWidth: 0
GlyphClass: 2
Flags: HW
LayerCount: 2
Fore
SplineSet
106 752 m 257
 21 642 l 257
 124 593 l 257
 124.666666667 566.333333333 125.666666667 545 127 529 c 256
 131 477 131.666666667 387.333333333 129 260 c 257
 25 160 l 257
 125 124 l 257
 119 72 l 257
 118.333333333 48 116.333333333 24 113 0 c 0
 109.666666667 -24 106.5 -42.6666666667 103.5 -56 c 0
 100.5 -69.3333333333 95.5 -89 88.5 -115 c 0
 81.5 -141 77 -158.333333333 75 -167 c 257
 177 -105 l 257
 292 -33 l 257
 281 1 l 257
 281 3 279.833333333 7.83333333333 277.5 15.5 c 0
 275.166666667 23.1666666667 274.333333333 28.3333333333 275 31 c 257
 274 70 l 257
 300.666666667 62 327.166666667 53.5 353.5 44.5 c 0
 379.833333333 35.5 399.333333333 28.3333333333 412 23 c 0
 431 15 l 257
 481 73.6666666667 521.833333333 138.666666667 553.5 210 c 0
 585.166666667 281.333333333 601.333333333 339 602 383 c 256
 602.666666667 415 586.333333333 452.5 553 495.5 c 0
 519.666666667 538.5 480 576.666666667 434 610 c 256
 433.333333333 610.666666667 427.666666667 606.666666667 417 598 c 0
 406.333333333 589.333333333 388.333333333 574.833333333 363 554.5 c 0
 337.666666667 534.166666667 311.666666667 514.333333333 285 495 c 257
 284.333333333 501 285.666666667 523.666666667 289 563 c 0
 292.333333333 602.333333333 294 626.333333333 294 635 c 256
 294 637 294.333333333 645.833333333 295 661.5 c 0
 295.666666667 677.166666667 295.666666667 687.333333333 295 692 c 257
 106 752 l 257
304 409 m 257
 320 420.333333333 333.666666667 424 345 420 c 256
 387.666666667 407.333333333 425.333333333 383.666666667 458 349 c 256
 471.333333333 335 481.5 310.333333333 488.5 275 c 0
 495.5 239.666666667 497 217 493 207 c 256
 487.666666667 193 481.166666667 182.5 473.5 175.5 c 0
 465.833333333 168.5 459.5 164.5 454.5 163.5 c 0
 449.5 162.5 442.333333333 162.333333333 433 163 c 256
 406 175.5 l 0
 388 183.833333333 365.5 193.833333333 338.5 205.5 c 0
 311.5 217.166666667 289 226.666666667 271 234 c 257
 277 380 l 257
 284.333333333 392.666666667 293.333333333 402.333333333 304 409 c 257
EndSplineSet
EndChar

StartChar: U
Encoding: 66 85 66
GlifName: U_
Width: 680
VWidth: 0
GlyphClass: 2
Flags: HW
LayerCount: 2
Fore
SplineSet
507 757 m 257
 392 629 l 257
 393.333333333 628.333333333 398.833333333 624.666666667 408.5 618 c 0
 418.166666667 611.333333333 426.666666667 604.833333333 434 598.5 c 0
 441.333333333 592.166666667 447.333333333 585.666666667 452 579 c 256
 454 575.666666667 455.166666667 570.166666667 455.5 562.5 c 0
 455.833333333 554.833333333 456.166666667 536.666666667 456.5 508 c 0
 456.833333333 479.333333333 457.666666667 447.666666667 459 413 c 257
 459 407.666666667 459.333333333 398.333333333 460 385 c 0
 460.666666667 371.666666667 460.833333333 357.5 460.5 342.5 c 0
 460.166666667 327.5 459 308.666666667 457 286 c 257
 456.333333333 285.333333333 453.166666667 281.333333333 447.5 274 c 0
 441.833333333 266.666666667 437.5 261.166666667 434.5 257.5 c 0
 431.5 253.833333333 426.5 248.5 419.5 241.5 c 0
 412.5 234.5 404.333333333 227.166666667 395 219.5 c 0
 385.666666667 211.833333333 375 203.666666667 363 195 c 257
 333 185.666666667 288.666666667 201 230 241 c 257
 232.666666667 247 237.666666667 256.666666667 245 270 c 0
 252.333333333 283.333333333 257.833333333 293.833333333 261.5 301.5 c 0
 265.166666667 309.166666667 270.333333333 321.5 277 338.5 c 0
 283.666666667 355.5 290.666666667 374.666666667 298 396 c 257
 298.666666667 400.666666667 301 409.833333333 305 423.5 c 0
 309 437.166666667 312.666666667 454.666666667 316 476 c 0
 319.333333333 497.333333333 321 524 321 556 c 257
 317 558.666666667 310 561.333333333 300 564 c 0
 290 566.666666667 276 572.5 258 581.5 c 0
 240 590.5 218.666666667 604 194 622 c 257
 172.666666667 643.333333333 166.833333333 666.333333333 176.5 691 c 0
 186.166666667 715.666666667 209.333333333 740.333333333 246 765 c 257
 240 769 231.166666667 774 219.5 780 c 0
 207.833333333 786 200.333333333 790.333333333 197 793 c 257
 138.333333333 766.333333333 95 719.333333333 67 652 c 257
 63 637.333333333 62.1666666667 621.333333333 64.5 604 c 0
 66.8333333333 586.666666667 69.1666666667 572.666666667 71.5 562 c 0
 73.8333333333 551.333333333 78.6666666667 538.666666667 86 524 c 0
 93.3333333333 509.333333333 100 496.833333333 106 486.5 c 0
 112 476.166666667 119.666666667 463.166666667 129 447.5 c 0
 138.333333333 431.833333333 146 417.333333333 152 404 c 257
 159.333333333 391.333333333 163.5 368.5 164.5 335.5 c 0
 165.5 302.5 158.666666667 273.333333333 144 248 c 257
 137.333333333 231.333333333 126.333333333 214.666666667 111 198 c 0
 95.6666666667 181.333333333 72 160.666666667 40 136 c 257
 46.6666666667 132 65.6666666667 124.5 97 113.5 c 0
 128.333333333 102.5 161.333333333 88.5 196 71.5 c 0
 230.666666667 54.5 259 35.6666666667 281 15 c 257
 387 131 442 191.333333333 446 196 c 257
 444.666666667 172 438 140.666666667 426 102 c 257
 430 100 437.5 95.3333333333 448.5 88 c 0
 459.5 80.6666666667 475.166666667 70.5 495.5 57.5 c 0
 515.833333333 44.5 538 31 562 17 c 257
 566 22.3333333333 573.5 32.1666666667 584.5 46.5 c 0
 595.5 60.8333333333 607.333333333 76.8333333333 620 94.5 c 0
 632.666666667 112.166666667 647.666666667 134 665 160 c 257
 617.666666667 176 598.333333333 246.333333333 607 371 c 257
 608.333333333 377 608.833333333 389.666666667 608.5 409 c 0
 608.166666667 428.333333333 608.333333333 456 609 492 c 0
 609.666666667 528 611.333333333 565 614 603 c 257
 616.666666667 614.333333333 619.666666667 623.5 623 630.5 c 0
 626.333333333 637.5 630.666666667 644.833333333 636 652.5 c 0
 641.333333333 660.166666667 645.333333333 666.666666667 648 672 c 257
 610.666666667 695.333333333 563.666666667 723.666666667 507 757 c 257
EndSplineSet
EndChar

StartChar: V
Encoding: 71 86 71
GlifName: V_
Width: 600
VWidth: 0
GlyphClass: 2
Flags: HW
LayerCount: 2
Fore
SplineSet
404 758 m 257
 251 588 l 257
 262 531 l 257
 272 544.333333333 284 555.666666667 298 565 c 0
 312 574.333333333 323.333333333 578.666666667 332 578 c 257
 359.333333333 560 389.333333333 496.333333333 422 387 c 257
 422 385 424.166666667 377.833333333 428.5 365.5 c 0
 432.833333333 353.166666667 436.5 337.5 439.5 318.5 c 0
 442.5 299.5 442.666666667 279 440 257 c 257
 441.333333333 237.666666667 428 210.666666667 400 176 c 257
 339.333333333 195.333333333 290.666666667 211.333333333 254 224 c 257
 253.333333333 232.666666667 253.166666667 238.5 253.5 241.5 c 0
 253.833333333 244.5 255.166666667 262 257.5 294 c 0
 259.833333333 326 261.666666667 360 263 396 c 257
 262.333333333 403.333333333 262.333333333 417.833333333 263 439.5 c 0
 263.666666667 461.166666667 263.333333333 491.666666667 262 531 c 257
 251 588 l 257
 235 623 l 257
 229 636.333333333 215.833333333 653.333333333 195.5 674 c 0
 175.166666667 694.666666667 163.666666667 710 161 720 c 257
 159.666666667 739.333333333 164.333333333 757.333333333 175 774 c 257
 173.666666667 774.666666667 171.333333333 775.5 168 776.5 c 0
 164.666666667 777.5 162 778.166666667 160 778.5 c 0
 158 778.833333333 155 779.166666667 151 779.5 c 0
 147 779.833333333 142 779.666666667 136 779 c 0
 130 778.333333333 123 777 115 775 c 257
 113.666666667 773 109.666666667 768.666666667 103 762 c 0
 96.3333333333 755.333333333 91.3333333333 750.166666667 88 746.5 c 0
 84.6666666667 742.833333333 79.8333333333 736.666666667 73.5 728 c 0
 67.1666666667 719.333333333 61.5 710.833333333 56.5 702.5 c 0
 51.5 694.166666667 45.8333333333 683.166666667 39.5 669.5 c 0
 33.1666666667 655.833333333 27 641.333333333 21 626 c 257
 19.6666666667 602 41.6666666667 566.666666667 87 520 c 257
 90.3333333333 516.666666667 94.3333333333 511.166666667 99 503.5 c 0
 103.666666667 495.833333333 108.333333333 481.666666667 113 461 c 0
 117.666666667 440.333333333 118.666666667 417.333333333 116 392 c 257
 110 294 106.333333333 239.333333333 105 228 c 257
 101 208.666666667 95.1666666667 191 87.5 175 c 0
 79.8333333333 159 64.6666666667 136 42 106 c 257
 114.666666667 97.3333333333 167 89 199 81 c 0
 231 73 275.109660237 58.3023684429 331.328980711 36.9071053288 c 0
 341.776326904 32.9690351096 349.666666667 30 355 28 c 257
 507 235 l 257
 521.666666667 255.666666667 531.666666667 270.5 537 279.5 c 0
 542.333333333 288.5 549.5 306.333333333 558.5 333 c 0
 567.5 359.666666667 575 392.333333333 581 431 c 257
 577.666666667 440.333333333 574.166666667 456.666666667 570.5 480 c 0
 566.833333333 503.333333333 559.5 528.833333333 548.5 556.5 c 0
 537.5 584.166666667 519 617.333333333 493 656 c 257
 489.666666667 660 483.5 668.166666667 474.5 680.5 c 0
 465.5 692.833333333 456.166666667 704.333333333 446.5 715 c 0
 436.833333333 725.666666667 422.666666667 740 404 758 c 257
EndSplineSet
EndChar

StartChar: W
Encoding: 72 87 72
GlifName: W_
Width: 900
VWidth: 0
GlyphClass: 2
Flags: HW
LayerCount: 2
Fore
SplineSet
259 763 m 257
 184 784 l 257
 183.333333333 782 158 758.666666667 108 714 c 257
 107.333333333 711.333333333 88 692.666666667 50 658 c 257
 48 652.666666667 38.3333333333 635.666666667 21 607 c 257
 19.6666666667 603 39 551.666666667 79 453 c 257
 80.3333333333 449 88.1666666667 432.5 102.5 403.5 c 0
 116.833333333 374.5 128.166666667 347.333333333 136.5 322 c 0
 144.833333333 296.666666667 150 271.666666667 152 247 c 257
 153.333333333 245 150.166666667 236 142.5 220 c 0
 134.833333333 204 121 183 101 157 c 0
 81 131 58.3333333333 107.333333333 33 86 c 257
 32.3333333333 84 42.5 80.3333333333 63.5 75 c 0
 84.5 69.6666666667 119.166666667 61.1666666667 167.5 49.5 c 0
 215.833333333 37.8333333333 260.333333333 26.3333333333 301 15 c 257
 302.333333333 13.6666666667 305.666666667 16.6666666667 311 24 c 0
 316.333333333 31.3333333333 325.333333333 43.3333333333 338 60 c 0
 350.666666667 76.6666666667 363.666666667 92 377 106 c 257
 377.666666667 105.333333333 386.166666667 102 402.5 96 c 0
 418.833333333 90 445.5 79.6666666667 482.5 65 c 0
 519.5 50.3333333333 558 33.6666666667 598 15 c 257
 608.666666667 32.3333333333 633 63.3333333333 671 108 c 0
 709 152.666666667 747.666666667 201 787 253 c 257
 800.333333333 265.666666667 818 307.666666667 840 379 c 257
 841.333333333 383 841 392.5 839 407.5 c 0
 837 422.5 831.5 446.166666667 822.5 478.5 c 0
 813.5 510.833333333 802 547.666666667 788 589 c 257
 786.666666667 590.333333333 782.833333333 597.5 776.5 610.5 c 0
 770.166666667 623.5 759.833333333 644.166666667 745.5 672.5 c 0
 731.166666667 700.833333333 715 730.333333333 697 761 c 257
 694.333333333 759.666666667 686.833333333 752.666666667 674.5 740 c 0
 662.166666667 727.333333333 642.666666667 709.666666667 616 687 c 0
 589.333333333 664.333333333 559.666666667 642.666666667 527 622 c 257
 528.333333333 612.666666667 534 588 544 548 c 257
 549.333333333 552 556.666666667 557.166666667 566 563.5 c 0
 575.333333333 569.833333333 584.333333333 576.333333333 593 583 c 257
 622.333333333 533.666666667 648.666666667 479 672 419 c 257
 672.666666667 417.666666667 674 414 676 408 c 0
 678 402 680 395.833333333 682 389.5 c 0
 684 383.166666667 686.166666667 375.333333333 688.5 366 c 0
 690.833333333 356.666666667 692.833333333 346 694.5 334 c 0
 696.166666667 322 697.333333333 309.666666667 698 297 c 257
 699.333333333 293 699.166666667 284 697.5 270 c 0
 695.833333333 256 690 237.666666667 680 215 c 0
 670 192.333333333 656 173 638 157 c 257
 598 173 563 187.666666667 533 201 c 257
 532.333333333 203 536 318.666666667 544 548 c 257
 542.666666667 556 537 580.666666667 527 622 c 257
 525.666666667 622 513.666666667 633.666666667 491 657 c 0
 457 692 457 692 423 727 c 0
 389 762 l 256
 385 754 357.666666667 721 307 663 c 256
 253.666666667 609.666666667 223.666666667 580.666666667 217 576 c 256
 217 573 217 573 217 571.5 c 0
 217 570.5 218.333333333 567.333333333 221 562 c 0
 225 554 225 554 228 548 c 0
 230 544 233.333333333 538 238 530 c 0
 242.666666667 522 246.666666667 514.666666667 250 508 c 257
 327 604 l 257
 328.333333333 602 338.5 590.666666667 357.5 570 c 0
 376.5 549.333333333 387.666666667 535 391 527 c 256
 395 521 396.166666667 467.833333333 394.5 367.5 c 0
 392.833333333 267.166666667 389 208.666666667 383 192 c 256
 383 191.333333333 380.666666667 188.166666667 376 182.5 c 0
 371.333333333 176.833333333 364.333333333 171.166666667 355 165.5 c 0
 345.666666667 159.833333333 336.666666667 157 328 157 c 256
 310.666666667 157.666666667 291.333333333 160.833333333 270 166.5 c 0
 248.666666667 172.166666667 231.833333333 177.833333333 219.5 183.5 c 0
 201 192 l 257
 219.666666667 209.333333333 241.5 240.833333333 266.5 286.5 c 0
 291.5 332.166666667 303.333333333 359.333333333 302 368 c 256
 297.333333333 409.333333333 280 456 250 508 c 257
 247.5 515.5 l 0
 245.833333333 520.5 243.666666667 526.333333333 241 533 c 0
 238.333333333 539.666666667 235.5 546.333333333 232.5 553 c 0
 229.5 559.666666667 226.5 565.333333333 223.5 570 c 0
 220.5 574.666666667 218 576.666666667 216 576 c 256
 211.333333333 574.666666667 206.333333333 585.166666667 201 607.5 c 0
 195.666666667 629.833333333 193.333333333 643.666666667 194 649 c 256
 196.666666667 681.666666667 218.333333333 719.666666667 259 763 c 257
EndSplineSet
EndChar

StartChar: X
Encoding: 76 88 76
GlifName: X_
Width: 700
VWidth: 0
GlyphClass: 2
Flags: HW
LayerCount: 2
Fore
SplineSet
221 777 m 257
 191 762 l 257
 132.333333333 722.666666667 82.6666666667 679.333333333 42 632 c 257
 56.6666666667 632.666666667 70 632 82 630 c 0
 94 628 103.5 625.333333333 110.5 622 c 0
 117.5 618.666666667 124.333333333 613.833333333 131 607.5 c 0
 137.666666667 601.166666667 142.333333333 596.166666667 145 592.5 c 0
 147.666666667 588.833333333 150.833333333 583.5 154.5 576.5 c 0
 158.166666667 569.5 160.333333333 565.666666667 161 565 c 257
 172.333333333 551 187.333333333 529.5 206 500.5 c 0
 224.666666667 471.5 234.333333333 454.333333333 235 449 c 256
 235.666666667 444.333333333 224.833333333 422.833333333 202.5 384.5 c 0
 180.166666667 346.166666667 156.666666667 307 132 267 c 0
 107.333333333 227 94 205 92 201 c 256
 61.3333333333 135 37 69.3333333333 19 4 c 257
 82 32 l 257
 95.3333333333 39.3333333333 112.833333333 46.8333333333 134.5 54.5 c 0
 156.166666667 62.1666666667 174.5 68 189.5 72 c 0
 212 78 l 257
 210 88 209 97.6666666667 209 107 c 256
 208.333333333 112.333333333 207.666666667 118.166666667 207 124.5 c 0
 206.333333333 130.833333333 205.833333333 134.666666667 205.5 136 c 0
 205.166666667 137.333333333 204.833333333 139.666666667 204.5 143 c 0
 204.166666667 146.333333333 204 148.333333333 204 149 c 0
 204 150 204 150 204 155.5 c 0
 204 159.166666667 204.166666667 162.5 204.5 165.5 c 0
 204.833333333 168.5 205 173.666666667 205 181 c 0
 205 192 205 192 205 205 c 256
 205 259 226.666666667 324.333333333 270 401 c 257
 380 180 l 257
 382 178 384.833333333 172.833333333 388.5 164.5 c 0
 392.166666667 156.166666667 397.333333333 145 404 131 c 0
 410.666666667 117 417.666666667 104 425 92 c 256
 425.666666667 90 428 85.5 432 78.5 c 0
 436 71.5 440.166666667 63.8333333333 444.5 55.5 c 0
 448.833333333 47.1666666667 453.166666667 39 457.5 31 c 0
 461.833333333 23 465.5 16.3333333333 468.5 11 c 0
 473 3 l 256
 491.666666667 20.3333333333 511.333333333 38 532 56 c 0
 552.666666667 74 569.666666667 88.6666666667 583 100 c 0
 596.333333333 111.333333333 604.333333333 118.333333333 607 121 c 256
 617 130.333333333 625.833333333 138.833333333 633.5 146.5 c 0
 641.166666667 154.166666667 646.666666667 159.833333333 650 163.5 c 0
 653.333333333 167.166666667 654.666666667 169 654 169 c 256
 613.333333333 181.666666667 585.333333333 197.333333333 570 216 c 256
 546 244.666666667 475.666666667 350 359 532 c 257
 365 542 380 561.166666667 404 589.5 c 0
 428 617.833333333 441.666666667 631.333333333 445 630 c 256
 460.333333333 624 473.5 618.333333333 484.5 613 c 0
 495.5 607.666666667 506.666666667 600.833333333 518 592.5 c 0
 529.333333333 584.166666667 536.666666667 578.833333333 540 576.5 c 0
 543.333333333 574.166666667 552.333333333 566.666666667 567 554 c 256
 591 592.5 l 0
 607 618.166666667 622.833333333 643.833333333 638.5 669.5 c 0
 662 708 l 257
 491 778 l 256
 457 736 l 258
 422 691 l 256
 420.666666667 689.666666667 406.5 672.166666667 379.5 638.5 c 0
 352.5 604.833333333 337 585.333333333 333 580 c 256
 331 582.5 l 0
 329.666666667 584.166666667 328 586.666666667 326 590 c 0
 324 593.333333333 321.666666667 597.166666667 319 601.5 c 0
 316.333333333 605.833333333 313.666666667 610.5 311 615.5 c 0
 308.333333333 620.5 305.5 625.666666667 302.5 631 c 0
 298 639 298 639 293.5 647 c 0
 290.5 652.333333333 287.833333333 657.333333333 285.5 662 c 0
 283.166666667 666.666666667 281 670.666666667 279 674 c 0
 277 677.333333333 275.333333333 680 274 682 c 256
 272.666666667 684.666666667 268.166666667 693 260.5 707 c 0
 252.833333333 721 248.666666667 728.333333333 248 729 c 257
 221 777 l 257
EndSplineSet
EndChar

StartChar: Y
Encoding: 77 89 77
GlifName: Y_
Width: 700
VWidth: 0
GlyphClass: 2
Flags: HW
LayerCount: 2
Fore
SplineSet
219 765 m 257
 168 794 l 257
 132.666666667 778 101.333333333 753.166666667 74 719.5 c 0
 46.6666666667 685.833333333 34 654 36 624 c 256
 38 591.333333333 45.5 559.166666667 58.5 527.5 c 0
 71.5 495.833333333 84.5 469.833333333 97.5 449.5 c 0
 110.5 429.166666667 121 404.666666667 129 376 c 0
 137 347.333333333 138.666666667 318 134 288 c 256
 132.666666667 277.333333333 129.166666667 266.5 123.5 255.5 c 0
 117.833333333 244.5 111.333333333 234.166666667 104 224.5 c 0
 96.6666666667 214.833333333 88.6666666667 205.333333333 80 196 c 0
 71.3333333333 186.666666667 63 178.333333333 55 171 c 0
 47 163.666666667 39.6666666667 157.166666667 33 151.5 c 0
 26.3333333333 145.833333333 21 141.5 17 138.5 c 0
 11 134 l 256
 39.6666666667 127.333333333 73.6666666667 114.833333333 113 96.5 c 0
 152.333333333 78.1666666667 184.833333333 61 210.5 45 c 0
 236.166666667 29 250.333333333 19 253 15 c 256
 253.666666667 13.6666666667 267.833333333 28.3333333333 295.5 59 c 0
 323.166666667 89.6666666667 350.833333333 120.5 378.5 151.5 c 0
 420 198 l 256
 420.666666667 180 426.5 155 437.5 123 c 0
 448.5 91 459.333333333 61.8333333333 470 35.5 c 0
 480.666666667 9.16666666667 486 -5 486 -7 c 256
 488 -27.6666666667 487 -45.6666666667 483 -61 c 0
 479 -76.3333333333 474 -87.6666666667 468 -95 c 0
 462 -102.333333333 455.166666667 -108.166666667 447.5 -112.5 c 0
 439.833333333 -116.833333333 434.166666667 -119.333333333 430.5 -120 c 0
 426.833333333 -120.666666667 424 -121 422 -121 c 256
 404 -128.333333333 381 -130 353 -126 c 0
 325 -122 300.666666667 -116.333333333 280 -109 c 0
 259.333333333 -101.666666667 234.333333333 -93.5 205 -84.5 c 0
 175.666666667 -75.5 150.333333333 -70 129 -68 c 256
 111.666666667 -66 96 -67.5 82 -72.5 c 0
 68 -77.5 55.5 -86.5 44.5 -99.5 c 0
 33.5 -112.5 24.6666666667 -124.166666667 18 -134.5 c 0
 11.3333333333 -144.833333333 2.83333333333 -160 -7.5 -180 c 0
 -17.8333333333 -200 -25.3333333333 -214.333333333 -30 -223 c 257
 -11 -245 l 257
 -10.3333333333 -245.666666667 -4.83333333333 -242 5.5 -234 c 0
 15.8333333333 -226 29.8333333333 -218.833333333 47.5 -212.5 c 0
 65.1666666667 -206.166666667 83 -205.333333333 101 -210 c 256
 117 -214.666666667 142.166666667 -223.166666667 176.5 -235.5 c 0
 210.833333333 -247.833333333 241.666666667 -257.666666667 269 -265 c 0
 296.333333333 -272.333333333 321.666666667 -276 345 -276 c 256
 362.333333333 -276 379 -272.833333333 395 -266.5 c 0
 411 -260.166666667 425.333333333 -251.333333333 438 -240 c 0
 450.666666667 -228.666666667 461.833333333 -217.166666667 471.5 -205.5 c 0
 481.166666667 -193.833333333 490.333333333 -180 499 -164 c 0
 507.666666667 -148 514.333333333 -135 519 -125 c 0
 523.666666667 -115 528.833333333 -103.166666667 534.5 -89.5 c 0
 540.166666667 -75.8333333333 543.333333333 -68 544 -66 c 256
 544.666666667 -64.6666666667 550.5 -49.6666666667 561.5 -21 c 0
 572.5 7.66666666667 584.833333333 38.8333333333 598.5 72.5 c 0
 612.166666667 106.166666667 625 135 637 159 c 256
 637.666666667 159.666666667 635.833333333 161.333333333 631.5 164 c 0
 627.166666667 166.666666667 621.666666667 171.333333333 615 178 c 0
 608.333333333 184.666666667 601.833333333 193.333333333 595.5 204 c 0
 589.166666667 214.666666667 584 230.666666667 580 252 c 0
 576 273.333333333 574.666666667 297.666666667 576 325 c 256
 581.333333333 437 584 514.333333333 584 557 c 256
 583.333333333 587 587.666666667 613.333333333 597 636 c 0
 606.333333333 658.666666667 615.333333333 670.333333333 624 671 c 256
 632.149424348 671.543294957 590.167901689 697.463095377 498.055432025 748.75940126 c 0
 484.793430106 756.144847655 478.108286098 759.891713902 478 760 c 256
 476.666666667 760.666666667 466 750.333333333 446 729 c 0
 426 707.666666667 406.833333333 685.833333333 388.5 663.5 c 0
 370.166666667 641.166666667 362.333333333 629.333333333 365 628 c 256
 400.333333333 606.666666667 420 588 424 572 c 256
 428.666666667 554.666666667 431.333333333 504.833333333 432 422.5 c 0
 432.666666667 340.166666667 431.666666667 297 429 293 c 256
 417 256.333333333 381 223 321 193 c 256
 302.333333333 183 262.666666667 198.333333333 202 239 c 256
 200.666666667 239.666666667 203.666666667 247.333333333 211 262 c 0
 218.333333333 276.666666667 227.166666667 295.666666667 237.5 319 c 0
 247.833333333 342.333333333 258 367.333333333 268 394 c 0
 278 420.666666667 285.5 449 290.5 479 c 0
 295.5 509 295.666666667 535.333333333 291 558 c 256
 260.5 568.5 l 0
 240.166666667 575.5 218.166666667 586.333333333 194.5 601 c 0
 170.833333333 615.666666667 155.333333333 633 148 653 c 256
 146.666666667 656.333333333 145.833333333 659.666666667 145.5 663 c 0
 145.166666667 666.333333333 145.666666667 672 147 680 c 0
 148.333333333 688 151.166666667 696 155.5 704 c 0
 159.833333333 712 167.333333333 721.5 178 732.5 c 0
 188.666666667 743.5 202.333333333 754.333333333 219 765 c 257
EndSplineSet
EndChar

StartChar: Z
Encoding: 81 90 81
GlifName: Z_
Width: 600
VWidth: 0
GlyphClass: 2
Flags: HW
LayerCount: 2
Fore
SplineSet
102 763 m 257
 94.6666666667 753 69.6666666667 681.666666667 27 549 c 257
 49 559.666666667 67.5 567.666666667 82.5 573 c 0
 97.5 578.333333333 108 581.666666667 114 583 c 0
 120 584.333333333 129.5 585.666666667 142.5 587 c 0
 155.5 588.333333333 165.666666667 589.666666667 173 591 c 257
 220.211189492 596.554257587 269.82060566 594.148822773 321.828248505 583.783695556 c 0
 340.451958496 579.370508596 348.842542328 575.442610077 347 572 c 256
 343 568.666666667 332.5 558.5 315.5 541.5 c 0
 298.5 524.5 275.666666667 502.166666667 247 474.5 c 0
 218.333333333 446.833333333 190.333333333 420.333333333 163 395 c 257
 301 323 l 257
 297.666666667 319.666666667 301.333333333 311.666666667 312 299 c 0
 322.666666667 286.333333333 336.833333333 271.5 354.5 254.5 c 0
 372.166666667 237.5 383.666666667 225.333333333 389 218 c 256
 399.666666667 204.666666667 408.5 190.666666667 415.5 176 c 0
 422.5 161.333333333 427.5 148.333333333 430.5 137 c 0
 433.5 125.666666667 435.666666667 114.333333333 437 103 c 0
 438.333333333 91.6666666667 438.833333333 82.5 438.5 75.5 c 0
 438.166666667 68.5 437.666666667 61.6666666667 437 55 c 0
 436 45 l 256
 432.666666667 -37.6666666667 375 -91 263 -115 c 256
 244.333333333 -119 221 -113.666666667 193 -99 c 0
 165 -84.3333333333 141 -62 121 -32 c 256
 115 -26.6666666667 114.333333333 -7 119 27 c 0
 123.666666667 61 132 88.6666666667 144 110 c 256
 167.333333333 152.666666667 197.666666667 183.333333333 235 202 c 0
 272.333333333 220.666666667 323 225.666666667 387 217 c 256
 395.89369971 215.595731625 373.764275874 243.3460911 320.611728491 300.251078426 c 0
 319.658476645 301.27150075 l 0
 318.713290224 302.28309137 l 0
 317.585793407 303.489661017 l 0
 303 320 l 256
 303.667225472 319.428092453 303.234822337 319.125399155 301.702790594 319.091920107 c 0
 269.310820083 318.384067719 211.815887055 275.713102245 129.217991511 191.079023685 c 0
 122.601641197 184.29956873 115.862310693 177.273227501 109 170 c 256
 87 146 66.1666666667 102 46.5 38 c 0
 26.8333333333 -26 23.6666666667 -94.3333333333 37 -167 c 256
 37.6666666667 -170.333333333 39.3333333333 -174 42 -178 c 0
 44.6666666667 -182 49.6666666667 -187.5 57 -194.5 c 0
 64.3333333333 -201.5 74.3333333333 -207.166666667 87 -211.5 c 0
 99.6666666667 -215.833333333 116.166666667 -219.5 136.5 -222.5 c 0
 156.833333333 -225.5 181.333333333 -225.333333333 210 -222 c 256
 238 -219.333333333 267 -210.333333333 297 -195 c 0
 327 -179.666666667 351.5 -164.166666667 370.5 -148.5 c 0
 389.5 -132.833333333 408.333333333 -116.5 427 -99.5 c 0
 445.666666667 -82.5 456.333333333 -73 459 -71 c 256
 483 -54.3333333333 505.5 -22.5 526.5 24.5 c 0
 547.5 71.5 563.666666667 117 575 161 c 256
 591 220.333333333 574.333333333 293.666666667 525 381 c 256
 515 397.666666667 465 449 375 535 c 257
 565 738 l 257
 519.666666667 742.666666667 475.666666667 743.666666667 433 741 c 0
 390.333333333 738.333333333 336.833333333 738.333333333 272.5 741 c 0
 208.166666667 743.666666667 151.333333333 751 102 763 c 257
EndSplineSet
EndChar

StartChar: a
Encoding: 83 97 83
GlifName: a
Width: 450
VWidth: 0
GlyphClass: 2
Flags: HW
LayerCount: 2
Fore
SplineSet
136 466 m 257
 112 446 l 257
 87 427 l 257
 70 412 l 257
 51 399 l 257
 18 370 l 257
 36 341 l 257
 38 290 l 257
 38 274 l 257
 38 245 l 257
 39 211 l 257
 39 184 l 257
 37 148 l 257
 30 118 l 257
 19 98 l 257
 61 61 l 257
 154 13 l 257
 207 53 l 257
 261 91 l 257
 335 17 l 257
 358 38 l 257
 380 61 l 257
 400 82 l 257
 413 95 l 257
 433 116 l 257
 417 133 l 257
 399 151 l 257
 385 182 l 257
 384 212 l 257
 385 300 l 257
 384 342 l 257
 392 372 l 257
 404 404 l 257
 425 424 l 257
 376 446 l 257
 321 473 l 257
 208 525 l 257
 199 517 l 257
 187 508 l 257
 172 496 l 257
 158 486 l 257
 151 478 l 257
 136 466 l 257
262 365 m 257
 261 297 l 257
 261 239 l 257
 261 194 l 257
 266 152 l 257
 249 130 l 257
 219 115 l 257
 197 126 l 257
 177 149 l 257
 166 163 l 257
 158 198 l 257
 157 238 l 257
 155 290 l 257
 160 361 l 257
 186 409 l 257
 262 365 l 257
EndSplineSet
Substitution2: "SingleSubstitutionlookup6 subtable" ordfeminine
EndChar

StartChar: acutecomb
Encoding: 88 769 88
GlifName: acutecomb
Width: 0
VWidth: 0
GlyphClass: 4
Flags: H
AnchorPoint: "top" -109 623 mark 0
LayerCount: 2
Fore
SplineSet
-132 661 m 257
 -118 681 l 257
 -68.6666666667 741.666666667 -42.3333333333 774 -39 778 c 256
 -35.6666666667 782.666666667 -21.3333333333 800.333333333 4 831 c 256
 4.66666666667 831.666666667 -10.1666666667 834.666666667 -40.5 840 c 0
 -70.8333333333 845.333333333 -93.3333333333 848.666666667 -108 850 c 256
 -108.666666667 850 -111 843.333333333 -115 830 c 0
 -119 816.666666667 -123 794.333333333 -127 763 c 0
 -131 731.666666667 -132.666666667 698 -132 662 c 257
 -132 661 l 257
EndSplineSet
EndChar

StartChar: ae
Encoding: 90 230 90
GlifName: ae
Width: 650
VWidth: 0
GlyphClass: 2
Flags: HW
LayerCount: 2
Fore
SplineSet
245 493 m 257
 235 497 222.166666667 502.166666667 206.5 508.5 c 0
 190.833333333 514.833333333 179 519.5 171 522.5 c 0
 163 525.5 158.666666667 526.666666667 158 526 c 256
 124 470.666666667 90.6666666667 423.333333333 58 384 c 256
 76 385 l 0
 88 385.666666667 100.666666667 386.333333333 114 387 c 0
 127.333333333 387.666666667 134.666666667 388 136 388 c 256
 142 388 l 0
 146 388 151.166666667 387.833333333 157.5 387.5 c 0
 163.833333333 387.166666667 170.333333333 387 177 387 c 256
 185 387 197 384 213 378 c 256
 223.666666667 374.666666667 230.666666667 368 234 358 c 257
 193.333333333 317.333333333 168 291 158 279 c 256
 148.666666667 268.333333333 132.333333333 250.666666667 109 226 c 0
 85.6666666667 201.333333333 62 176 38 150 c 256
 37.3333333333 149.333333333 49 140.333333333 73 123 c 0
 97 105.666666667 125 86 157 64 c 0
 189 42 213.333333333 26.3333333333 230 17 c 256
 232 15.6666666667 239.166666667 18.8333333333 251.5 26.5 c 0
 263.833333333 34.1666666667 279.333333333 44 298 56 c 0
 316.666666667 68 330.333333333 76.3333333333 339 81 c 257
 355 72.3333333333 371.333333333 64.5 388 57.5 c 0
 404.666666667 50.5 415.666666667 45.6666666667 421 43 c 256
 431 37.6666666667 446 31 466 23 c 0
 486 15 495.666666667 12 495 14 c 257
 593 159 l 257
 580.333333333 157.666666667 553.666666667 156 513 154 c 256
 481 152 457.666666667 154.666666667 443 162 c 256
 431.666666667 167.333333333 423.666666667 174.666666667 419 184 c 257
 435 200.666666667 465.5 232.666666667 510.5 280 c 0
 555.5 327.333333333 580.666666667 353.666666667 586 359 c 256
 604.666666667 379 613.666666667 389.333333333 613 390 c 256
 487.666666667 480.666666667 424.666666667 525.666666667 424 525 c 256
 419.333333333 522.333333333 406.166666667 514.5 384.5 501.5 c 0
 362.833333333 488.5 340.666666667 475.666666667 318 463 c 257
 312 466.333333333 300.666666667 471.166666667 284 477.5 c 0
 267.333333333 483.833333333 254.333333333 489 245 493 c 257
253 319 m 257
 254.333333333 317 255 314.333333333 255 311 c 256
 261.666666667 297.666666667 266.166666667 275.5 268.5 244.5 c 0
 270.833333333 213.5 268 185.333333333 260 160 c 256
 252.666666667 142.666666667 234.333333333 143.666666667 205 163 c 256
 201 165.666666667 197.5 168.5 194.5 171.5 c 0
 191.5 174.5 189.166666667 177 187.5 179 c 0
 185.833333333 181 183.333333333 184.5 180 189.5 c 0
 176.666666667 194.5 173.666666667 198.666666667 171 202 c 256
 165 207.333333333 163.833333333 214.166666667 167.5 222.5 c 0
 171.166666667 230.833333333 175.666666667 237.833333333 181 243.5 c 0
 186.333333333 249.166666667 192.833333333 255.666666667 200.5 263 c 0
 208.166666667 270.333333333 213.333333333 276 216 280 c 256
 218 284 223.666666667 290.333333333 233 299 c 0
 242.333333333 307.666666667 249 314.333333333 253 319 c 257
397 224 m 257
 382.333333333 307.333333333 380 359 390 379 c 256
 403.333333333 404.333333333 424.333333333 402.666666667 453 374 c 256
 457 370 462.166666667 365.166666667 468.5 359.5 c 0
 474.833333333 353.833333333 478.833333333 350 480.5 348 c 0
 482.166666667 346 484.333333333 343.166666667 487 339.5 c 0
 489.666666667 335.833333333 490.5 332.666666667 489.5 330 c 0
 488.5 327.333333333 486.833333333 324 484.5 320 c 0
 482.166666667 316 478.666666667 311.333333333 474 306 c 256
 446.666666667 269.333333333 421 242 397 224 c 257
EndSplineSet
EndChar

StartChar: ampersand
Encoding: 93 38 93
GlifName: ampersand
Width: 542
VWidth: 0
GlyphClass: 2
Flags: HW
LayerCount: 2
Fore
SplineSet
482 295 m 257
 393 317 l 257
 385 294 l 257
 379.666666667 275.333333333 375.666666667 263 373 257 c 256
 368 245.5 l 0
 364.666666667 237.833333333 361.5 230.333333333 358.5 223 c 0
 354 212 l 256
 342.666666667 223.333333333 329.833333333 237.833333333 315.5 255.5 c 0
 301.166666667 273.166666667 289.333333333 288.5 280 301.5 c 0
 270.666666667 314.5 266.333333333 321.333333333 267 322 c 256
 289 339.333333333 311.5 365.666666667 334.5 401 c 0
 357.5 436.333333333 368.666666667 472.666666667 368 510 c 256
 367.333333333 535.333333333 363.333333333 557.833333333 356 577.5 c 0
 348.666666667 597.166666667 340.5 612.166666667 331.5 622.5 c 0
 322.5 632.833333333 311.5 641.5 298.5 648.5 c 0
 285.5 655.5 275.5 660 268.5 662 c 0
 261.5 664 254 665.666666667 246 667 c 256
 240.666666667 666.333333333 233.666666667 666.833333333 225 668.5 c 0
 216.333333333 670.166666667 205.833333333 668.666666667 193.5 664 c 0
 181.166666667 659.333333333 169.333333333 653.166666667 158 645.5 c 0
 146.666666667 637.833333333 135.166666667 624.833333333 123.5 606.5 c 0
 111.833333333 588.166666667 102.333333333 566.333333333 95 541 c 256
 81 494.333333333 92.3333333333 433 129 357 c 257
 119 348.5 l 0
 112.333333333 342.833333333 107.333333333 338.333333333 104 335 c 0
 100.666666667 331.666666667 95.5 326.333333333 88.5 319 c 0
 81.5 311.666666667 75.5 304.333333333 70.5 297 c 0
 65.5 289.666666667 60.1666666667 281.166666667 54.5 271.5 c 0
 48.8333333333 261.833333333 43.8333333333 251 39.5 239 c 0
 35.1666666667 227 31.3333333333 214.333333333 28 201 c 256
 16.6666666667 153 27.1666666667 109 59.5 69 c 0
 91.8333333333 29 128.333333333 5.33333333333 169 -2 c 256
 194.333333333 -6 217 -7.16666666667 237 -5.5 c 0
 257 -3.83333333333 274.833333333 0 290.5 6 c 0
 306.166666667 12 318.833333333 18.1666666667 328.5 24.5 c 0
 338.166666667 30.8333333333 346 36.3333333333 352 41 c 0
 361 48 l 256
 363 47.3333333333 370.833333333 42.8333333333 384.5 34.5 c 0
 398.166666667 26.1666666667 410.833333333 19.6666666667 422.5 15 c 0
 434.166666667 10.3333333333 448 6.33333333333 464 3 c 256
 478 -0.333333333333 492.666666667 -2.33333333333 508 -3 c 257
 514 115 l 257
 497.333333333 117 486.333333333 119 481 121 c 256
 470.333333333 124.333333333 461 128 453 132 c 0
 445 136 439.333333333 139 436 141 c 0
 432.666666667 143 431 144.333333333 431 145 c 256
 441.666666667 169 450.333333333 189.666666667 457 207 c 256
 459 212.333333333 461 217.833333333 463 223.5 c 0
 465 229.166666667 467 235.666666667 469 243 c 0
 471 250.333333333 472.666666667 256.333333333 474 261 c 257
 482 295 l 257
232 577 m 257
 248 577.666666667 260.5 570.833333333 269.5 556.5 c 0
 278.5 542.166666667 282 525.666666667 280 507 c 256
 278 489.666666667 272.166666667 473.166666667 262.5 457.5 c 0
 252.833333333 441.833333333 243.166666667 430.666666667 233.5 424 c 0
 223.833333333 417.333333333 218 415.666666667 216 419 c 256
 201.333333333 444.333333333 192 469.333333333 188 494 c 256
 184 517.333333333 186 537.666666667 194 555 c 0
 202 572.333333333 214.666666667 579.666666667 232 577 c 257
173 260 m 257
 284 119 l 257
 274 106.333333333 260 98.6666666667 242 96 c 256
 224 93.3333333333 206.666666667 96.3333333333 190 105 c 0
 173.333333333 113.666666667 161 126 153 142 c 256
 137 172.666666667 133 197.333333333 141 216 c 256
 144.333333333 223.333333333 147.333333333 229.333333333 150 234 c 0
 152.666666667 238.666666667 154.666666667 241.833333333 156 243.5 c 0
 157.333333333 245.166666667 160 247.833333333 164 251.5 c 0
 168 255.166666667 171 258 173 260 c 257
EndSplineSet
EndChar

StartChar: aring
Encoding: 95 229 95
GlifName: aring
Width: 450
VWidth: 0
GlyphClass: 2
Flags: HW
LayerCount: 2
Fore
SplineSet
136 466 m 257
 112 446 l 257
 87 427 l 257
 70 412 l 257
 51 399 l 257
 18 370 l 257
 36 341 l 257
 38 290 l 257
 38 274 l 257
 38 245 l 257
 39 211 l 257
 39 184 l 257
 37 148 l 257
 30 118 l 257
 19 98 l 257
 61 61 l 257
 154 13 l 257
 207 53 l 257
 261 91 l 257
 335 17 l 257
 358 38 l 257
 380 61 l 257
 400 82 l 257
 413 95 l 257
 433 116 l 257
 417 133 l 257
 399 151 l 257
 385 182 l 257
 384 212 l 257
 385 300 l 257
 384 342 l 257
 392 372 l 257
 404 404 l 257
 425 424 l 257
 376 446 l 257
 321 473 l 257
 208 525 l 257
 199 517 l 257
 187 508 l 257
 172 496 l 257
 158 486 l 257
 151 478 l 257
 136 466 l 257
262 365 m 257
 261 297 l 257
 261 239 l 257
 261 194 l 257
 266 152 l 257
 249 130 l 257
 219 115 l 257
 197 126 l 257
 177 149 l 257
 166 163 l 257
 158 198 l 257
 157 238 l 257
 155 290 l 257
 160 361 l 257
 186 409 l 257
 262 365 l 257
206 715 m 257
 216.666666667 713 227.333333333 708 238 700 c 257
 254 687 l 257
 273.333333333 663.666666667 283 640.666666667 283 618 c 257
 282.333333333 612 278.666666667 606 272 600 c 257
 258.666666667 595.333333333 248.666666667 594 242 596 c 257
 240 596.666666667 237.166666667 597.5 233.5 598.5 c 0
 229.833333333 599.5 227 600.333333333 225 601 c 0
 223 601.666666667 220.666666667 602.666666667 218 604 c 0
 215.333333333 605.333333333 213 607.166666667 211 609.5 c 0
 209 611.833333333 207 614.666666667 205 618 c 257
 205 620 205 620 205 625.5 c 0
 205 629.166666667 205.166666667 634.833333333 205.5 642.5 c 0
 205.833333333 650.166666667 206 658.666666667 206 668 c 257
 206 715 l 257
242 771 m 257
 234 767 221.333333333 760 204 750 c 257
 202.666666667 749.333333333 200.5 748.166666667 197.5 746.5 c 0
 194.5 744.833333333 189.833333333 742.333333333 183.5 739 c 0
 177.166666667 735.666666667 170.666666667 732 164 728 c 257
 160.666666667 725.333333333 155.166666667 722.166666667 147.5 718.5 c 0
 139.833333333 714.833333333 133.333333333 711 128 707 c 257
 129 697 l 0
 129.666666667 690.333333333 130.333333333 682 131 672 c 0
 131.666666667 662 132 653 132 645 c 257
 133.333333333 622.333333333 126.666666667 599 112 575 c 257
 112.666666667 574.333333333 116.333333333 572.833333333 123 570.5 c 0
 129.666666667 568.166666667 138.166666667 565.166666667 148.5 561.5 c 0
 158.833333333 557.833333333 167.666666667 554 175 550 c 257
 185 546.666666667 197 542.166666667 211 536.5 c 0
 225 530.833333333 234.666666667 527.333333333 240 526 c 257
 246 534.666666667 260 549.333333333 282 570 c 257
 286 574.666666667 298.666666667 587 320 607 c 257
 321.333333333 609 325.333333333 613 332 619 c 0
 338.666666667 625 343.333333333 632.666666667 346 642 c 257
 347.333333333 668 337 693 315 717 c 257
 286 746 l 257
 274.666666667 755.333333333 260 763.666666667 242 771 c 257
EndSplineSet
EndChar

StartChar: asciicircum
Encoding: 96 94 96
GlifName: asciicircum
Width: 500
VWidth: 0
GlyphClass: 2
Flags: HW
LayerCount: 2
Fore
SplineSet
156 746 m 257
 168 747.333333333 176.666666667 743 182 733 c 256
 183.333333333 730.333333333 195.833333333 707 219.5 663 c 0
 243.166666667 619 255.666666667 596.333333333 257 595 c 256
 259.666666667 592.333333333 262 588.333333333 264 583 c 0
 266 577.666666667 265.333333333 573.666666667 262 571 c 256
 260.5 570.5 l 0
 259.5 570.166666667 258.166666667 570 256.5 570 c 0
 254.833333333 570 253 569.833333333 251 569.5 c 0
 249 569.166666667 246.833333333 569 244.5 569 c 0
 241 569 241 569 237 569 c 257
 233.666666667 568.333333333 230.833333333 568.833333333 228.5 570.5 c 0
 226.166666667 572.166666667 224.166666667 574.166666667 222.5 576.5 c 0
 220.833333333 578.833333333 219.666666667 580 219 580 c 256
 215 582 189.333333333 607.666666667 142 657 c 257
 63 576 l 257
 62.3333333333 574 57.3333333333 571.666666667 48 569 c 256
 45.3333333333 568.333333333 38.6666666667 568 28 568 c 256
 20.6666666667 568 18 573.333333333 20 584 c 256
 20.6666666667 585.333333333 49 635 105 733 c 257
 108.333333333 741.666666667 114 746 122 746 c 256
 156 746 l 257
EndSplineSet
EndChar

StartChar: asciitilde
Encoding: 97 126 97
GlifName: asciitilde
Width: 336
VWidth: 0
GlyphClass: 2
Flags: HW
LayerCount: 2
Fore
SplineSet
92 410 m 257
 88 408 l 257
 84 403.333333333 79.5 398.333333333 74.5 393 c 128
 69.5 387.666666667 66 383.666666667 64 381 c 256
 61.3333333333 376.333333333 58 374 54 374 c 258
 50 374 l 258
 40 374 33 377.333333333 29 384 c 257
 27.6666666667 385.333333333 27 386.833333333 27 388.5 c 128
 27 390.166666667 28.3333333333 394 31 400 c 256
 38.3333333333 416.666666667 55 440 81 470 c 257
 83.6666666667 472.666666667 85.6666666667 474.333333333 87 475 c 256
 98.3333333333 483 105.666666667 486.833333333 109 486.5 c 128
 112.333333333 486.166666667 114.166666667 486 114.5 486 c 128
 115 486 115 486 116 486 c 257
 108 476 l 257
 119 485 l 257
 120 486 l 257
 238 437 l 257
 241 437 l 258
 244.333333333 437 249 437.666666667 255 439 c 257
 257.666666667 441.666666667 260.333333333 445.333333333 263 450 c 128
 265.666666667 454.666666667 268 458.666666667 270 462 c 256
 273.333333333 468.666666667 277.666666667 471 283 469 c 258
 302 463 l 258
 306.666666667 461.666666667 309 458.666666667 309 454 c 256
 309 445.333333333 289.333333333 419 250 375 c 257
 242.666666667 363.666666667 233.666666667 358 223 358 c 258
 216 358 l 258
 212 358 207.5 359.166666667 202.5 361.5 c 128
 197.5 363.833333333 192.833333333 365.833333333 188.5 367.5 c 128
 184.166666667 369.166666667 180.166666667 370.833333333 176.5 372.5 c 128
 172.833333333 374.166666667 170.5 375.166666667 169.5 375.5 c 128
 168 376 168 376 156 380 c 256
 137.333333333 387.333333333 117 397 95 409 c 257
 92 410 l 257
EndSplineSet
EndChar

StartChar: asterisk
Encoding: 98 42 98
GlifName: asterisk
Width: 500
VWidth: 0
GlyphClass: 2
Flags: HW
LayerCount: 2
Fore
SplineSet
296 616 m 257
 287.333333333 612.666666667 271.5 597.333333333 248.5 570 c 0
 225.5 542.666666667 213.666666667 528.666666667 213 528 c 256
 211.666666667 526.666666667 208.333333333 522.666666667 203 516 c 0
 197.666666667 509.333333333 192.5 503 187.5 497 c 0
 180 488 l 257
 176.666666667 484 172.833333333 480 168.5 476 c 0
 164.166666667 472 160.833333333 468.833333333 158.5 466.5 c 0
 156.166666667 464.166666667 154.666666667 462.333333333 154 461 c 256
 152.666666667 458.333333333 148 453 140 445 c 0
 128 433 128 433 127 432 c 256
 120.333333333 423.333333333 109.333333333 411.333333333 94 396 c 256
 76.6666666667 378.666666667 63.6666666667 364 55 352 c 257
 52.3333333333 348.666666667 43.6666666667 340.333333333 29 327 c 256
 11.6666666667 311.666666667 4 303 6 301 c 256
 18 291 33.1666666667 278.5 51.5 263.5 c 0
 69.8333333333 248.5 85.6666666667 235.5 99 224.5 c 0
 112.333333333 213.5 119.666666667 207.666666667 121 207 c 256
 137 195.666666667 145 189 145 187 c 256
 148.333333333 182.333333333 170 160 210 120 c 256
 219.333333333 110.666666667 230 96 242 76 c 0
 254 56 260.666666667 36 262 16 c 256
 262.666666667 12.6666666667 272 21.6666666667 290 43 c 0
 308 64.3333333333 321.666666667 80.6666666667 331 92 c 256
 356.333333333 123.333333333 382.333333333 153.333333333 409 182 c 256
 418.333333333 192 425 199.333333333 429 204 c 256
 431 206 437.5 212.833333333 448.5 224.5 c 0
 459.5 236.166666667 468 246 474 254 c 256
 484 266.666666667 493.833333333 278.333333333 503.5 289 c 0
 513.166666667 299.666666667 520.333333333 307.333333333 525 312 c 0
 532 319 l 256
 530.666666667 325 520 338 500 358 c 256
 498 360 494.5 363.833333333 489.5 369.5 c 0
 484.5 375.166666667 480.333333333 379.666666667 477 383 c 256
 474.333333333 385.666666667 470 390.166666667 464 396.5 c 0
 458 402.833333333 454.666666667 406.333333333 454 407 c 256
 444.666666667 413.666666667 430.333333333 428.666666667 411 452 c 256
 407.666666667 456 403.5 460.166666667 398.5 464.5 c 0
 393.5 468.833333333 390.666666667 471.666666667 390 473 c 256
 385.333333333 479 377.833333333 487.833333333 367.5 499.5 c 0
 357.166666667 511.166666667 348.666666667 521.666666667 342 531 c 256
 337.333333333 537.666666667 331.333333333 548.5 324 563.5 c 0
 316.666666667 578.5 310.666666667 591.166666667 306 601.5 c 0
 301.333333333 611.833333333 298 616.666666667 296 616 c 257
387 472 m 257
 406 451 l 257
 287 334 l 257
 427 205 l 257
 408 183 l 257
 266 312 l 257
 143 191 l 257
 122 210 l 257
 244 332 l 257
 131 436 l 257
 151 457 l 257
 267 352 l 257
 387 472 l 257
EndSplineSet
EndChar

StartChar: at
Encoding: 99 64 99
GlifName: at
Width: 650
VWidth: 0
GlyphClass: 2
Flags: HW
LayerCount: 2
Fore
SplineSet
453 413 m 257
 427 419 l 257
 404 424 l 257
 399.333333333 424 390.5 424.166666667 377.5 424.5 c 0
 364.5 424.833333333 355.333333333 425 350 425 c 256
 317.333333333 425 287.166666667 414.833333333 259.5 394.5 c 0
 231.833333333 374.166666667 213.333333333 355 204 337 c 256
 198 325.666666667 191.833333333 310 185.5 290 c 0
 179.166666667 270 176.833333333 242.833333333 178.5 208.5 c 0
 180.166666667 174.166666667 191.333333333 145.666666667 212 123 c 256
 221.333333333 112.333333333 235.5 109.166666667 254.5 113.5 c 0
 273.5 117.833333333 293.333333333 128.666666667 314 146 c 256
 319.333333333 150 324.333333333 154.333333333 329 159 c 0
 333.666666667 163.666666667 337.5 167.666666667 340.5 171 c 0
 343.5 174.333333333 346.333333333 177.666666667 349 181 c 0
 351.666666667 184.333333333 353.833333333 187 355.5 189 c 0
 357.166666667 191 358.666666667 192.833333333 360 194.5 c 0
 361.333333333 196.166666667 362.333333333 197.333333333 363 198 c 0
 363.666666667 198.666666667 364 198.666666667 364 198 c 256
 365.333333333 194.666666667 365.166666667 186 363.5 172 c 0
 361.833333333 158 360.166666667 146 358.5 136 c 0
 356.833333333 126 357 120 359 118 c 256
 398.333333333 114.666666667 439 119.333333333 481 132 c 0
 523 144.666666667 550.333333333 162.333333333 563 185 c 256
 587.666666667 227 599.666666667 272.333333333 599 321 c 256
 598.333333333 359 587.666666667 396.5 567 433.5 c 0
 546.333333333 470.5 526.333333333 495.666666667 507 509 c 256
 482.333333333 527 458.5 540 435.5 548 c 0
 412.5 556 384.666666667 558.333333333 352 555 c 256
 304 549.666666667 262.666666667 538 228 520 c 256
 183.333333333 496 146.666666667 466 118 430 c 256
 82 384.666666667 59.3333333333 334.666666667 50 280 c 256
 33.3333333333 178.666666667 52 101.666666667 106 49 c 256
 119.333333333 35.6666666667 145.5 20.6666666667 184.5 4 c 0
 223.5 -12.6666666667 261 -21.6666666667 297 -23 c 256
 327.666666667 -24.3333333333 362.333333333 -18 401 -4 c 0
 439.666666667 10 478.333333333 32.6666666667 517 64 c 257
 476 94 l 257
 446 71 l 257
 414.666666667 49.6666666667 385.666666667 34.3333333333 359 25 c 0
 332.333333333 15.6666666667 303.666666667 15 273 23 c 256
 213 39 173 58.6666666667 153 82 c 256
 119 120 105.666666667 187.666666667 113 285 c 256
 113.666666667 294.333333333 119.333333333 313.333333333 130 342 c 0
 140.666666667 370.666666667 151.666666667 393.333333333 163 410 c 256
 183.666666667 437.333333333 210 459.333333333 242 476 c 256
 274 492.666666667 309.666666667 501 349 501 c 256
 405.666666667 501 448.333333333 488.333333333 477 463 c 256
 517 426.333333333 539.666666667 385 545 339 c 256
 550.333333333 297 545.333333333 259.333333333 530 226 c 256
 526.666666667 217.333333333 517.166666667 203.833333333 501.5 185.5 c 0
 485.833333333 167.166666667 473.666666667 157.666666667 465 157 c 256
 456 157 456 157 450.5 157 c 0
 446.833333333 157 441.833333333 158.5 435.5 161.5 c 0
 429.166666667 164.5 424.666666667 169.166666667 422 175.5 c 0
 419.333333333 181.833333333 418.333333333 191.666666667 419 205 c 0
 419.666666667 218.333333333 423 234.333333333 429 253 c 256
 429.666666667 254.333333333 430.333333333 262.166666667 431 276.5 c 0
 431.666666667 290.833333333 433.666666667 310.5 437 335.5 c 0
 440.333333333 360.5 445.666666667 386.333333333 453 413 c 257
343 387 m 257
 363.666666667 387 376 376.333333333 380 355 c 0
 384 333.666666667 382.666666667 312.333333333 376 291 c 0
 366 259 l 257
 349.333333333 226.333333333 331.333333333 202.333333333 312 187 c 0
 292.666666667 171.666666667 278 165.666666667 268 169 c 256
 255.333333333 173.666666667 248 190.166666667 246 218.5 c 0
 244 246.833333333 245.333333333 268.333333333 250 283 c 256
 265.333333333 355 296.333333333 389.666666667 343 387 c 257
EndSplineSet
EndChar

StartChar: b
Encoding: 101 98 101
GlifName: b
Width: 449
VWidth: 0
GlyphClass: 2
Flags: HW
LayerCount: 2
Fore
SplineSet
20 629 m 257
 59 609 l 257
 78 548 l 257
 80 204 l 257
 50 109 l 257
 159 54 l 257
 257 8 l 257
 287 48 l 257
 324 102 l 257
 357 146 l 257
 398 192 l 257
 413 211 l 257
 429 236 l 257
 422 315 l 257
 393 407 l 257
 374 444 l 257
 330 504 l 257
 280 534 l 257
 198 480 l 257
 199 548 l 257
 216 677 l 257
 265 727 l 257
 241 749 l 257
 36 658 l 257
 20 629 l 257
201 415 m 257
 227 403 l 257
 249 388 l 257
 262 373 l 257
 277 354 l 257
 288 336 l 257
 298 319 l 257
 305 300 l 257
 312 279 l 257
 323 248 l 257
 328 205 l 257
 322 178 l 257
 301 158 l 257
 270 152 l 257
 244 158 l 257
 209 181 l 257
 200 199 l 257
 198 221 l 257
 198 284 l 257
 201 415 l 257
EndSplineSet
EndChar

StartChar: backslash
Encoding: 102 92 102
GlifName: backslash
Width: 450
VWidth: 0
GlyphClass: 2
Flags: HW
LayerCount: 2
Fore
SplineSet
73 755 m 257
 25 753 l 257
 302 0 l 257
 363 3 l 257
 73 755 l 257
EndSplineSet
EndChar

StartChar: bar
Encoding: 103 124 103
GlifName: bar
Width: 269
VWidth: 0
GlyphClass: 2
Flags: HW
LayerCount: 2
Fore
SplineSet
100 756 m 257
 100 -5 l 257
 169 -5 l 257
 169 756 l 257
 100 756 l 257
EndSplineSet
EndChar

StartChar: braceleft
Encoding: 104 123 104
GlifName: braceleft
Width: 374
VWidth: 0
GlyphClass: 2
Flags: HW
LayerCount: 2
Fore
SplineSet
321 -25 m 257
 324 -6 l 257
 324 -1.33333333333 320.666666667 1.33333333333 314 2 c 0
 307.333333333 2.66666666667 299.333333333 2.5 290 1.5 c 0
 280.666666667 0.5 270.333333333 2.5 259 7.5 c 0
 247.666666667 12.5 238.333333333 21.3333333333 231 34 c 256
 225.666666667 43.3333333333 222.833333333 52 222.5 60 c 0
 222.166666667 68 222.833333333 83.3333333333 224.5 106 c 0
 226.166666667 128.666666667 227 152.333333333 227 177 c 256
 227 195.666666667 226 224 224 262 c 256
 223.333333333 269.333333333 221.833333333 277.666666667 219.5 287 c 0
 217.166666667 296.333333333 212.166666667 307.666666667 204.5 321 c 0
 196.833333333 334.333333333 187 343.333333333 175 348 c 257
 149 361 l 257
 165.666666667 362.333333333 180.5 368.5 193.5 379.5 c 0
 206.5 390.5 214.833333333 399.833333333 218.5 407.5 c 0
 222.166666667 415.166666667 224.666666667 421.333333333 226 426 c 256
 232 443.333333333 233 483.333333333 229 546 c 256
 225 618.666666667 224.666666667 663 228 679 c 256
 231.333333333 694.333333333 240.333333333 704.166666667 255 708.5 c 0
 269.666666667 712.833333333 284 715 298 715 c 0
 312 715 319.333333333 717.333333333 320 722 c 257
 321 740 l 257
 319 744 314.5 747 307.5 749 c 0
 300.5 751 291.5 752 280.5 752 c 0
 269.5 752 259.666666667 751.833333333 251 751.5 c 0
 242.333333333 751.166666667 231.666666667 750.333333333 219 749 c 0
 206.333333333 747.666666667 198 747 194 747 c 256
 183.333333333 746.333333333 171.5 740.666666667 158.5 730 c 0
 145.5 719.333333333 135.666666667 706 129 690 c 256
 128.333333333 688.666666667 130 649.333333333 134 572 c 0
 138 494.666666667 134 441.333333333 122 412 c 256
 115.333333333 395.333333333 107.166666667 384.333333333 97.5 379 c 0
 87.8333333333 373.666666667 78.5 370.833333333 69.5 370.5 c 0
 60.5 370.166666667 54.3333333333 367.666666667 51 363 c 257
 50 356 l 257
 59.3333333333 348.666666667 69.8333333333 343.333333333 81.5 340 c 0
 93.1666666667 336.666666667 101.5 332 106.5 326 c 0
 111.5 320 116.666666667 306.666666667 122 286 c 256
 126 278 127.5 248.833333333 126.5 198.5 c 0
 125.5 148.166666667 125 122 125 120 c 256
 126.333333333 110 126.5 99.3333333333 125.5 88 c 0
 124.5 76.6666666667 125.333333333 62.3333333333 128 45 c 0
 130.666666667 27.6666666667 136 12.6666666667 144 0 c 256
 149.333333333 -9.33333333333 167.5 -17.8333333333 198.5 -25.5 c 0
 229.5 -33.1666666667 257 -37 281 -37 c 0
 305 -37 318.333333333 -33 321 -25 c 257
EndSplineSet
EndChar

StartChar: braceright
Encoding: 105 125 105
GlifName: braceright
Width: 374
VWidth: 0
GlyphClass: 2
Flags: HW
LayerCount: 2
Fore
SplineSet
53 740 m 257
 50 721 l 257
 50 716.333333333 53.3333333333 713.666666667 60 713 c 0
 66.6666666667 712.333333333 74.6666666667 712.5 84 713.5 c 0
 93.3333333333 714.5 103.666666667 712.5 115 707.5 c 0
 126.333333333 702.5 135.666666667 693.666666667 143 681 c 256
 148.333333333 671.666666667 151.166666667 663 151.5 655 c 0
 151.833333333 647 151.166666667 631.666666667 149.5 609 c 0
 147.833333333 586.333333333 147 562.666666667 147 538 c 256
 147 519.333333333 148 491 150 453 c 256
 150.666666667 445.666666667 152.166666667 437.333333333 154.5 428 c 0
 156.833333333 418.666666667 161.833333333 407.333333333 169.5 394 c 0
 177.166666667 380.666666667 187 371.666666667 199 367 c 257
 225 354 l 257
 208.333333333 352.666666667 193.5 346.5 180.5 335.5 c 0
 167.5 324.5 159.166666667 315.166666667 155.5 307.5 c 0
 151.833333333 299.833333333 149.333333333 293.666666667 148 289 c 256
 142 271.666666667 141 231.666666667 145 169 c 256
 149 96.3333333333 149.333333333 52 146 36 c 256
 142.666666667 20.6666666667 133.666666667 10.8333333333 119 6.5 c 0
 104.333333333 2.16666666667 90 0 76 0 c 0
 62 0 54.6666666667 -2.33333333333 54 -7 c 257
 53 -25 l 257
 55 -29 59.5 -32 66.5 -34 c 0
 73.5 -36 82.5 -37 93.5 -37 c 0
 104.5 -37 114.333333333 -36.8333333333 123 -36.5 c 0
 131.666666667 -36.1666666667 142.333333333 -35.3333333333 155 -34 c 0
 167.666666667 -32.6666666667 176 -32 180 -32 c 256
 190.666666667 -31.3333333333 202.5 -25.6666666667 215.5 -15 c 0
 228.5 -4.33333333333 238.333333333 9 245 25 c 256
 245.666666667 26.3333333333 244 65.6666666667 240 143 c 0
 236 220.333333333 240 273.666666667 252 303 c 256
 258.666666667 319.666666667 266.833333333 330.666666667 276.5 336 c 0
 286.166666667 341.333333333 295.5 344.166666667 304.5 344.5 c 0
 313.5 344.833333333 319.666666667 347.333333333 323 352 c 257
 324 359 l 257
 314.666666667 366.333333333 304.166666667 371.666666667 292.5 375 c 0
 280.833333333 378.333333333 272.5 383 267.5 389 c 0
 262.5 395 257.333333333 408.333333333 252 429 c 256
 248 437 246.5 466.166666667 247.5 516.5 c 0
 248.5 566.833333333 249 593 249 595 c 256
 247.666666667 605 247.5 615.666666667 248.5 627 c 0
 249.5 638.333333333 248.666666667 652.666666667 246 670 c 0
 243.333333333 687.333333333 238 702.333333333 230 715 c 256
 224.666666667 724.333333333 206.5 732.833333333 175.5 740.5 c 0
 144.5 748.166666667 117 752 93 752 c 0
 69 752 55.6666666667 748 53 740 c 257
EndSplineSet
EndChar

StartChar: bracketleft
Encoding: 106 91 106
GlifName: bracketleft
Width: 299
VWidth: 0
GlyphClass: 2
Flags: HW
LayerCount: 2
Fore
SplineSet
244 745 m 257
 50 744 l 257
 50 -39 l 257
 246 -39 l 257
 246 3 l 257
 167 4 l 257
 167 701 l 257
 249 702 l 257
 244 745 l 257
EndSplineSet
EndChar

StartChar: bracketright
Encoding: 107 93 107
GlifName: bracketright
Width: 299
VWidth: 0
GlyphClass: 2
Flags: HW
LayerCount: 2
Fore
SplineSet
55 -39 m 257
 249 -38 l 257
 249 745 l 257
 53 745 l 257
 53 703 l 257
 132 702 l 257
 132 5 l 257
 50 4 l 257
 55 -39 l 257
EndSplineSet
EndChar

StartChar: breve
Encoding: 108 728 108
GlifName: breve
Width: 300
VWidth: 0
GlyphClass: 2
Flags: HW
LayerCount: 2
Fore
SplineSet
400 768 m 257
 278 824 l 257
 276.666666667 812.666666667 270.5 797 259.5 777 c 0
 248.5 757 238.333333333 743.333333333 229 736 c 256
 210.333333333 722 189 715 165 715 c 256
 134.333333333 715 109.666666667 720 91 730 c 256
 59.6666666667 748.666666667 39.6666666667 763.333333333 31 774 c 257
 -10 778 l 257
 -11.3333333333 760.666666667 -0.333333333333 737 23 707 c 256
 41 684.333333333 56.6666666667 669 70 661 c 256
 86.6666666667 650.333333333 114 643.333333333 152 640 c 256
 167.333333333 638.666666667 191 644.666666667 223 658 c 256
 265 676 296.666666667 692.666666667 318 708 c 256
 318.666666667 708.666666667 323.5 710.833333333 332.5 714.5 c 0
 341.5 718.166666667 350.333333333 722.166666667 359 726.5 c 0
 367.666666667 730.833333333 376.333333333 736.833333333 385 744.5 c 0
 393.666666667 752.166666667 398.666666667 760 400 768 c 257
EndSplineSet
EndChar

StartChar: brevecomb
Encoding: 109 774 109
GlifName: brevecomb
Width: 300
VWidth: 0
GlyphClass: 2
Flags: HW
LayerCount: 2
Fore
SplineSet
400 768 m 257
 278 824 l 257
 276.666666667 812.666666667 270.5 797 259.5 777 c 0
 248.5 757 238.333333333 743.333333333 229 736 c 256
 210.333333333 722 189 715 165 715 c 256
 134.333333333 715 109.666666667 720 91 730 c 256
 59.6666666667 748.666666667 39.6666666667 763.333333333 31 774 c 257
 -10 778 l 257
 -11.3333333333 760.666666667 -0.333333333333 737 23 707 c 256
 41 684.333333333 56.6666666667 669 70 661 c 256
 86.6666666667 650.333333333 114 643.333333333 152 640 c 256
 167.333333333 638.666666667 191 644.666666667 223 658 c 256
 265 676 296.666666667 692.666666667 318 708 c 256
 318.666666667 708.666666667 323.5 710.833333333 332.5 714.5 c 0
 341.5 718.166666667 350.333333333 722.166666667 359 726.5 c 0
 367.666666667 730.833333333 376.333333333 736.833333333 385 744.5 c 0
 393.666666667 752.166666667 398.666666667 760 400 768 c 257
EndSplineSet
EndChar

StartChar: brokenbar
Encoding: 110 166 110
GlifName: brokenbar
Width: 300
VWidth: 0
GlyphClass: 2
Flags: HW
LayerCount: 2
Fore
SplineSet
132 656 m 257
 132 327 l 257
 182 327 l 257
 182 656 l 257
 132 656 l 257
134 148 m 257
 134 -152 l 257
 180 -152 l 257
 180 148 l 257
 134 148 l 257
EndSplineSet
EndChar

StartChar: bullet
Encoding: 111 8226 111
GlifName: bullet
Width: 330
VWidth: 0
GlyphClass: 2
Flags: HW
LayerCount: 2
Fore
SplineSet
298 368 m 256
 298 404.666666667 285 435.833333333 259 461.5 c 0
 233 487.166666667 201.333333333 500 164 500 c 256
 126.666666667 500 95 487.166666667 69 461.5 c 0
 43 435.833333333 30 404.666666667 30 368 c 256
 30 331.333333333 43 300.166666667 69 274.5 c 0
 95 248.833333333 126.666666667 236 164 236 c 256
 201.333333333 236 233 248.833333333 259 274.5 c 0
 285 300.166666667 298 331.333333333 298 368 c 256
EndSplineSet
EndChar

StartChar: c
Encoding: 112 99 112
GlifName: c
Width: 396
VWidth: 0
GlyphClass: 2
Flags: HW
LayerCount: 2
Fore
SplineSet
337 178 m 257
 295 206 l 257
 277 182 l 257
 258 162 l 257
 239 160 l 257
 226 161 l 257
 209 168 l 257
 196 180 l 257
 183 193 l 257
 161 220 l 257
 151 234 l 257
 139 255 l 257
 127 279 l 257
 120 305 l 257
 119 328 l 257
 122 349 l 257
 131 370 l 257
 149 394 l 257
 161 403 l 257
 176 402 l 257
 195 395 l 257
 214 385 l 257
 230 374 l 257
 245 363 l 257
 258 355 l 257
 267 349 l 257
 278 341 l 257
 289 352 l 257
 289.666666667 352.666666667 294.5 356.833333333 303.5 364.5 c 0
 312.5 372.166666667 318.333333333 377 321 379 c 257
 342 398 l 257
 344 400.666666667 347 403.5 351 406.5 c 0
 357 411 l 257
 376 428 l 257
 360 437 l 257
 349 444 l 257
 338 451 l 257
 330 456 l 257
 321 460 l 257
 311 466 l 257
 302 472 l 257
 291 478 l 257
 281 484 l 257
 269 491 l 257
 256 499 l 257
 244 506 l 257
 234 513 l 257
 232.726779963 513.763932022 231.090169944 514.763932022 229.090169944 516 c 0
 226.520768633 517.587977341 224.824045318 518.587977341 224 519 c 257
 217 523 l 257
 211 527 l 257
 202 533 l 257
 186 520 l 257
 165 504 l 257
 153 491 l 257
 130 472 l 257
 112 451 l 257
 95 433 l 257
 84 422 l 257
 71 408 l 257
 63 393 l 257
 63 392.333333333 60.6666666667 389.333333333 56 384 c 0
 51.3333333333 378.666666667 48 373.666666667 46 369 c 257
 37 349 l 257
 25 319 l 257
 16 271 l 257
 16 235 l 257
 18 219 l 257
 24 202 l 257
 27 190 l 257
 36 163 l 257
 47 141 l 257
 59 122 l 257
 71 104 l 257
 81 92 l 257
 88 81 l 257
 100 71 l 257
 107 65 l 257
 112 60 l 257
 120 52 l 257
 127 45 l 257
 145 29 l 257
 156 22 l 257
 172 12 l 257
 189 30 l 257
 203 45 l 257
 219 60 l 257
 241 81 l 257
 258 99 l 257
 277 117 l 257
 298 138 l 257
 318 159 l 257
 337 178 l 257
EndSplineSet
EndChar

StartChar: caron
Encoding: 114 711 114
GlifName: caron
Width: 200
VWidth: 0
GlyphClass: 2
Flags: HW
LayerCount: 2
Fore
SplineSet
48 652 m 257
 55.3333333333 644.666666667 61.3333333333 641 66 641 c 256
 120 641 l 256
 127.333333333 641 133.666666667 643.333333333 139 648 c 256
 148.333333333 656 181.333333333 688.333333333 238 745 c 256
 240.666666667 747.666666667 241.666666667 750.5 241 753.5 c 0
 240.333333333 756.5 238.333333333 757.666666667 235 757 c 256
 204 757 l 256
 196.666666667 757 192 756.333333333 190 755 c 256
 187 753 156 734 97 698 c 257
 94 700 l 257
 3 751 l 257
 -4.33333333333 756.333333333 -9.33333333333 758.666666667 -12 758 c 256
 -14 758 -14 758 -25 758 c 0
 -32.3333333333 758 -36.6666666667 757.666666667 -38 757 c 256
 -47.3333333333 753.666666667 -50.3333333333 750.666666667 -47 748 c 256
 -24.3333333333 725.333333333 7.33333333333 693.333333333 48 652 c 257
EndSplineSet
EndChar

StartChar: caroncomb
Encoding: 115 780 115
GlifName: caroncomb
Width: 0
VWidth: 0
GlyphClass: 2
Flags: H
LayerCount: 2
Fore
SplineSet
-37 706 m 257
 -29.6666666667 698.666666667 -23.6666666667 695 -19 695 c 256
 35 695 l 256
 42.3333333333 695 48.6666666667 697.333333333 54 702 c 256
 63.3333333333 710 96.3333333333 742.333333333 153 799 c 256
 155.666666667 801.666666667 156.666666667 804.5 156 807.5 c 0
 155.333333333 810.5 153.333333333 811.666666667 150 811 c 256
 119 811 l 256
 111.666666667 811 107 810.333333333 105 809 c 256
 102 807 71 788 12 752 c 257
 9 754 l 257
 -82 805 l 257
 -89.3333333333 810.333333333 -94.3333333333 812.666666667 -97 812 c 256
 -99 812 -99 812 -110.5 812 c 0
 -118.166666667 812 -122.333333333 811.666666667 -123 811 c 256
 -131.666666667 807.666666667 -134.666666667 804.666666667 -132 802 c 256
 -109.333333333 779.333333333 -77.6666666667 747.333333333 -37 706 c 257
EndSplineSet
EndChar

StartChar: caroncomb.alt
Encoding: 116 -1 116
GlifName: caroncomb.alt
Width: 0
VWidth: 0
GlyphClass: 4
Flags: H
AnchorPoint: "top" -168 907 mark 0
LayerCount: 2
Fore
SplineSet
-80 712 m 257
 -58 610.666666667 -64 536.666666667 -98 490 c 257
 -15 481 l 257
 11 496.333333333 31.5 525.833333333 46.5 569.5 c 0
 61.5 613.166666667 66.6666666667 657.666666667 62 703 c 257
 60 703 12.6666666667 706 -80 712 c 257
EndSplineSet
EndChar

StartChar: cedilla
Encoding: 120 184 120
GlifName: cedilla
Width: 500
VWidth: 0
GlyphClass: 2
Flags: HW
LayerCount: 2
Fore
SplineSet
302 0 m 257
 272 1 l 257
 209 -95 l 257
 211.5 -98 l 0
 213.166666667 -100 214.333333333 -101.333333333 215 -102 c 256
 222 -110 l 257
 239.333333333 -102 255 -101 269 -107 c 0
 283 -113 290 -124.666666667 290 -142 c 256
 290 -166.666666667 270 -180.666666667 230 -184 c 256
 213.333333333 -185.333333333 192.666666667 -182.333333333 168 -175 c 256
 167.333333333 -175 165.333333333 -178.5 162 -185.5 c 0
 158.666666667 -192.5 157.333333333 -196.333333333 158 -197 c 256
 175.333333333 -205 200.833333333 -210.333333333 234.5 -213 c 0
 268.166666667 -215.666666667 293.333333333 -215 310 -211 c 256
 324.666666667 -207 336 -203.666666667 344 -201 c 0
 352 -198.333333333 361.5 -191.666666667 372.5 -181 c 0
 383.5 -170.333333333 389.333333333 -157 390 -141 c 256
 390.666666667 -125.666666667 386.333333333 -111.833333333 377 -99.5 c 0
 367.666666667 -87.1666666667 356.666666667 -79 344 -75 c 256
 318.666666667 -67 289.333333333 -66.6666666667 256 -74 c 257
 302 0 l 257
EndSplineSet
EndChar

StartChar: cedillacomb
Encoding: 121 807 121
GlifName: cedillacomb
Width: 0
VWidth: 0
GlyphClass: 2
Flags: H
LayerCount: 2
Fore
SplineSet
15 7 m 257
 -15 8 l 257
 -78 -88 l 257
 -75.5 -91 l 0
 -73.8333333333 -93 -72.6666666667 -94.3333333333 -72 -95 c 256
 -65 -103 l 257
 -48.3333333333 -94.3333333333 -32.8333333333 -93.1666666667 -18.5 -99.5 c 0
 -4.16666666667 -105.833333333 3 -117.666666667 3 -135 c 256
 3 -159.666666667 -17 -173.666666667 -57 -177 c 256
 -73.6666666667 -178.333333333 -94.3333333333 -175.333333333 -119 -168 c 256
 -119.666666667 -168 -121.666666667 -171.5 -125 -178.5 c 0
 -128.333333333 -185.5 -129.666666667 -189.333333333 -129 -190 c 256
 -111.666666667 -198 -86.1666666667 -203.333333333 -52.5 -206 c 0
 -18.8333333333 -208.666666667 6.33333333333 -208 23 -204 c 256
 37.6666666667 -200 49 -196.666666667 57 -194 c 0
 65 -191.333333333 74.5 -184.666666667 85.5 -174 c 0
 96.5 -163.333333333 102.333333333 -150 103 -134 c 256
 103.666666667 -118.666666667 99.3333333333 -104.833333333 90 -92.5 c 0
 80.6666666667 -80.1666666667 69.6666666667 -72 57 -68 c 256
 31.6666666667 -60 2.33333333333 -59.6666666667 -31 -67 c 257
 15 7 l 257
EndSplineSet
EndChar

StartChar: cent
Encoding: 122 162 122
GlifName: cent
Width: 450
VWidth: 0
GlyphClass: 2
Flags: HW
LayerCount: 2
Fore
SplineSet
261 549 m 257
 261 497 l 257
 290.333333333 478.333333333 313 464.333333333 329 455 c 257
 331.666666667 453 341.666666667 447.666666667 359 439 c 0
 376.333333333 430.333333333 392 421.666666667 406 413 c 256
 406.666666667 412.333333333 404.166666667 409.666666667 398.5 405 c 0
 392.833333333 400.333333333 388 396.666666667 384 394 c 256
 382.666666667 393.333333333 381.166666667 392.166666667 379.5 390.5 c 0
 377.833333333 388.833333333 375.666666667 386.833333333 373 384.5 c 0
 370.333333333 382.166666667 368 380 366 378 c 256
 364.666666667 376.666666667 362.333333333 374.5 359 371.5 c 0
 355.666666667 368.5 351.666666667 365 347 361 c 257
 339 353 331.666666667 346.333333333 325 341 c 257
 323 339 320.333333333 336.666666667 317 334 c 0
 313.666666667 331.333333333 311 329 309 327 c 257
 305.666666667 329 303.333333333 330.333333333 302 331 c 256
 298 333.666666667 294 335.666666667 290 337 c 257
 288 338.333333333 285.666666667 339.666666667 283 341 c 257
 281 342.333333333 278 344 274 346 c 257
 272.490332008 346.941125497 l 0
 271.72554117 347.532659915 270.562097167 348.218951416 269 349 c 257
 265.666666667 351 264.711556261 352.541666667 266.134668784 353.625 c 0
 266 354 l 0
 262.666666667 352.666666667 260.666666667 352 260 352 c 257
 259.333333333 230 260 169 262 169 c 257
 269.333333333 171 278.333333333 174.666666667 289 180 c 256
 295.666666667 182.666666667 303.333333333 187.333333333 312 194 c 256
 321.333333333 201.333333333 328.333333333 208 333 214 c 257
 337.666666667 220 340.333333333 224 341 226 c 257
 384 196 l 257
 378 190.666666667 358.333333333 173.333333333 325 144 c 256
 314.333333333 134.666666667 302.166666667 124.5 288.5 113.5 c 0
 274.833333333 102.5 266 95.3333333333 262 92 c 257
 253 -150 l 257
 203 -149 l 257
 202 40 l 257
 196 36 186.666666667 27.6666666667 174 15 c 257
 121.333333333 51.6666666667 84.6666666667 85 64 115 c 256
 48 137.666666667 36.3333333333 159 29 179 c 256
 19 204.333333333 15.3333333333 237.333333333 18 278 c 256
 20 304 29.3333333333 332.333333333 46 363 c 257
 57.3333333333 383.666666667 69.3333333333 402 82 418 c 256
 89.3333333333 428.666666667 103 443.333333333 123 462 c 256
 139 478 151.333333333 490 160 498 c 256
 176.666666667 512 190.333333333 523.333333333 201 532 c 257
 201 549 l 257
 261 549 l 257
202 390 m 257
 200 391.333333333 197 393 193 395 c 0
 189 397 185.833333333 398.666666667 183.5 400 c 0
 181.166666667 401.333333333 178.5 402.5 175.5 403.5 c 0
 172.5 404.5 169.666666667 404.833333333 167 404.5 c 0
 164.333333333 404.166666667 161.666666667 403 159 401 c 256
 145 392.333333333 133.333333333 377 124 355 c 256
 118 340.333333333 117.666666667 319.333333333 123 292 c 257
 124.333333333 286.666666667 127.333333333 278 132 266 c 257
 136 258 140 251 144 245 c 256
 144.666666667 243.666666667 146.333333333 240.833333333 149 236.5 c 0
 151.666666667 232.166666667 153.666666667 229.333333333 155 228 c 256
 159.666666667 221.333333333 163 217 165 215 c 257
 167 213 169.333333333 210.5 172 207.5 c 0
 174.666666667 204.5 176.666666667 202 178 200 c 257
 185.333333333 192 193 184 201 176 c 257
 202 390 l 257
EndSplineSet
EndChar

StartChar: circumflexcomb
Encoding: 124 770 124
GlifName: circumflexcomb
Width: 0
VWidth: 0
GlyphClass: 2
Flags: H
LayerCount: 2
Fore
SplineSet
-70 735 m 257
 -77.3333333333 742.333333333 -83.3333333333 746 -88 746 c 256
 -142 746 l 256
 -149.333333333 746 -155.666666667 743.666666667 -161 739 c 256
 -170.333333333 731 -203.333333333 698.666666667 -260 642 c 256
 -262.666666667 639.333333333 -263.666666667 636.5 -263 633.5 c 0
 -262.333333333 630.5 -260.333333333 629.333333333 -257 630 c 256
 -254 630 -254 630 -247.5 630 c 0
 -241 630 -241 630 -234 630 c 0
 -227 630 -227 630 -226 630 c 256
 -218.666666667 630 -214 630.666666667 -212 632 c 256
 -209 634 -178 653 -119 689 c 257
 -116 687 l 257
 -25 636 l 257
 -17.6666666667 630.666666667 -12.6666666667 628.333333333 -10 629 c 256
 -8.66666666667 629.666666667 -4.16666666667 630 3.5 630 c 0
 15 630 15 630 16 630 c 256
 18 630.666666667 20.3333333333 632 23 634 c 0
 25.6666666667 636 26.3333333333 637.666666667 25 639 c 256
 2.33333333333 661.666666667 -29.3333333333 693.666666667 -70 735 c 257
EndSplineSet
EndChar

StartChar: colon
Encoding: 125 58 125
GlifName: colon
Width: 247
VWidth: 0
GlyphClass: 2
Flags: HW
LayerCount: 2
Fore
SplineSet
239 132 m 256
 231 141.333333333 192.666666667 180.333333333 124 249 c 256
 112.5 238 l 0
 104.833333333 230.666666667 95.3333333333 221.5 84 210.5 c 0
 72.6666666667 199.5 61.5 188.333333333 50.5 177 c 0
 39.5 165.666666667 29.8333333333 155.666666667 21.5 147 c 0
 13.1666666667 138.333333333 8.33333333333 133.333333333 7 132 c 256
 124 15 l 257
 239 132 l 256
238 451 m 256
 226 465 189 503 127 565 c 256
 126.333333333 565.666666667 107 547.166666667 69 509.5 c 0
 31 471.833333333 12 452.666666667 12 452 c 256
 12 450 21.5 439.166666667 40.5 419.5 c 0
 59.5 399.833333333 78.5 380.5 97.5 361.5 c 0
 116.5 342.5 125.333333333 333 124 333 c 256
 123.333333333 333 132.666666667 342.833333333 152 362.5 c 0
 171.333333333 382.166666667 190.5 401.833333333 209.5 421.5 c 0
 238 451 l 256
EndSplineSet
EndChar

StartChar: comma
Encoding: 126 44 126
GlifName: comma
Width: 300
VWidth: 0
GlyphClass: 2
Flags: HW
LayerCount: 2
Fore
SplineSet
114 263 m 257
 111.333333333 263 98.3333333333 200 75 74 c 256
 73 62 70.5 49.5 67.5 36.5 c 0
 64.5 23.5 62.6666666667 14.6666666667 62 10 c 256
 59.3333333333 -6 56.3333333333 -20.3333333333 53 -33 c 256
 45 -68.3333333333 39.3333333333 -95 36 -113 c 256
 36 -114.333333333 34.3333333333 -122.666666667 31 -138 c 0
 27.6666666667 -153.333333333 23.8333333333 -171.833333333 19.5 -193.5 c 0
 15.1666666667 -215.166666667 11.6666666667 -233.333333333 9 -248 c 257
 66 -172 l 257
 96 -130 115.666666667 -103.666666667 125 -93 c 256
 131.666666667 -85 141.5 -71.6666666667 154.5 -53 c 0
 167.5 -34.3333333333 175.666666667 -23 179 -19 c 256
 243 69 l 257
 242.333333333 70.3333333333 233.833333333 83.5 217.5 108.5 c 0
 201.166666667 133.5 183.5 160.333333333 164.5 189 c 0
 145.5 217.666666667 128.666666667 242.333333333 114 263 c 257
EndSplineSet
EndChar

StartChar: copyright
Encoding: 128 169 128
GlifName: copyright
Width: 630
VWidth: 0
GlyphClass: 2
Flags: HW
LayerCount: 2
Fore
SplineSet
542 331 m 256
 542 269.666666667 520.333333333 217.333333333 477 174 c 0
 433.666666667 130.666666667 381 109 319 109 c 256
 257.666666667 109 205.333333333 130.666666667 162 174 c 0
 118.666666667 217.333333333 97 269.666666667 97 331 c 256
 97 393 118.666666667 445.666666667 162 489 c 0
 205.333333333 532.333333333 257.666666667 554 319 554 c 256
 381 554 433.666666667 532.333333333 477 489 c 0
 520.333333333 445.666666667 542 393 542 331 c 256
569 331 m 256
 569 400.333333333 544.5 459.5 495.5 508.5 c 0
 446.5 557.5 387.333333333 582 318 582 c 256
 248.666666667 582 189.666666667 557.5 141 508.5 c 0
 92.3333333333 459.5 68 400.333333333 68 331 c 256
 68 261.666666667 92.3333333333 202.666666667 141 154 c 0
 189.666666667 105.333333333 248.666666667 81 318 81 c 256
 387.333333333 81 446.5 105.333333333 495.5 154 c 0
 544.5 202.666666667 569 261.666666667 569 331 c 256
405 409 m 257
 457 504 l 257
 421 498 l 257
 411 485 l 257
 399.666666667 477 391.333333333 474.333333333 386 477 c 0
 380.666666667 479.666666667 371.166666667 484.833333333 357.5 492.5 c 0
 343.833333333 500.166666667 331 504.333333333 319 505 c 256
 279 507 244.333333333 491.333333333 215 458 c 256
 202.333333333 444 191 425.833333333 181 403.5 c 0
 171 381.166666667 166 359.333333333 166 338 c 256
 166 291.333333333 175 254 193 226 c 256
 207.666666667 203.333333333 227 184.833333333 251 170.5 c 0
 275 156.166666667 297 150.666666667 317 154 c 256
 333.666666667 156.666666667 348.166666667 160.666666667 360.5 166 c 0
 372.833333333 171.333333333 381.666666667 176.166666667 387 180.5 c 0
 392.333333333 184.833333333 400 192 410 202 c 256
 421.333333333 215.333333333 433 235.666666667 445 263 c 257
 414 263 l 257
 409.333333333 247 403 234.333333333 395 225 c 256
 389.666666667 218.333333333 385.5 213.666666667 382.5 211 c 0
 379.5 208.333333333 373.666666667 205.333333333 365 202 c 0
 356.333333333 198.666666667 344.666666667 196.333333333 330 195 c 256
 307.333333333 193.666666667 285.666666667 210.333333333 265 245 c 256
 258.333333333 256.333333333 253.166666667 267.833333333 249.5 279.5 c 0
 245.833333333 291.166666667 243.333333333 301.333333333 242 310 c 0
 240.666666667 318.666666667 239 333.666666667 237 355 c 256
 233 399 239 431 255 451 c 256
 258.333333333 455 261.333333333 458.5 264 461.5 c 0
 266.666666667 464.5 269.666666667 466.833333333 273 468.5 c 0
 276.333333333 470.166666667 278.833333333 471.666666667 280.5 473 c 0
 282.166666667 474.333333333 284.833333333 475.166666667 288.5 475.5 c 0
 292.166666667 475.833333333 294.5 476 295.5 476 c 0
 297 476 297 476 304.5 476 c 0
 312 476 312 476 314 476 c 256
 318 476 318 476 322 476 c 0
 324.666666667 476 327.333333333 475.5 330 474.5 c 0
 332.666666667 473.5 334.666666667 472.666666667 336 472 c 0
 337.333333333 471.333333333 339.666666667 469.833333333 343 467.5 c 0
 346.333333333 465.166666667 348.5 463.666666667 349.5 463 c 0
 350.5 462.333333333 353.166666667 460.166666667 357.5 456.5 c 0
 361.833333333 452.833333333 365 450.333333333 367 449 c 256
 369.666666667 447 375.333333333 434.666666667 384 412 c 257
 405 409 l 257
EndSplineSet
EndChar

StartChar: currency
Encoding: 129 164 129
GlifName: currency
Width: 500
VWidth: 0
GlyphClass: 2
Flags: HW
LayerCount: 2
Fore
SplineSet
444 576 m 257
 357 490 l 257
 319.666666667 508.666666667 284 518 250 518 c 256
 218 518 184.666666667 509 150 491 c 257
 56 577 l 257
 12 530 l 257
 100 447 l 257
 74.6666666667 417.666666667 61.3333333333 384 60 346 c 256
 60 344.666666667 59.8333333333 340.666666667 59.5 334 c 0
 59.1666666667 327.333333333 59.1666666667 322.5 59.5 319.5 c 0
 59.8333333333 316.5 60.6666666667 311.333333333 62 304 c 0
 63.3333333333 296.666666667 65.3333333333 290 68 284 c 0
 70.6666666667 278 74.5 270.333333333 79.5 261 c 0
 84.5 251.666666667 90.6666666667 241.666666667 98 231 c 257
 11 146 l 257
 55 99 l 257
 142 188 l 257
 176.666666667 166 214 155.666666667 254 157 c 256
 272.666666667 157.666666667 287.166666667 159.333333333 297.5 162 c 0
 307.833333333 164.666666667 326.333333333 172 353 184 c 257
 446 100 l 257
 490 148 l 257
 403 229 l 257
 429 255 442 292.333333333 442 341 c 256
 442 379.666666667 429.333333333 416.333333333 404 451 c 257
 489 532 l 257
 444 576 l 257
351 337 m 256
 352.333333333 303.666666667 344 277.333333333 326 258 c 0
 308 238.666666667 282 228.666666667 248 228 c 256
 220.666666667 227.333333333 198.166666667 236.833333333 180.5 256.5 c 0
 162.833333333 276.166666667 153.333333333 300.666666667 152 330 c 256
 150 366.666666667 159.333333333 395.333333333 180 416 c 0
 200.666666667 436.666666667 224 446.666666667 250 446 c 256
 317.333333333 443.333333333 351 407 351 337 c 256
EndSplineSet
EndChar

StartChar: d
Encoding: 130 100 130
GlifName: d
Width: 430
VWidth: 0
GlyphClass: 2
Flags: HW
LayerCount: 2
Fore
SplineSet
205 703 m 257
 176 688 l 257
 154 676 l 257
 134 666 l 257
 113 655 l 257
 77 635 l 257
 134 564 l 257
 175 500 l 257
 154 490 l 257
 140 483 l 257
 110 469 l 257
 81 454 l 257
 46 440 l 257
 19 425 l 257
 18 369 l 257
 17 326 l 257
 18 279 l 257
 18 237 l 257
 20 178 l 257
 22 126 l 257
 52 102 l 257
 106 70 l 257
 227 16 l 257
 266 82 l 257
 323 138 l 257
 400 197 l 257
 399 236 l 257
 389 297 l 257
 378 349 l 257
 366 394 l 257
 342 471 l 257
 307 547 l 257
 262 625 l 257
 205 703 l 257
244 355 m 257
 252 324 l 257
 262 282 l 257
 267 253 l 257
 270 228 l 257
 273 187 l 257
 274 165 l 257
 275 138 l 257
 264 140 l 257
 248 145 l 257
 234 147 216.333333333 153.333333333 195 164 c 0
 173.666666667 174.666666667 159 184 151 192 c 257
 138 199 l 257
 133 250 l 257
 129 308 l 257
 130 331 l 257
 133 368 l 257
 139 397 l 257
 153 423 l 257
 176 450 l 257
 198 462 l 257
 212 434 l 257
 230 391 l 257
 244 355 l 257
EndSplineSet
EndChar

StartChar: dagger
Encoding: 131 8224 131
GlifName: dagger
Width: 550
VWidth: 0
GlyphClass: 2
Flags: HW
LayerCount: 2
Fore
SplineSet
253 724 m 257
 225.666666667 722.666666667 206 711 194 689 c 0
 182 667 178.333333333 650.333333333 183 639 c 256
 216.333333333 551 231.666666667 497.333333333 229 478 c 256
 227.666666667 468 226.5 462.333333333 225.5 461 c 0
 224.5 459.666666667 218.333333333 460 207 462 c 256
 202.333333333 463.333333333 190.833333333 467.333333333 172.5 474 c 0
 154.166666667 480.666666667 137.166666667 486.666666667 121.5 492 c 0
 105.833333333 497.333333333 95.3333333333 500.333333333 90 501 c 256
 68.6666666667 503.666666667 51.1666666667 497.833333333 37.5 483.5 c 0
 23.8333333333 469.166666667 17.3333333333 454 18 438 c 256
 18.6666666667 424 25.8333333333 410.833333333 39.5 398.5 c 0
 53.1666666667 386.166666667 67 380 81 380 c 256
 90.3333333333 380 115.5 388.5 156.5 405.5 c 0
 197.5 422.5 221.333333333 430.666666667 228 430 c 257
 232 405 l 257
 229.333333333 391.666666667 223.333333333 376.833333333 214 360.5 c 0
 204.666666667 344.166666667 196.166666667 330.666666667 188.5 320 c 0
 180.833333333 309.333333333 177 303.666666667 177 303 c 256
 202.333333333 166.333333333 215 96 215 92 c 256
 215 90.6666666667 216.5 82.5 219.5 67.5 c 0
 222.5 52.5 225.333333333 28.6666666667 228 -4 c 0
 230.666666667 -36.6666666667 232.666666667 -79.6666666667 234 -133 c 257
 275 -133 l 257
 271 -101 l 257
 269 -45 275.666666667 30.6666666667 291 126 c 0
 306.333333333 221.333333333 318.666666667 282 328 308 c 256
 316.5 316.5 l 0
 308.833333333 322.166666667 300.5 331.833333333 291.5 345.5 c 0
 282.5 359.166666667 277 375.666666667 275 395 c 256
 273 417.666666667 272.666666667 429.333333333 274 430 c 256
 282.666666667 433.333333333 306.166666667 425.166666667 344.5 405.5 c 0
 382.833333333 385.833333333 407.666666667 376.666666667 419 378 c 256
 441.666666667 380.666666667 457.5 389 466.5 403 c 0
 475.5 417 480 431.333333333 480 446 c 256
 480 460 474.833333333 473.5 464.5 486.5 c 0
 454.166666667 499.5 439.333333333 505.333333333 420 504 c 256
 405.333333333 503.333333333 380 495 344 479 c 0
 308 463 283.666666667 456.333333333 271 459 c 257
 273.666666667 485.666666667 278.5 511.5 285.5 536.5 c 0
 292.5 561.5 299.666666667 583.333333333 307 602 c 0
 314.333333333 620.666666667 318.666666667 632.333333333 320 637 c 256
 325.333333333 659.666666667 321.166666667 679.666666667 307.5 697 c 0
 293.833333333 714.333333333 275.666666667 723.333333333 253 724 c 257
EndSplineSet
EndChar

StartChar: daggerdbl
Encoding: 132 8225 132
GlifName: daggerdbl
Width: 500
VWidth: 0
GlyphClass: 2
Flags: HW
LayerCount: 2
Fore
SplineSet
182 302 m 257
 199.333333333 331.333333333 213 360.333333333 223 389 c 257
 229 428 l 257
 222.333333333 429.333333333 195 421.166666667 147 403.5 c 0
 99 385.833333333 70.3333333333 377 61 377 c 256
 47 377 33.8333333333 383.5 21.5 396.5 c 0
 9.16666666667 409.5 2.66666666667 423.333333333 2 438 c 256
 1.33333333333 451.333333333 7.83333333333 465.666666667 21.5 481 c 0
 35.1666666667 496.333333333 47 504 57 504 c 256
 62.3333333333 504 111 489.333333333 203 460 c 256
 214.333333333 458 220.5 457.666666667 221.5 459 c 0
 222.5 460.333333333 223.666666667 466 225 476 c 256
 229.666666667 514.666666667 216.666666667 575 186 657 c 256
 182 667 185.666666667 680.666666667 197 698 c 0
 208.333333333 715.333333333 226 725.666666667 250 729 c 257
 272.666666667 728.333333333 289.666666667 719.666666667 301 703 c 0
 312.333333333 686.333333333 315.333333333 666.333333333 310 643 c 256
 309.333333333 640.333333333 305.166666667 628 297.5 606 c 0
 289.833333333 584 283.333333333 560.5 278 535.5 c 0
 272.666666667 510.5 270.333333333 485.666666667 271 461 c 257
 283.666666667 458.333333333 310.666666667 464.166666667 352 478.5 c 0
 393.333333333 492.833333333 421 500.333333333 435 501 c 256
 454.333333333 502.333333333 469.166666667 496 479.5 482 c 0
 489.833333333 468 495 454 495 440 c 256
 495 425.333333333 489.333333333 410.833333333 478 396.5 c 0
 466.666666667 382.166666667 449.666666667 375.666666667 427 377 c 256
 417.666666667 377.666666667 401.333333333 383.5 378 394.5 c 0
 354.666666667 405.5 332.666666667 415.166666667 312 423.5 c 0
 291.333333333 431.833333333 278 433.666666667 272 429 c 256
 264 423.666666667 265 408.333333333 275 383 c 256
 281.666666667 365.666666667 288.666666667 350.666666667 296 338 c 0
 303.333333333 325.333333333 309 316.666666667 313 312 c 0
 317 307.333333333 319 304.666666667 319 304 c 257
 317 298.666666667 312 288.833333333 304 274.5 c 0
 296 260.166666667 290 246.666666667 286 234 c 256
 272 184.666666667 267.333333333 159.333333333 272 158 c 256
 281.333333333 154.666666667 307.333333333 160.166666667 350 174.5 c 0
 392.666666667 188.833333333 418.666666667 196.333333333 428 197 c 256
 450.666666667 198.333333333 467.666666667 191.833333333 479 177.5 c 0
 490.333333333 163.166666667 496 148.666666667 496 134 c 256
 496 120 490.833333333 106 480.5 92 c 0
 470.166666667 78 455.333333333 71.6666666667 436 73 c 256
 421.333333333 73.6666666667 393.5 83.8333333333 352.5 103.5 c 0
 311.5 123.166666667 284.666666667 131.666666667 272 129 c 257
 271.333333333 104.333333333 273.5 78.3333333333 278.5 51 c 0
 283.5 23.6666666667 290.166666667 -3 298.5 -29 c 0
 306.833333333 -55 311 -68.3333333333 311 -69 c 256
 316.333333333 -91.6666666667 313.333333333 -111.5 302 -128.5 c 0
 290.666666667 -145.5 273.666666667 -154.333333333 251 -155 c 257
 227 -151.666666667 209.333333333 -141.333333333 198 -124 c 0
 186.666666667 -106.666666667 183 -93 187 -83 c 256
 196.333333333 -57.6666666667 204 -33.5 210 -10.5 c 0
 216 12.5 219.833333333 30 221.5 42 c 0
 223.166666667 54 224.333333333 66.3333333333 225 79 c 0
 226 98 l 256
 229.5882135 119.529280999 228.087086528 130.909446289 221.496619083 132.140495868 c 0
 219.013118746 132.604394987 215.847579051 132.224229698 212 131 c 256
 208.666666667 129.666666667 184 119.166666667 138 99.5 c 0
 92 79.8333333333 65.3333333333 70 58 70 c 256
 48 70 36.1666666667 77.6666666667 22.5 93 c 0
 8.83333333333 108.333333333 2.33333333333 122.666666667 3 136 c 256
 3.66666666667 150.666666667 10.1666666667 164.5 22.5 177.5 c 0
 34.8333333333 190.5 48 197 62 197 c 256
 71.3333333333 197 99.6666666667 189.833333333 147 175.5 c 0
 194.333333333 161.166666667 221.333333333 154.666666667 228 156 c 257
 228 184 l 257
 225.333333333 199.333333333 222.5 212.333333333 219.5 223 c 0
 216.5 233.666666667 213.666666667 241.5 211 246.5 c 0
 208.333333333 251.5 204 259.5 198 270.5 c 0
 192 281.5 186.666666667 292 182 302 c 257
EndSplineSet
EndChar

StartChar: degree
Encoding: 135 176 135
GlifName: degree
Width: 353
VWidth: 0
GlyphClass: 2
Flags: HW
LayerCount: 2
Fore
SplineSet
94.1098411973 630 m 257
 115.005118405 646.542094456 135.338451738 647.208761123 155.109841197 632 c 257
 191.109841197 591 l 257
 208.669890217 563.405637255 219.94372812 544.018874138 224.931354907 532.83971065 c 0
 229.918981694 521.660547162 237.645143791 498.380643612 248.109841197 463 c 257
 249.893781116 461.662045061 251.210898549 458.164257945 252.061193495 452.506638652 c 0
 252.911488441 446.84901936 251.832809131 439.400149147 248.825155566 430.160028014 c 0
 245.817502001 420.919906882 240.245730545 412.533230877 232.109841197 405 c 257
 220.651507864 396.666666667 211.274424531 392.5 203.978591197 392.5 c 0
 196.682757864 392.5 185.059841197 397.333333333 169.109841197 407 c 257
 156.665396753 416.333333333 142.665396753 435 127.109841197 463 c 257
 121.926396007 465.96196868 105.593062674 496.96196868 78.1098411973 556 c 257
 75.1700652869 556.971588635 74.8367319536 567.929921969 77.1098411973 588.875 c 0
 79.382950441 609.820078031 85.0496171076 623.528411365 94.1098411973 630 c 257
172.109841197 748 m 257
 166.582197885 746.77163482 162.31015023 745.750682376 159.293698232 744.937142669 c 0
 156.277246233 744.123602961 153.349341544 742.885507849 150.509984163 741.222857331 c 0
 147.670626782 739.560206814 145.723864805 738.29163526 144.669698232 737.417142669 c 0
 143.615531659 736.542650078 141.247626969 734.344554965 137.565984163 730.822857331 c 0
 133.884341357 727.301159698 130.732293702 724.360207254 128.109841197 722 c 257
 122.87406884 719.008130081 103.207402173 696.674796748 69.1098411973 655 c 257
 55.7765078639 635 43.1098411973 610 31.1098411973 580 c 257
 23.0353070358 558.467908903 19.3686403691 528.801242236 20.1098411973 491 c 257
 20.3599895461 486.997626419 20.727452907 483.158323575 21.2122312801 479.482091467 c 0
 21.6970096532 475.805859359 22.1378641813 472.603605673 22.5347948644 469.875330408 c 0
 22.9317255476 467.147055143 23.7174335195 463.769881746 24.8919187801 459.743810217 c 0
 26.0664040407 455.717738688 26.9369460688 452.683453752 27.5035448644 450.640955408 c 0
 28.0701436601 448.598457064 29.3324141319 445.006439917 31.2903562801 439.864903967 c 0
 33.2482984282 434.723368016 34.6422779564 431.09142683 35.4722948644 428.969080408 c 0
 36.3023117725 426.846733986 38.1348947444 422.274248089 40.9700437801 415.251622717 c 0
 43.8051928158 408.228997345 45.8517919548 403.145123106 47.1098411973 400 c 257
 58.3898411973 377.44 76.7231745306 350.106666667 102.109841197 318 c 257
 105.350634398 314.509915014 109.739817768 309.623266763 115.277391306 303.340055247 c 0
 120.814964843 297.05684373 124.644598104 292.862140233 126.766291089 290.755944753 c 0
 128.887984074 288.649749274 131.970350812 285.959119438 136.013391306 282.684055247 c 0
 140.056431799 279.408991055 144.04606506 277.054287557 147.982291089 275.619944753 c 0
 151.918517118 274.185601949 156.627700488 272.978953698 162.109841197 272 c 257
 170.43075217 272 178.140158122 273.545710626 185.238059052 276.637131879 c 0
 192.335959983 279.728553131 197.729648079 282.809006879 201.419123342 285.878493121 c 0
 205.108598605 288.947979364 211.173243842 294.836275616 219.613059052 303.543381879 c 0
 228.052874263 312.250488141 234.551801644 318.736027515 239.109841197 323 c 257
 260.759558711 347.355932203 281.092892045 374.355932203 300.109841197 404 c 257
 301.759371324 405.237147595 304.199911984 409.288792028 307.431463176 416.154933298 c 0
 310.663014368 423.021074568 314.670821938 434.251119036 319.454885885 449.845066702 c 0
 324.238949833 465.439014368 328.45726827 482.823992134 332.109841197 502 c 257
 333.739252962 520.466666667 333.427290658 535.794250646 331.173954284 547.982751938 c 0
 328.920617911 560.17125323 321.899246882 580.177002584 310.109841197 608 c 257
 292.719365007 636.457142857 276.05269834 660.457142857 260.109841197 680 c 257
 252.955286872 686.102413983 244.19097514 694.943824953 233.816906001 706.524232908 c 0
 223.442836862 718.104640864 213.860349215 727.088485592 205.06944306 733.475767092 c 0
 196.278536905 739.863048592 185.292002951 744.704459562 172.109841197 748 c 257
EndSplineSet
EndChar

StartChar: dieresis
Encoding: 136 168 136
GlifName: dieresis
Width: 350
VWidth: 0
GlyphClass: 2
Flags: HW
LayerCount: 2
Fore
SplineSet
209 664 m 256
 198.333333333 670.666666667 184 677.5 166 684.5 c 0
 148 691.5 132.333333333 696.833333333 119 700.5 c 0
 105.666666667 704.166666667 99 705.666666667 99 705 c 256
 97.6666666667 693 96 679.666666667 94 665 c 0
 92 650.333333333 90.5 639.5 89.5 632.5 c 0
 88.5 625.5 88 621.666666667 88 621 c 256
 84.6666666667 605.666666667 82.1666666667 590.166666667 80.5 574.5 c 0
 78.8333333333 558.833333333 78 546.833333333 78 538.5 c 0
 78 526 l 257
 92.6666666667 538 111 555.333333333 133 578 c 0
 155 600.666666667 173.333333333 620.5 188 637.5 c 0
 202.666666667 654.5 209.666666667 663.333333333 209 664 c 256
367 653 m 256
 335.666666667 670.333333333 297 684.666666667 251 696 c 256
 250.333333333 696 247.333333333 684.666666667 242 662 c 0
 236.666666667 639.333333333 234 627.333333333 234 626 c 256
 216 540 l 257
 240.666666667 554 265.666666667 570.333333333 291 589 c 0
 316.333333333 607.666666667 335.5 622.833333333 348.5 634.5 c 0
 361.5 646.166666667 367.666666667 652.333333333 367 653 c 256
EndSplineSet
EndChar

StartChar: dieresiscomb
Encoding: 137 776 137
GlifName: dieresiscomb
Width: 0
VWidth: 0
GlyphClass: 2
Flags: H
LayerCount: 2
Fore
SplineSet
8 723 m 256
 -2.66666666667 729.666666667 -17 736.5 -35 743.5 c 0
 -53 750.5 -68.6666666667 755.833333333 -82 759.5 c 0
 -95.3333333333 763.166666667 -102 764.666666667 -102 764 c 256
 -103.333333333 752 -105 738.666666667 -107 724 c 0
 -109 709.333333333 -110.5 698.5 -111.5 691.5 c 0
 -112.5 684.5 -113 680.666666667 -113 680 c 256
 -116.333333333 664.666666667 -118.833333333 649.166666667 -120.5 633.5 c 0
 -122.166666667 617.833333333 -123 605.833333333 -123 597.5 c 0
 -123 585 l 257
 -108.333333333 597 -90 614.333333333 -68 637 c 0
 -46 659.666666667 -27.6666666667 679.5 -13 696.5 c 0
 1.66666666667 713.5 8.66666666667 722.333333333 8 723 c 256
166 712 m 256
 134.666666667 729.333333333 96 743.666666667 50 755 c 256
 49.3333333333 755 46.3333333333 743.666666667 41 721 c 0
 35.6666666667 698.333333333 33 686.333333333 33 685 c 256
 15 599 l 257
 39.6666666667 613 64.6666666667 629.333333333 90 648 c 0
 115.333333333 666.666666667 134.5 681.833333333 147.5 693.5 c 0
 160.5 705.166666667 166.666666667 711.333333333 166 712 c 256
EndSplineSet
EndChar

StartChar: divide
Encoding: 138 247 138
GlifName: divide
Width: 450
VWidth: 0
GlyphClass: 2
Flags: HW
LayerCount: 2
Fore
SplineSet
277 206 m 256
 277.666666667 220 273.333333333 232.5 264 243.5 c 0
 254.666666667 254.5 241.333333333 260 224 260 c 256
 207.333333333 260 194.5 254.166666667 185.5 242.5 c 0
 176.5 230.833333333 172 218.666666667 172 206 c 256
 172 196.666666667 176.666666667 185.833333333 186 173.5 c 0
 195.333333333 161.166666667 208 155 224 155 c 256
 240.666666667 155.666666667 253.5 161 262.5 171 c 0
 271.5 181 276.333333333 192.666666667 277 206 c 256
276 465 m 256
 276 479 271.5 491.5 262.5 502.5 c 0
 253.5 513.5 240.333333333 519 223 519 c 256
 206.333333333 519 193.333333333 513.166666667 184 501.5 c 0
 174.666666667 489.833333333 170 477.666666667 170 465 c 256
 170 455.666666667 174.666666667 444.833333333 184 432.5 c 0
 193.333333333 420.166666667 206 414.333333333 222 415 c 256
 238.666666667 415 251.666666667 420 261 430 c 0
 270.333333333 440 275.333333333 451.666666667 276 465 c 256
36 360 m 257
 36 300 l 257
 400 300 l 257
 400 360 l 257
 36 360 l 257
EndSplineSet
EndChar

StartChar: dollar
Encoding: 139 36 139
GlifName: dollar
Width: 500
VWidth: 0
GlyphClass: 2
Flags: HW
LayerCount: 2
Fore
SplineSet
414 555 m 257
 388 599 l 257
 362 626 l 257
 325 653 l 257
 301 664 l 257
 278 674 l 257
 277 750 l 257
 208 750 l 257
 207 674 l 257
 164 661 l 257
 121 634 l 257
 92 602 l 257
 67 554 l 257
 55 486 l 257
 67 417 l 257
 96 368 l 257
 125 338 l 257
 154 316 l 257
 191 292 l 257
 232 268 l 257
 274 245 l 257
 308 216 l 257
 321 180 l 257
 310 144 l 257
 286 123 l 257
 262 109 l 257
 218 107 l 257
 184 118 l 257
 157 138 l 257
 139 162 l 257
 115 193 l 257
 84 173 l 257
 58 155 l 257
 26 130 l 257
 50 92 l 257
 73 61 l 257
 102 35 l 257
 145 8 l 257
 178 -2 l 257
 207 -8 l 257
 207 -87 l 257
 276 -87 l 257
 277 -7 l 257
 325 9 l 257
 351 26 l 257
 368 41 l 257
 384 58 l 257
 399 81 l 257
 412 110 l 257
 421 139 l 257
 424 169 l 257
 426 203 l 257
 422 230 l 257
 416 258 l 257
 400 289 l 257
 385 308 l 257
 367 326 l 257
 355 338 l 257
 332 355 l 257
 314 366 l 257
 290 380 l 257
 261 399 l 257
 224 423 l 257
 183 451 l 257
 166 478 l 257
 164 503 l 257
 170 523 l 257
 185 541 l 257
 204 550 l 257
 232 557 l 257
 263 554 l 257
 293 535 l 257
 310 519 l 257
 326 493 l 257
 353 512 l 257
 377 529 l 257
 398 543 l 257
 414 555 l 257
EndSplineSet
EndChar

StartChar: dotaccentcomb
Encoding: 141 775 141
GlifName: dotaccentcomb
Width: 0
VWidth: 0
GlyphClass: 4
Flags: H
AnchorPoint: "top" 2 480 mark 0
LayerCount: 2
Fore
SplineSet
92 672 m 256
 90.6666666667 673.333333333 82.8333333333 681.5 68.5 696.5 c 0
 54.1666666667 711.5 39.8333333333 726.166666667 25.5 740.5 c 0
 11.1666666667 754.833333333 4 762.333333333 4 763 c 256
 3.33333333333 763.666666667 -12.1666666667 748.833333333 -42.5 718.5 c 0
 -72.8333333333 688.166666667 -88 672.666666667 -88 672 c 256
 -88 670.666666667 -80.5 662.166666667 -65.5 646.5 c 0
 -50.5 630.833333333 -35.5 615.333333333 -20.5 600 c 0
 -5.5 584.666666667 1.66666666667 577 1 577 c 256
 23.5 600.5 l 0
 38.5 616.166666667 53.6666666667 632 69 648 c 0
 92 672 l 256
EndSplineSet
EndChar

StartChar: e
Encoding: 142 101 142
GlifName: e
Width: 400
VWidth: 0
GlyphClass: 2
Flags: HW
LayerCount: 2
Fore
SplineSet
377 391 m 257
 339 418 l 257
 300 445 l 257
 263 473 l 257
 218 504 l 257
 189 528 l 257
 146 503 l 257
 97 472 l 257
 22 428 l 257
 27 376 l 257
 33 303 l 257
 31 241 l 257
 30 171 l 257
 27 143 l 257
 19 108 l 257
 32 103 l 257
 48 97 l 257
 65 90 l 257
 91 80 l 257
 116 70 l 257
 152 55 l 257
 206 35 l 257
 254 14 l 257
 306 89 l 257
 356 158 l 257
 308 156 l 257
 283 154 l 257
 261 154 l 257
 246 154 l 257
 236 155 l 257
 222 156 l 257
 205 162 l 257
 196 167 l 257
 190 173 l 257
 180 183 l 257
 196 199 l 257
 248 255 l 257
 269 276 l 257
 316 325 l 257
 341 353 l 257
 377 391 l 257
161 223 m 257
 147 287 l 257
 145 344 l 257
 153 378 l 257
 167 396 l 257
 187 393 l 257
 207 381 l 257
 225 364 l 257
 242 341 l 257
 246 316 l 257
 235 302 l 257
 218 283 l 257
 193 257 l 257
 161 223 l 257
EndSplineSet
EndChar

StartChar: eight
Encoding: 149 56 149
GlifName: eight
Width: 500
VWidth: 0
GlyphClass: 2
Flags: HW
LayerCount: 2
Fore
SplineSet
253 739 m 257
 239 739.666666667 215 726.5 181 699.5 c 0
 147 672.5 126.333333333 653.666666667 119 643 c 256
 92 612 l 0
 74 591.333333333 58.3333333333 571.166666667 45 551.5 c 0
 31.6666666667 531.833333333 25.6666666667 516.666666667 27 506 c 256
 27.6666666667 498 33.1666666667 487.5 43.5 474.5 c 0
 53.8333333333 461.5 64.3333333333 449.833333333 75 439.5 c 0
 85.6666666667 429.166666667 97 418.833333333 109 408.5 c 0
 127 393 l 256
 129 391 121.5 379.166666667 104.5 357.5 c 0
 87.5 335.833333333 69 312.333333333 49 287 c 0
 29 261.666666667 18 244.666666667 16 236 c 256
 12 221.333333333 40.5 182.333333333 101.5 119 c 0
 162.5 55.6666666667 203 23 223 21 c 256
 235.666666667 19.6666666667 260.333333333 35.6666666667 297 69 c 0
 333.666666667 102.333333333 367.666666667 139.5 399 180.5 c 0
 430.333333333 221.5 445.333333333 251 444 269 c 256
 442 294.333333333 423 327.5 387 368.5 c 0
 351 409.5 326.333333333 431.333333333 313 434 c 256
 307.666666667 435.333333333 316.5 446.333333333 339.5 467 c 0
 362.5 487.666666667 386.333333333 510.166666667 411 534.5 c 0
 435.666666667 558.833333333 445.666666667 575 441 583 c 256
 433.666666667 595 416.166666667 613.833333333 388.5 639.5 c 0
 360.833333333 665.166666667 343 680.333333333 335 685 c 256
 333.666666667 686.333333333 306.333333333 704.333333333 253 739 c 257
149 569 m 257
 151.666666667 573 154 576.833333333 156 580.5 c 0
 158 584.166666667 159.5 586.833333333 160.5 588.5 c 0
 161.5 590.166666667 162.833333333 592.166666667 164.5 594.5 c 0
 166.166666667 596.833333333 168.333333333 599.166666667 171 601.5 c 0
 173.666666667 603.833333333 177.333333333 606.666666667 182 610 c 256
 186 612.666666667 190.333333333 614.166666667 195 614.5 c 0
 199.666666667 614.833333333 204 614.333333333 208 613 c 0
 212 611.666666667 216.333333333 609.5 221 606.5 c 0
 225.666666667 603.5 229.5 600.833333333 232.5 598.5 c 0
 235.5 596.166666667 239 593.333333333 243 590 c 0
 247 586.666666667 249.666666667 584.333333333 251 583 c 256
 257.666666667 578.333333333 266.333333333 568.666666667 277 554 c 0
 287.666666667 539.333333333 295.333333333 527.333333333 300 518 c 256
 304 509.333333333 302.333333333 501 295 493 c 0
 287.666666667 485 279.333333333 479 270 475 c 256
 260 471 219.666666667 502.333333333 149 569 c 257
190 350 m 257
 203.333333333 342.666666667 226.333333333 323.5 259 292.5 c 0
 291.666666667 261.5 310.333333333 238 315 222 c 256
 321 203.333333333 323.333333333 185.333333333 322 168 c 0
 320.666666667 150.666666667 315 142 305 142 c 256
 295 142 279.166666667 148.333333333 257.5 161 c 0
 235.833333333 173.666666667 218 186.333333333 204 199 c 256
 192 209.666666667 180.166666667 227.5 168.5 252.5 c 0
 156.833333333 277.5 150.333333333 297 149 311 c 256
 147.666666667 328.333333333 161.333333333 341.333333333 190 350 c 257
EndSplineSet
EndChar

StartChar: emdash
Encoding: 152 8212 152
GlifName: emdash
Width: 1000
VWidth: 0
GlyphClass: 2
Flags: HW
LayerCount: 2
Fore
SplineSet
-4 423 m 257
 -4 342 l 257
 1001 342 l 257
 1001 423 l 257
 -4 423 l 257
EndSplineSet
EndChar

StartChar: endash
Encoding: 153 8211 153
GlifName: endash
Width: 500
VWidth: 0
GlyphClass: 2
Flags: HW
LayerCount: 2
Fore
SplineSet
-4 420 m 257
 -4 339 l 257
 502 339 l 257
 502 420 l 257
 -4 420 l 257
EndSplineSet
EndChar

StartChar: equal
Encoding: 155 61 155
GlifName: equal
Width: 500
VWidth: 0
GlyphClass: 2
Flags: HW
LayerCount: 2
Fore
SplineSet
431 462 m 257
 408.333333333 446.666666667 393 438 385 436 c 256
 370.333333333 431.333333333 312.333333333 429 211 429 c 256
 207.666666667 429.666666667 205.333333333 430.166666667 204 430.5 c 0
 202.666666667 430.833333333 200.166666667 431.833333333 196.5 433.5 c 0
 192.833333333 435.166666667 190 438.333333333 188 443 c 0
 186 447.666666667 184.666666667 453.666666667 184 461 c 257
 113 286 l 257
 122.333333333 297.333333333 136.333333333 305.666666667 155 311 c 256
 180.333333333 318.333333333 244.666666667 320.333333333 348 317 c 257
 431 462 l 257
328 295 m 257
 324.666666667 291 317.666666667 286.166666667 307 280.5 c 0
 296.333333333 274.833333333 288.666666667 271.333333333 284 270 c 256
 276 267.333333333 266.166666667 265.666666667 254.5 265 c 0
 242.833333333 264.333333333 225.833333333 264.333333333 203.5 265 c 0
 181.166666667 265.666666667 168 266 164 266 c 256
 160.666666667 266 157.333333333 266.5 154 267.5 c 0
 150.666666667 268.5 146.666666667 271.5 142 276.5 c 0
 137.333333333 281.5 134.666666667 288.333333333 134 297 c 257
 64 122 l 257
 69.3333333333 130.666666667 74.6666666667 136.833333333 80 140.5 c 0
 85.3333333333 144.166666667 92 146.666666667 100 148 c 0
 112 150 l 256
 114 150 l 0
 116 150 116 150 119.5 150 c 0
 121.833333333 150 124.666666667 150.166666667 128 150.5 c 0
 131.333333333 150.833333333 135.333333333 151 140 151 c 0
 147 151 147 151 155 151 c 0
 163 151 163 151 173 151 c 0
 183 151 183 151 193.5 151 c 0
 200.5 151 208.333333333 150.833333333 217 150.5 c 0
 225.666666667 150.166666667 234.333333333 150 243 150 c 257
 328 295 l 257
EndSplineSet
EndChar

StartChar: eth
Encoding: 156 240 156
GlifName: eth
Width: 430
VWidth: 0
GlyphClass: 2
Flags: HW
LayerCount: 2
Fore
SplineSet
208 701 m 257
 75 635 l 257
 80.3333333333 631 85 626.5 89 621.5 c 0
 93 616.5 96.1666666667 611.666666667 98.5 607 c 0
 102 600 l 257
 84 591 l 257
 52 484 l 257
 156 529 l 257
 162 523 168 513 174 499 c 257
 115 473 l 258
 87.6666666667 460.333333333 55.3333333333 444.333333333 18 425 c 256
 17.3333333333 425 17 423.666666667 17 421 c 0
 17 418.333333333 17.1666666667 413.333333333 17.5 406 c 0
 17.8333333333 398.666666667 17.3333333333 387.666666667 16 373 c 256
 16 370.333333333 16.1666666667 362.833333333 16.5 350.5 c 0
 16.8333333333 338.166666667 17.3333333333 322.166666667 18 302.5 c 0
 18.6666666667 282.833333333 19 265 19 249 c 256
 19 170.333333333 20 130 22 128 c 256
 52.6666666667 97.3333333333 121 59.6666666667 227 15 c 256
 231.5 23.5 l 0
 234.5 29.1666666667 238.5 36.5 243.5 45.5 c 0
 248.5 54.5 254 63.8333333333 260 73.5 c 0
 266 83.1666666667 273 92.3333333333 281 101 c 0
 289 109.666666667 296.666666667 116 304 120 c 257
 314.666666667 129.333333333 329.833333333 141.833333333 349.5 157.5 c 0
 369.166666667 173.166666667 386.333333333 187.333333333 401 200 c 256
 401.666666667 200.666666667 400.833333333 212.333333333 398.5 235 c 0
 396.166666667 257.666666667 391.333333333 287.333333333 384 324 c 0
 376.666666667 360.666666667 368 393 358 421 c 256
 356 426.333333333 351.833333333 438.5 345.5 457.5 c 0
 339.166666667 476.5 334.333333333 490.166666667 331 498.5 c 0
 327.666666667 506.833333333 322.333333333 518.833333333 315 534.5 c 0
 307.666666667 550.166666667 299.333333333 564.666666667 290 578 c 257
 308 585 l 257
 340 694 l 257
 236 657 l 257
 232.666666667 661.666666667 228.166666667 669.166666667 222.5 679.5 c 0
 216.833333333 689.833333333 212 697 208 701 c 257
198 462 m 257
 202 454.666666667 206 446 210 436 c 0
 214 426 217.333333333 418.333333333 220 413 c 256
 232 390.333333333 244 353.666666667 256 303 c 256
 262 279 267 250 271 216 c 0
 275 182 276 156.333333333 274 139 c 257
 247.333333333 143.666666667 221 152.666666667 195 166 c 256
 175.666666667 176 157.333333333 187.333333333 140 200 c 257
 136 238 133 264.666666667 131 280 c 256
 131 344 l 256
 131 365.333333333 134 382.666666667 140 396 c 256
 149.333333333 416 156.666666667 429 162 435 c 256
 174 449 186 458 198 462 c 257
EndSplineSet
EndChar

StartChar: euro
Encoding: 157 8364 157
GlifName: euro
Width: 500
VWidth: 0
GlyphClass: 2
Flags: HW
LayerCount: 2
Fore
SplineSet
470 660 m 257
 446 665 l 257
 432 660 l 257
 419 633 l 257
 409 647 l 257
 390 659 l 257
 368 673 l 257
 337 682 l 257
 299 685 l 257
 269 679 l 257
 231 663 l 257
 202 645 l 257
 182 621 l 257
 152 586 l 257
 127 545 l 257
 97 459 l 257
 91 417 l 257
 31 416 l 257
 12 363 l 257
 82 361 l 257
 84 303 l 257
 29 304 l 257
 10 245 l 257
 93 246 l 257
 96 210 l 257
 111 150 l 257
 131 107 l 257
 157 60 l 257
 189 28 l 257
 218 9 l 257
 263 -10 l 257
 295 -15 l 257
 345 -11 l 257
 373 -1 l 257
 404 19 l 257
 427 40 l 257
 438 7 l 257
 457 -1 l 257
 477 6 l 257
 489 177 l 257
 452 185 l 257
 442 169 l 257
 431 136 l 257
 417 107 l 257
 393 72 l 257
 371 55 l 257
 342 45 l 257
 306 45 l 257
 266 62 l 257
 243 83 l 257
 223 118 l 257
 209 155 l 257
 202 185 l 257
 195 205 l 257
 192 246 l 257
 379 248 l 257
 408 301 l 257
 189 304 l 257
 187 361 l 257
 417 361 l 257
 440 415 l 257
 190 417 l 257
 195 464 l 257
 202 501 l 257
 212 533 l 257
 234 586 l 257
 248 602 l 257
 281 623 l 257
 321 629 l 257
 371 613 l 257
 402 579 l 257
 427 520 l 257
 444 473 l 257
 480 486 l 257
 470 660 l 257
EndSplineSet
EndChar

StartChar: exclam
Encoding: 158 33 158
GlifName: exclam
Width: 223
VWidth: 0
GlyphClass: 2
Flags: HW
LayerCount: 2
Fore
SplineSet
89 727 m 257
 83 721 76.1666666667 714.5 68.5 707.5 c 0
 60.8333333333 700.5 53.5 694.333333333 46.5 689 c 0
 39.5 683.666666667 33 678.5 27 673.5 c 0
 21 668.5 16.3333333333 664.666666667 13 662 c 0
 8 658 l 256
 22 636.666666667 32.8333333333 615.333333333 40.5 594 c 0
 48.1666666667 572.666666667 52.8333333333 555.833333333 54.5 543.5 c 0
 56.1666666667 531.166666667 57.5 516.166666667 58.5 498.5 c 0
 59.5 480.833333333 60.3333333333 470 61 466 c 256
 63.6666666667 448 66.6666666667 370.666666667 70 234 c 257
 158 311 l 257
 161 437 l 257
 161 452.333333333 161.666666667 483.333333333 163 530 c 0
 164.333333333 576.666666667 165 602 165 606 c 256
 165 609.333333333 165.166666667 615.5 165.5 624.5 c 0
 165.833333333 633.5 166.166666667 643.666666667 166.5 655 c 0
 166.833333333 666.333333333 167.166666667 678.666666667 167.5 692 c 0
 167.833333333 705.333333333 168.333333333 718.333333333 169 731 c 0
 169.666666667 743.666666667 170.166666667 755.166666667 170.5 765.5 c 0
 170.833333333 775.833333333 171 784 171 790 c 0
 171 799 l 256
 163.666666667 793 152.833333333 783.333333333 138.5 770 c 0
 124.166666667 756.666666667 107.666666667 742.333333333 89 727 c 257
113 213 m 257
 125.666666667 202.333333333 140.333333333 188.833333333 157 172.5 c 0
 173.666666667 156.166666667 187.166666667 142.666666667 197.5 132 c 0
 213 116 l 257
 147 49.3333333333 113.666666667 16.3333333333 113 17 c 256
 105 25.6666666667 92.1666666667 38.5 74.5 55.5 c 0
 56.8333333333 72.5 42 87 30 99 c 0
 12 117 l 256
 76 181 109.666666667 213 113 213 c 257
EndSplineSet
EndChar

StartChar: f
Encoding: 160 102 160
GlifName: f
Width: 394
VWidth: 0
GlyphClass: 2
Flags: HW
LayerCount: 2
Fore
SplineSet
374 696 m 257
 267 718 l 257
 180 733 l 257
 135 686 l 257
 92 633 l 257
 23 554 l 257
 43 536 l 257
 57 512 l 257
 62 481 l 257
 64 383 l 257
 63 292 l 257
 63 224 l 257
 60 158 l 257
 57 81 l 257
 51 10 l 257
 45 -42 l 257
 34 -98 l 257
 16 -169 l 257
 28 -173 l 257
 38 -179 l 257
 47 -184 l 257
 58 -193 l 257
 62 -181 l 257
 69 -167 l 257
 75 -148 l 257
 83 -129 l 257
 88 -116 l 257
 102 -80 l 257
 110 -58 l 257
 116 -42 l 257
 125 -16 l 257
 135 11 l 257
 146 41 l 257
 156 72 l 257
 173 126 l 257
 186 176 l 257
 191 207 l 257
 193 264 l 257
 194 291 l 257
 195 353 l 257
 196 374 l 257
 196 406 l 257
 230 405 l 257
 267 405 l 257
 268 455 l 257
 268 500 l 257
 268 528 l 257
 241 528 l 257
 211 528 l 257
 188 528 l 257
 185 547 l 257
 182 559 l 257
 175 578 l 257
 184 591 l 257
 192 602 l 257
 200 615 l 257
 221 612 l 257
 243 606 l 257
 266 598 l 257
 287 587 l 257
 303 606 l 257
 313 621 l 257
 336 647 l 257
 355 670 l 257
 374 696 l 257
EndSplineSet
EndChar

StartChar: fhook
Encoding: 161 402 161
GlifName: fhook
Width: 600
VWidth: 0
GlyphClass: 2
Flags: HW
LayerCount: 2
Fore
SplineSet
529 580 m 257
 535 590.666666667 536.166666667 602 532.5 614 c 0
 528.833333333 626 521.333333333 637.333333333 510 648 c 256
 489.333333333 667.333333333 462 678.666666667 428 682 c 0
 394 685.333333333 362.666666667 680.666666667 334 668 c 256
 293.333333333 652 259.666666667 624.666666667 233 586 c 256
 204.333333333 544 181.666666667 480.333333333 165 395 c 257
 98 395 l 257
 89 393 l 257
 86 385 l 257
 80 363 l 257
 80 355 l 257
 85 353 l 257
 160 353 l 257
 160 334.333333333 157.333333333 295.833333333 152 237.5 c 0
 146.666666667 179.166666667 142.333333333 142.666666667 139 128 c 256
 139 126.666666667 137.333333333 110.166666667 134 78.5 c 0
 130.666666667 46.8333333333 125.333333333 15.3333333333 118 -16 c 0
 110.666666667 -47.3333333333 101 -70.6666666667 89 -86 c 257
 76.3333333333 -88.6666666667 65.6666666667 -88 57 -84 c 0
 48.3333333333 -80 42.5 -75.8333333333 39.5 -71.5 c 0
 36.5 -67.1666666667 32.3333333333 -58.8333333333 27 -46.5 c 0
 21.6666666667 -34.1666666667 18 -26 16 -22 c 256
 10.6666666667 -12.6666666667 -0.166666666667 -7.16666666667 -16.5 -5.5 c 0
 -32.8333333333 -3.83333333333 -45.6666666667 -7.33333333333 -55 -16 c 256
 -63.6666666667 -25.3333333333 -67.3333333333 -38.1666666667 -66 -54.5 c 0
 -64.6666666667 -70.8333333333 -60.3333333333 -84 -53 -94 c 256
 -43.6666666667 -106.666666667 -24.3333333333 -116.833333333 5 -124.5 c 0
 34.3333333333 -132.166666667 64.3333333333 -131.333333333 95 -122 c 256
 109 -116.666666667 120.666666667 -111.5 130 -106.5 c 0
 139.333333333 -101.5 150.833333333 -93.8333333333 164.5 -83.5 c 0
 178.166666667 -73.1666666667 190.833333333 -59.1666666667 202.5 -41.5 c 0
 214.166666667 -23.8333333333 224.666666667 -2.66666666667 234 22 c 256
 234.666666667 23.3333333333 237.166666667 29.3333333333 241.5 40 c 0
 245.833333333 50.6666666667 249 60 251 68 c 0
 253 76 256.333333333 91 261 113 c 0
 265.666666667 135 270.833333333 165.833333333 276.5 205.5 c 0
 282.166666667 245.166666667 288.666666667 294.333333333 296 353 c 257
 400 353 l 257
 410 355 l 257
 412 363 l 257
 418 390 l 257
 417 394 l 257
 412 395 l 257
 299 395 l 257
 299.666666667 401 300.666666667 411.333333333 302 426 c 0
 304 448 304 448 306 470 c 0
 307.333333333 484.666666667 309 498.666666667 311 512 c 256
 315.666666667 548 325.333333333 578 340 602 c 0
 354.666666667 626 371 638.666666667 389 640 c 256
 403 641.333333333 412.833333333 637 418.5 627 c 0
 424.166666667 617 428.833333333 605.166666667 432.5 591.5 c 0
 436.166666667 577.833333333 442.333333333 568.666666667 451 564 c 256
 469 556 483 553.333333333 493 556 c 0
 503 558.666666667 515 566.666666667 529 580 c 257
EndSplineSet
EndChar

StartChar: fi
Encoding: 162 64257 162
GlifName: fi
Width: 500
VWidth: 0
GlyphClass: 3
Flags: HW
LayerCount: 2
Fore
SplineSet
453 679 m 257
 270 719 l 257
 183 734 l 257
 138 687 l 257
 95 634 l 257
 26 555 l 257
 46 537 l 257
 60 513 l 257
 65 482 l 257
 67 384 l 257
 66 293 l 257
 66 225 l 257
 63 159 l 257
 60 82 l 257
 54 11 l 257
 48 -41 l 257
 37 -97 l 257
 19 -168 l 257
 31 -172 l 257
 41 -178 l 257
 50 -183 l 257
 61 -192 l 257
 65 -180 l 257
 72 -166 l 257
 78 -147 l 257
 86 -128 l 257
 91 -115 l 257
 105 -79 l 257
 113 -57 l 257
 119 -41 l 257
 128 -15 l 257
 138 12 l 257
 149 42 l 257
 159 73 l 257
 176 127 l 257
 189 177 l 257
 194 208 l 257
 196 265 l 257
 197 292 l 257
 198 354 l 257
 199 375 l 257
 199 407 l 257
 233 406 l 257
 270 406 l 257
 271 456 l 257
 271 501 l 257
 271 529 l 257
 244 529 l 257
 214 529 l 257
 191 529 l 257
 188 548 l 257
 185 560 l 257
 178 579 l 257
 187 592 l 257
 195 603 l 257
 203 616 l 257
 224 613 l 257
 246 607 l 257
 269 599 l 257
 366 570 l 257
 382 589 l 257
 392 604 l 257
 415 630 l 257
 434 653 l 257
 453 679 l 257
310 527 m 257
 289 528 l 257
 253 528 l 257
 234 429 l 257
 243 424 l 257
 248 421 l 257
 252 417 l 257
 253 416 l 257
 260 411 l 257
 265 402 l 257
 270 394 l 257
 272 382 l 257
 272 367 l 257
 271 349 l 257
 270 310 l 257
 270 190 l 257
 268 174 l 257
 268 162 l 257
 267 156 l 257
 266 147 l 257
 266 140 l 257
 264 135 l 257
 262 130 l 257
 258 124 l 257
 254 118 l 257
 251 112 l 257
 247 105 l 257
 243 99 l 257
 239 95 l 257
 265 74 l 257
 303 42 l 257
 341 12 l 257
 377 53 l 257
 394 76 l 257
 439 130 l 257
 433 133 l 257
 424 138 l 257
 414 147 l 257
 406 154 l 257
 399 164 l 257
 394 172 l 257
 392 187 l 257
 393 206 l 257
 393 224 l 257
 394 240 l 257
 395 288 l 257
 398 350 l 257
 401 414 l 257
 413 451 l 257
 421 475 l 257
 409 482 l 257
 391 491 l 257
 373 498 l 257
 357 507 l 257
 335 516 l 257
 310 527 l 257
EndSplineSet
Ligature2: "ligaStandardLigaturesinLatinlookup0 subtable" f i
EndChar

StartChar: five
Encoding: 163 53 163
GlifName: five
Width: 500
VWidth: 0
GlyphClass: 2
Flags: HW
LayerCount: 2
Fore
SplineSet
381 633 m 257
 423 699 l 257
 381 695.666666667 326.833333333 697.333333333 260.5 704 c 0
 194.166666667 710.666666667 154 717 140 723 c 256
 136 677 l 0
 133.333333333 646.333333333 128 607.666666667 120 561 c 0
 112 514.333333333 102.333333333 476 91 446 c 257
 65 371 l 257
 100.333333333 375 127.333333333 376 146 374 c 256
 185.333333333 367.333333333 210.666666667 362 222 358 c 256
 227.333333333 356 235.333333333 353.5 246 350.5 c 0
 256.666666667 347.5 264.333333333 345.166666667 269 343.5 c 0
 273.666666667 341.833333333 279.333333333 337.833333333 286 331.5 c 0
 292.666666667 325.166666667 299 317 305 307 c 256
 306.333333333 305 308.833333333 301 312.5 295 c 0
 316.166666667 289 318.333333333 284.666666667 319 282 c 0
 319.666666667 279.333333333 320.833333333 275.166666667 322.5 269.5 c 0
 324.166666667 263.833333333 324.833333333 257.833333333 324.5 251.5 c 0
 324.166666667 245.166666667 323 237.333333333 321 228 c 256
 315.666666667 199.333333333 306.666666667 175.333333333 294 156 c 0
 281.333333333 136.666666667 270.666666667 126.333333333 262 125 c 256
 249.333333333 123.666666667 237.833333333 124 227.5 126 c 0
 217.166666667 128 209.5 130.166666667 204.5 132.5 c 0
 199.5 134.833333333 191 140.5 179 149.5 c 0
 167 158.5 158.333333333 164.666666667 153 168 c 256
 145 172.666666667 127.333333333 188.5 100 215.5 c 0
 72.6666666667 242.5 54.6666666667 262 46 274 c 256
 36.5 231 l 0
 30.1666666667 202.333333333 24.1666666667 173.333333333 18.5 144 c 0
 10 100 l 256
 15.3333333333 96 21.6666666667 90 29 82 c 0
 36.3333333333 74 42.3333333333 68.3333333333 47 65 c 256
 55 59.6666666667 62.5 54.5 69.5 49.5 c 0
 76.5 44.5 81 41.1666666667 83 39.5 c 0
 85 37.8333333333 87.6666666667 36.1666666667 91 34.5 c 0
 94.3333333333 32.8333333333 97 31.6666666667 99 31 c 0
 101 30.3333333333 104.666666667 29 110 27 c 256
 138.666666667 17 167 12 195 12 c 256
 241.666666667 24.6666666667 281.333333333 48.6666666667 314 84 c 256
 337.333333333 108.666666667 367 146.666666667 403 198 c 256
 413 212.666666667 422.5 235.833333333 431.5 267.5 c 0
 440.5 299.166666667 442.666666667 324.666666667 438 344 c 256
 438 346.666666667 437.666666667 350.166666667 437 354.5 c 0
 436.333333333 358.833333333 433.666666667 367.166666667 429 379.5 c 0
 424.333333333 391.833333333 417.833333333 403.833333333 409.5 415.5 c 0
 401.166666667 427.166666667 388 440.166666667 370 454.5 c 0
 352 468.833333333 330.666666667 481.333333333 306 492 c 257
 240 513 l 257
 169 528 l 257
 172 578 l 257
 202 574.666666667 224.5 571.5 239.5 568.5 c 0
 254.5 565.5 263.666666667 564 267 564 c 256
 276.333333333 562.666666667 285.833333333 562 295.5 562 c 0
 305.166666667 562 312.833333333 562.166666667 318.5 562.5 c 0
 324.166666667 562.833333333 329.5 563.166666667 334.5 563.5 c 0
 342 564 l 256
 343.333333333 564 356.333333333 587 381 633 c 257
EndSplineSet
EndChar

StartChar: four
Encoding: 165 52 165
GlifName: four
Width: 500
VWidth: 0
GlyphClass: 2
Flags: HW
LayerCount: 2
Fore
SplineSet
409 721 m 257
 319 720 l 257
 225 718 l 257
 115 455 l 257
 99.8795321619 420.756807379 l 0
 33.6144060369 272.252269126 1.98789531629 198 5 198 c 256
 105 194 184.333333333 193 243 195 c 256
 243.666666667 195 242.833333333 188 240.5 174 c 0
 238.166666667 160 233.5 140.5 226.5 115.5 c 0
 219.5 90.5 211.333333333 67 202 45 c 256
 196.666666667 31 189.666666667 16.6666666667 181 2 c 256
 197 6 l 0
 207.666666667 8.66666666667 220.833333333 12 236.5 16 c 0
 252.166666667 20 264.666666667 23 274 25 c 256
 343.333333333 40.3333333333 385 47.3333333333 399 46 c 257
 397.666666667 53.3333333333 396 64 394 78 c 256
 389.333333333 116 386.666666667 154 386 192 c 257
 397 192 l 256
 413 192 425.666666667 191.666666667 435 191 c 256
 439.666666667 191 445.5 190.833333333 452.5 190.5 c 0
 459.5 190.166666667 464 190 466 190 c 256
 467.333333333 190 468 200.5 468 221.5 c 0
 468 253 468 253 468 290.5 c 0
 468 315.5 468.666666667 331.333333333 470 338 c 256
 469 338 l 0
 466 338 l 0
 464 338 462.333333333 337.833333333 461 337.5 c 0
 459.666666667 337.166666667 457.5 336.666666667 454.5 336 c 0
 451.5 335.333333333 449 335 447 335 c 256
 443 334.333333333 430 332.333333333 408 329 c 256
 406 329 404 328.833333333 402 328.5 c 0
 400 328.166666667 398.333333333 327.833333333 397 327.5 c 0
 395.666666667 327.166666667 394.166666667 326.833333333 392.5 326.5 c 0
 390.833333333 326.166666667 389.666666667 326 389 326 c 0
 388 326 388 326 386.5 326 c 0
 385 326 385 326 384.5 326 c 0
 384 326 l 256
 385.333333333 383.333333333 386.666666667 420.666666667 388 438 c 256
 392 482.666666667 393 542 391 616 c 257
 311 526 l 257
 266.601691209 474.547601691 l 0
 259.49576625 466.745298864 251.96186918 458.562764967 244 450 c 257
 254 373 l 257
 254.666666667 359.666666667 254.666666667 341 254 317 c 257
 131 318 l 257
 118.004982762 303.612659486 132.53369885 330.925602452 174.586148264 399.938828899 c 0
 198.614614546 439.372488716 218.752565125 471.726212416 235 497 c 256
 269.666666667 547 327.666666667 621.666666667 409 721 c 257
EndSplineSet
EndChar

StartChar: fraction
Encoding: 166 8260 166
GlifName: fraction
Width: 500
VWidth: 0
GlyphClass: 2
Flags: HW
LayerCount: 2
Fore
SplineSet
272 765 m 257
 -282 5 l 257
 -269 2.5 l 0
 -260.333333333 0.833333333333 -251.5 -0.666666666667 -242.5 -2 c 0
 -229 -4 l 257
 321 765 l 257
 272 765 l 257
EndSplineSet
EndChar

StartChar: g
Encoding: 167 103 167
GlifName: g
Width: 500
VWidth: 0
GlyphClass: 2
Flags: HW
LayerCount: 2
Fore
SplineSet
427 422 m 257
 405 437 l 257
 387 444 l 257
 368 451 l 257
 347 462 l 257
 329 469 l 257
 314 478 l 257
 293 487 l 257
 272 496 l 257
 246 514 l 257
 226 524 l 257
 204 508 l 257
 180 490 l 257
 148 463 l 257
 113 436 l 257
 79 410 l 257
 32 371 l 257
 46 350 l 257
 54 330 l 257
 55 301 l 257
 53 229 l 257
 53 189 l 257
 55 165 l 257
 51 138 l 257
 45 120 l 257
 34 98 l 257
 69 70 l 257
 141 32 l 257
 180 21 l 257
 196 42 l 257
 240 99 l 257
 279 147 l 257
 285 112 l 257
 301 56 l 257
 322 17 l 257
 343 -7 l 257
 313 -44 l 257
 270 -34 l 257
 244 -29 l 257
 220 -26 l 257
 199 -23 l 257
 173 -21 l 257
 148 -20 l 257
 181 20 l 257
 140 31 l 257
 101 -18 l 257
 66 -63 l 257
 15 -126 l 257
 70.3333333333 -128 112.666666667 -132.333333333 142 -139 c 257
 165 -144 l 257
 191 -146 l 257
 220 -152 l 257
 244 -157 l 257
 268 -163 l 257
 277 -150 l 257
 302 -124 l 257
 324 -97 l 257
 350 -66 l 257
 364 -51 l 257
 374 -40 l 257
 390 -22 l 257
 400 -10 l 257
 411 3 l 257
 421 14 l 257
 425 19 l 257
 430 24 l 257
 435 30 l 257
 444 40 l 257
 451 48 l 257
 457 55 l 257
 461 59 l 257
 450 72 l 257
 444 80 l 257
 420 117 l 257
 410.666666667 131 404.333333333 142.666666667 401 152 c 257
 395 165 l 257
 388 186 l 257
 389 205 l 257
 389 231 l 257
 389 249 l 257
 389 261 l 257
 390 286 l 257
 390 300 l 257
 390 320 l 257
 390 336 l 257
 390 351 l 257
 391 365 l 257
 397 382 l 257
 409 404 l 257
 427 422 l 257
161 306 m 257
 162 343 l 257
 167 362 l 257
 176 387 l 257
 190 408 l 257
 210 398 l 257
 233 388 l 257
 251 378 l 257
 276 367 l 257
 277 357 l 257
 277 338 l 257
 277 325 l 257
 277 305 l 257
 277 286 l 257
 278 259 l 257
 278 238 l 257
 278 225 l 257
 278 206 l 257
 267 192 l 257
 246 165 l 257
 225 138 l 257
 213 123 l 257
 194 137 l 257
 179 154 l 257
 165 174 l 257
 160 206 l 257
 161 230 l 257
 162 262 l 257
 161 306 l 257
EndSplineSet
EndChar

StartChar: grave
Encoding: 171 96 171
GlifName: grave
Width: 500
VWidth: 0
GlyphClass: 2
Flags: HW
LayerCount: 2
Fore
SplineSet
222 631 m 257
 222 632 l 257
 222.666666667 668 221 701.666666667 217 733 c 0
 213 764.333333333 209 786.666666667 205 800 c 0
 201 813.333333333 198.666666667 820 198 820 c 256
 183.333333333 818.666666667 160.833333333 815.333333333 130.5 810 c 0
 100.166666667 804.666666667 85.3333333333 801.666666667 86 801 c 256
 111.333333333 770.333333333 125.666666667 752.666666667 129 748 c 256
 132.333333333 744 158.666666667 711.666666667 208 651 c 257
 222 631 l 257
EndSplineSet
EndChar

StartChar: gravecomb
Encoding: 172 768 172
GlifName: gravecomb
Width: 0
VWidth: 0
GlyphClass: 4
Flags: H
AnchorPoint: "top" 81 602 mark 0
LayerCount: 2
Fore
SplineSet
-21 631 m 257
 -21 632 l 257
 -20.3333333333 668 -22 701.666666667 -26 733 c 0
 -30 764.333333333 -34 786.666666667 -38 800 c 0
 -42 813.333333333 -44.3333333333 820 -45 820 c 256
 -59.6666666667 818.666666667 -82.1666666667 815.333333333 -112.5 810 c 0
 -142.833333333 804.666666667 -157.666666667 801.666666667 -157 801 c 256
 -131.666666667 770.333333333 -117.333333333 752.666666667 -114 748 c 256
 -110.666666667 744 -84.3333333333 711.666666667 -35 651 c 257
 -21 631 l 257
EndSplineSet
EndChar

StartChar: greater
Encoding: 173 62 173
GlifName: greater
Width: 500
VWidth: 0
GlyphClass: 2
Flags: HW
LayerCount: 2
Fore
SplineSet
89 13 m 257
 375 281 l 257
 375 281 l 257
 87 545 l 257
 14 474 l 257
 233 277 l 257
 18 84 l 257
 89 13 l 257
EndSplineSet
EndChar

StartChar: guillemetleft
Encoding: 174 171 174
GlifName: guillemetleft
Width: 580
VWidth: 0
GlyphClass: 2
Flags: HW
LayerCount: 2
Fore
SplineSet
324 470 m 257
 243 517 l 257
 20 277 l 257
 247 43 l 257
 327 97 l 257
 179 285 l 257
 324 470 l 257
567 470 m 257
 486 517 l 257
 259 281 l 257
 485 43 l 257
 564 93 l 257
 418 285 l 257
 567 470 l 257
EndSplineSet
EndChar

StartChar: guilsinglleft
Encoding: 176 8249 176
GlifName: guilsinglleft
Width: 350
VWidth: 0
GlyphClass: 2
Flags: HW
LayerCount: 2
Fore
SplineSet
324 470 m 257
 243 517 l 257
 20 277 l 257
 247 43 l 257
 327 97 l 257
 179 285 l 257
 324 470 l 257
EndSplineSet
EndChar

StartChar: h
Encoding: 178 104 178
GlifName: h
Width: 500
VWidth: 0
GlyphClass: 2
Flags: HW
LayerCount: 2
Fore
SplineSet
202 748 m 257
 153 722 l 257
 102 695 l 257
 80 682 l 257
 63 674 l 257
 41 663 l 257
 49 650 l 257
 52 642 l 257
 56 633 l 257
 61.3333333333 619 64 605.333333333 64 592 c 257
 65 586 l 257
 66 555 l 257
 67 529 l 257
 66 451 l 257
 67 405 l 257
 67 403.666666667 66.8333333333 399.666666667 66.5 393 c 0
 66.1666666667 386.333333333 66 378.333333333 66 369 c 0
 66 355 66 355 66 344 c 257
 65 249 l 257
 63 190 l 257
 56 173 l 257
 12 119 l 257
 31 102 l 257
 49 88 l 257
 67 73 l 257
 85 59 l 257
 105 44 l 257
 127 27 l 257
 154 8 l 257
 171 25 l 257
 188 46 l 257
 208 68 l 257
 238 101 l 257
 263 127 l 257
 238 141 l 257
 218 155 l 257
 205 162 l 257
 188 176 l 257
 184 192 l 257
 184 250 l 257
 185 315 l 257
 186 405 l 257
 194 397 l 257
 213 380 l 257
 226 367 l 257
 253 331 l 257
 280 284 l 257
 293 252 l 257
 301 225 l 257
 310 174 l 257
 313 125 l 257
 310 82 l 257
 303 44 l 257
 299 24 l 257
 293 5 l 257
 283 -20 l 257
 280 -27 l 257
 274 -39 l 257
 270 -49 l 257
 267 -55 l 257
 259 -69 l 257
 246 -90 l 257
 230 -111 l 257
 203 -144 l 257
 275 -167 l 257
 286 -150 l 257
 311 -109 l 257
 322 -91 l 257
 346 -43 l 257
 356 -23 l 257
 370 11 l 257
 380 37 l 257
 390 65 l 257
 397 89 l 257
 403 113 l 257
 412 156 l 257
 415 179 l 257
 417 219 l 257
 417 260 l 257
 416 270 l 257
 414 288 l 257
 409 315 l 257
 400 346 l 257
 389 376 l 257
 376 404 l 257
 369 417 l 257
 361 431 l 257
 353 443 l 257
 334 470 l 257
 281 527 l 257
 269 518 l 257
 249 503 l 257
 224 483 l 257
 202 467 l 257
 186 455 l 257
 186 475 l 257
 186 501 l 257
 186 530 l 257
 187 580 l 257
 189 646 l 257
 193 689 l 257
 200 733 l 257
 202 748 l 257
EndSplineSet
EndChar

StartChar: hungarumlaut
Encoding: 179 733 179
GlifName: hungarumlaut
Width: 500
VWidth: 0
GlyphClass: 4
Flags: HW
AnchorPoint: "top" 143 605 mark 0
LayerCount: 2
Fore
SplineSet
120 643 m 257
 143 572 l 257
 177 594 194.666666667 606 196 608 c 256
 197.333333333 609.333333333 206.166666667 642.166666667 222.5 706.5 c 0
 238.833333333 770.833333333 250 806.333333333 256 813 c 256
 256.666666667 813.666666667 241.833333333 816.666666667 211.5 822 c 0
 181.166666667 827.333333333 158.666666667 830.666666667 144 832 c 256
 143.333333333 832 141 825.333333333 137 812 c 0
 133 798.666666667 129 776.333333333 125 745 c 0
 121 713.666666667 119.333333333 680 120 644 c 257
 120 643 l 257
309 632 m 257
 324 569 l 257
 359.333333333 585 379 595.666666667 383 601 c 256
 384.333333333 602.333333333 393.5 634.5 410.5 697.5 c 0
 427.5 760.5 439 795.333333333 445 802 c 256
 445.666666667 802.666666667 430.833333333 805.666666667 400.5 811 c 0
 370.166666667 816.333333333 347.666666667 819.666666667 333 821 c 256
 332.333333333 821 330 814.333333333 326 801 c 0
 322 787.666666667 318 765.333333333 314 734 c 0
 310 702.666666667 308.333333333 669 309 633 c 257
 309 632 l 257
EndSplineSet
EndChar

StartChar: hyphen
Encoding: 181 45 181
GlifName: hyphen
Width: 550
VWidth: 0
GlyphClass: 2
Flags: HW
LayerCount: 2
Fore
SplineSet
410 405 m 257
 408.666666667 404.333333333 402.166666667 400 390.5 392 c 0
 378.833333333 384 366.666666667 378 354 374 c 0
 341.333333333 370 326.333333333 368.333333333 309 369 c 256
 159 365 l 257
 142.333333333 361.666666667 129 363.166666667 119 369.5 c 0
 109 375.833333333 103.333333333 382.833333333 102 390.5 c 0
 100 402 l 257
 84 357.333333333 55 285.666666667 13 187 c 256
 39.8333333333 213.833333333 77.1666666667 225.5 125 222 c 256
 128.5 222 l 0
 130.833333333 222 134 222.166666667 138 222.5 c 0
 142 222.833333333 146.833333333 223.166666667 152.5 223.5 c 0
 158.166666667 223.833333333 164.5 224.166666667 171.5 224.5 c 0
 178.5 224.833333333 185.833333333 225 193.5 225 c 0
 205 225 205 225 219 225 c 0
 233 225 233 225 246.5 225 c 0
 260 225 260 225 275.5 225 c 0
 285.833333333 225 295.666666667 224.666666667 305 224 c 257
 410 405 l 257
EndSplineSet
EndChar

StartChar: i
Encoding: 182 105 182
GlifName: i
Width: 300
VWidth: 0
GlyphClass: 2
Flags: HW
LayerCount: 2
Fore
SplineSet
41 592 m 257
 37 572 l 257
 29 532 l 257
 58 553 l 257
 85 573 l 257
 107 589 l 257
 119 598 l 257
 129 605 l 257
 134 609 l 257
 142 615 l 257
 154 623 l 257
 165 631 l 257
 177 640 l 257
 193 652 l 257
 213 666 l 257
 171 683 l 257
 161 687 l 257
 154 690 l 257
 149 692 l 257
 142 695 l 257
 134 698 l 257
 129 700 l 257
 117 705 l 257
 106 709 l 257
 97 713 l 257
 84 718 l 257
 68 725 l 257
 63 701 l 257
 61 689 l 257
 58 677 l 257
 56 665 l 257
 53 651 l 257
 51 641 l 257
 48 627 l 257
 41 592 l 257
89 525 m 257
 80 517 l 257
 64 497 l 257
 13 433 l 257
 22 428 l 257
 27 425 l 257
 31 421 l 257
 32 420 l 257
 39 415 l 257
 44 406 l 257
 49 398 l 257
 51 386 l 257
 51 371 l 257
 50 353 l 257
 49 314 l 257
 49 194 l 257
 47 178 l 257
 47 166 l 257
 46 160 l 257
 45 151 l 257
 45 144 l 257
 43 139 l 257
 41 134 l 257
 37 128 l 257
 33 122 l 257
 30 116 l 257
 26 109 l 257
 22 103 l 257
 18 99 l 257
 44 78 l 257
 82 46 l 257
 120 16 l 257
 156 57 l 257
 173 80 l 257
 218 134 l 257
 212 137 l 257
 203 142 l 257
 193 151 l 257
 185 158 l 257
 178 168 l 257
 173 176 l 257
 171 191 l 257
 172 210 l 257
 172 228 l 257
 173 244 l 257
 174 292 l 257
 177 354 l 257
 180 418 l 257
 192 455 l 257
 198 476 l 257
 183 482 l 257
 160 494 l 257
 147 500 l 257
 133 506 l 257
 113 516 l 257
 89 525 l 257
EndSplineSet
EndChar

StartChar: idotless
Encoding: 187 305 187
GlifName: idotless
Width: 350
VWidth: 0
GlyphClass: 2
Flags: HW
LayerCount: 2
Fore
SplineSet
89 525 m 257
 80 517 l 257
 64 497 l 257
 13 433 l 257
 22 428 l 257
 27 425 l 257
 31 421 l 257
 32 420 l 257
 39 415 l 257
 44 406 l 257
 49 398 l 257
 51 386 l 257
 51 371 l 257
 50 353 l 257
 49 314 l 257
 49 194 l 257
 47 178 l 257
 47 166 l 257
 46 160 l 257
 45 151 l 257
 45 144 l 257
 43 139 l 257
 41 134 l 257
 37 128 l 257
 33 122 l 257
 30 116 l 257
 26 109 l 257
 22 103 l 257
 18 99 l 257
 44 78 l 257
 82 46 l 257
 120 16 l 257
 156 57 l 257
 173 80 l 257
 218 134 l 257
 212 137 l 257
 203 142 l 257
 193 151 l 257
 185 158 l 257
 178 168 l 257
 173 176 l 257
 171 191 l 257
 172 210 l 257
 172 228 l 257
 173 244 l 257
 174 292 l 257
 177 354 l 257
 180 418 l 257
 192 455 l 257
 198 476 l 257
 183 482 l 257
 160 494 l 257
 147 500 l 257
 133 506 l 257
 113 516 l 257
 89 525 l 257
EndSplineSet
EndChar

StartChar: j
Encoding: 190 106 190
GlifName: j
Width: 243
VWidth: 0
GlyphClass: 2
Flags: HW
LayerCount: 2
Fore
SplineSet
62 621 m 257
 59 606 l 257
 44 532 l 257
 72 552 l 257
 100 573 l 257
 122 589 l 257
 134 598 l 257
 144 605 l 257
 149 609 l 257
 157 615 l 257
 169 623 l 257
 180 631 l 257
 192 640 l 257
 208 652 l 257
 228 666 l 257
 186 683 l 257
 176 687 l 257
 169 690 l 257
 164 692 l 257
 157 695 l 257
 149 698 l 257
 144 700 l 257
 132 705 l 257
 121 709 l 257
 112 713 l 257
 99 718 l 257
 83 725 l 257
 78 700 l 257
 76 690 l 257
 73 675 l 257
 71 665 l 257
 68 651 l 257
 66 641 l 257
 64 631 l 257
 62 621 l 257
192 486 m 257
 160 503 l 257
 105 527 l 257
 77 497 l 257
 52 467 l 257
 27 432 l 257
 38 428 l 257
 50 419 l 257
 60 406 l 257
 64 398 l 257
 65 366 l 257
 64 323 l 257
 64 299 l 257
 63 263 l 257
 61 198 l 257
 57 113 l 257
 55 80 l 257
 54 61 l 257
 52 36 l 257
 50 19 l 257
 48 -3 l 257
 46 -17 l 257
 43 -42 l 257
 39 -59 l 257
 35 -81 l 257
 32 -97 l 257
 28 -115 l 257
 26 -125 l 257
 24 -133 l 257
 23 -137 l 257
 22 -141 l 257
 21 -145 l 257
 20 -149 l 257
 18 -157 l 257
 17 -160 l 257
 16 -164 l 257
 15 -169 l 257
 19 -170 l 257
 26 -172 l 257
 29 -173 l 257
 32 -174 l 257
 38 -176 l 257
 40 -177 l 257
 47 -180 l 257
 50 -182 l 257
 57 -185 l 257
 62 -189 l 257
 67 -191 l 257
 71 -185 l 257
 77 -172 l 257
 81 -164 l 257
 87 -153 l 257
 90 -142 l 257
 104 -95 l 257
 129 -33 l 257
 153 37 l 257
 167 93 l 257
 175 144 l 257
 188 200 l 257
 188 233 l 257
 188 301 l 257
 189 365 l 257
 193 416 l 257
 206 452 l 257
 212 475 l 257
 192 486 l 257
EndSplineSet
EndChar

StartChar: jdotless
Encoding: 191 567 191
GlifName: jdotless
Width: 300
VWidth: 0
GlyphClass: 2
Flags: HW
AnchorPoint: "top" 93 609 basechar 0
LayerCount: 2
Fore
SplineSet
192 486 m 257
 160 503 l 257
 105 527 l 257
 77 497 l 257
 52 467 l 257
 27 432 l 257
 38 428 l 257
 50 419 l 257
 60 406 l 257
 64 398 l 257
 65 366 l 257
 64 323 l 257
 64 299 l 257
 63 263 l 257
 61 198 l 257
 57 113 l 257
 55 80 l 257
 54 61 l 257
 52 36 l 257
 50 19 l 257
 48 -3 l 257
 46 -17 l 257
 43 -42 l 257
 39 -59 l 257
 35 -81 l 257
 32 -97 l 257
 28 -115 l 257
 26 -125 l 257
 24 -133 l 257
 23 -137 l 257
 22 -141 l 257
 21 -145 l 257
 20 -149 l 257
 18 -157 l 257
 17 -160 l 257
 16 -164 l 257
 15 -169 l 257
 19 -170 l 257
 26 -172 l 257
 29 -173 l 257
 32 -174 l 257
 38 -176 l 257
 40 -177 l 257
 47 -180 l 257
 50 -182 l 257
 57 -185 l 257
 62 -189 l 257
 67 -191 l 257
 71 -185 l 257
 77 -172 l 257
 81 -164 l 257
 87 -153 l 257
 90 -142 l 257
 104 -95 l 257
 129 -33 l 257
 153 37 l 257
 167 93 l 257
 175 144 l 257
 188 200 l 257
 188 233 l 257
 188 301 l 257
 189 365 l 257
 193 416 l 257
 206 452 l 257
 212 475 l 257
 192 486 l 257
EndSplineSet
EndChar

StartChar: k
Encoding: 192 107 192
GlifName: k
Width: 382
VWidth: 0
GlyphClass: 2
Flags: HW
LayerCount: 2
Fore
SplineSet
197 681 m 257
 208 749 l 257
 178 734 l 257
 146 715 l 257
 112 697 l 257
 75 679 l 257
 45 660 l 257
 56 644 l 257
 60 633 l 257
 64 624 l 257
 68 597 l 257
 73 554 l 257
 69 433 l 257
 31 356 l 257
 70 350 l 257
 71 243 l 257
 69 213 l 257
 65 189 l 257
 58 171 l 257
 49 156 l 257
 38 142 l 257
 29 132 l 257
 23 126 l 257
 15 116 l 257
 83 65 l 257
 158 7 l 257
 210 64 l 257
 245 103 l 257
 267 126 l 257
 252 134 l 257
 242 139 l 257
 226 146 l 257
 212 156 l 257
 197 165 l 257
 191 175 l 257
 188 200 l 257
 189 224 l 257
 189 250 l 257
 189 289 l 257
 189 299 l 257
 189 310 l 257
 190 326 l 257
 190 340 l 257
 190 351 l 257
 205 351 l 257
 215 351 l 257
 227 351 l 257
 245 351 l 257
 270 351 l 257
 293 351 l 257
 295 356 l 257
 297 360 l 257
 299 364 l 257
 301 367 l 257
 303 371 l 257
 308 381 l 257
 317 398 l 257
 319 402 l 257
 323 409 l 257
 326 415 l 257
 333 429 l 257
 336 434 l 257
 342 446 l 257
 348 457 l 257
 314 457 l 257
 282 457 l 257
 251 457 l 257
 215 456 l 257
 192 457 l 257
 191 576 l 257
 220 599 l 257
 231 593 l 257
 247 579 l 257
 256 565 l 257
 261 553 l 257
 266 539 l 257
 269 519 l 257
 215 456 l 257
 251 457 l 257
 367 593 l 257
 272 714 l 257
 210 651 l 257
 194 635 l 257
 197 681 l 257
EndSplineSet
EndChar

StartChar: l
Encoding: 193 108 193
GlifName: l
Width: 320
VWidth: 0
GlyphClass: 2
Flags: HW
LayerCount: 2
Fore
SplineSet
202 749 m 257
 80 684 l 257
 43 663 l 257
 53 646.333333333 59 631 61 617 c 256
 64.3333333333 593.666666667 66 571 66 549 c 256
 66 435.666666667 66.6666666667 367.666666667 68 345 c 256
 69.3333333333 327 68.6666666667 295.666666667 66 251 c 0
 63.3333333333 206.333333333 58.6666666667 179.666666667 52 171 c 256
 50.6666666667 169.666666667 49 166 47 160 c 0
 45 154 41.3333333333 147.5 36 140.5 c 0
 30.6666666667 133.5 23 126 13 118 c 257
 154 7 l 257
 217 78 l 257
 261 126 l 257
 256.333333333 129.333333333 249.5 133.666666667 240.5 139 c 0
 231.5 144.333333333 224.166666667 148.833333333 218.5 152.5 c 0
 212.833333333 156.166666667 207 160.166666667 201 164.5 c 0
 195 168.833333333 191 172.333333333 189 175 c 256
 187 177.666666667 185.5 182.666666667 184.5 190 c 0
 183.5 197.333333333 183 204.166666667 183 210.5 c 0
 183 216.833333333 183.166666667 224.833333333 183.5 234.5 c 0
 183.833333333 244.166666667 184 250.333333333 184 253 c 256
 184 260.333333333 184.5 315.166666667 185.5 417.5 c 0
 186.5 519.833333333 187 572.333333333 187 575 c 256
 187 630.333333333 192 688.333333333 202 749 c 257
EndSplineSet
EndChar

StartChar: less
Encoding: 194 60 194
GlifName: less
Width: 550
VWidth: 0
GlyphClass: 2
Flags: HW
LayerCount: 2
Fore
SplineSet
308 546 m 257
 23 281 l 257
 23 280 l 257
 308 11 l 257
 382 88 l 257
 166 287 l 257
 379 477 l 257
 308 546 l 257
EndSplineSet
EndChar

StartChar: logicalnot
Encoding: 195 172 195
GlifName: logicalnot
Width: 300
VWidth: 0
GlyphClass: 2
Flags: HW
LayerCount: 2
Fore
SplineSet
290 342 m 257
 47 342 l 257
 47 294 l 257
 248 294 l 257
 249 232 l 257
 290 232 l 257
 290 342 l 257
EndSplineSet
EndChar

StartChar: longs
Encoding: 196 383 196
GlifName: longs
Width: 500
VWidth: 0
GlyphClass: 2
Flags: HW
LayerCount: 2
Fore
SplineSet
285 569 m 257
 367 678 l 257
 345 687.333333333 314.5 695.5 275.5 702.5 c 0
 236.5 709.5 204 712.666666667 178 712 c 256
 170 712 163.833333333 710.5 159.5 707.5 c 0
 155.166666667 704.5 151.666666667 701.166666667 149 697.5 c 0
 146.333333333 693.833333333 141.166666667 685.166666667 133.5 671.5 c 0
 125.833333333 657.833333333 118 644.666666667 110 632 c 257
 85 606 l 257
 24 539 l 257
 39 527 l 257
 60.3333333333 488.333333333 69.5 417.666666667 66.5 315 c 0
 63.5 212.333333333 48.6666666667 45 22 -187 c 257
 59 -208 l 257
 93.6666666667 -123.333333333 119.5 -56.3333333333 136.5 -7 c 0
 153.5 42.3333333333 168.166666667 97.8333333333 180.5 159.5 c 0
 192.833333333 221.166666667 198.5 282.5 197.5 343.5 c 0
 196.5 404.5 190.333333333 476.333333333 179 559 c 257
 179 567 181.833333333 575.5 187.5 584.5 c 0
 193.166666667 593.5 199.333333333 597.666666667 206 597 c 256
 213.333333333 595.666666667 218.333333333 594.833333333 221 594.5 c 0
 223.666666667 594.166666667 227.166666667 593.333333333 231.5 592 c 0
 235.833333333 590.666666667 239.166666667 589.333333333 241.5 588 c 0
 243.833333333 586.666666667 249.333333333 584.166666667 258 580.5 c 0
 266.666666667 576.833333333 275.666666667 573 285 569 c 257
EndSplineSet
EndChar

StartChar: lslash
Encoding: 197 322 197
GlifName: lslash
Width: 500
VWidth: 0
GlyphClass: 2
Flags: HW
LayerCount: 2
Fore
SplineSet
203 749 m 257
 188 741 l 257
 171 732 l 257
 144 717 l 257
 116 701 l 257
 85 685 l 257
 42 662 l 257
 48 653 l 257
 54 640 l 257
 59 623 l 257
 62 607 l 257
 62 606.333333333 62.6666666667 600 64 588 c 257
 68 402 l 257
 13 374 l 257
 18 290 l 257
 73 311 l 257
 64 227 l 257
 64 213 l 257
 63 202 l 257
 60 188 l 257
 56 175 l 257
 49 161 l 257
 40 148 l 257
 28 134 l 257
 10 117 l 257
 154 7 l 257
 262 127 l 257
 252 133 l 257
 240 140 l 257
 226 149 l 257
 213 157 l 257
 203 164 l 257
 192 171 l 257
 190 173 l 257
 188 176 l 257
 187 180 l 257
 186 186 l 257
 185 193 l 257
 184 203 l 257
 181 377 l 257
 258 426 l 257
 246 509 l 257
 181 472 l 257
 188 625 l 257
 189 649 l 257
 191 669 l 257
 193 686 l 257
 196 709 l 257
 199 726 l 257
 203 749 l 257
EndSplineSet
EndChar

StartChar: m
Encoding: 198 109 198
GlifName: m
Width: 700
VWidth: 0
GlyphClass: 2
Flags: HW
LayerCount: 2
Fore
SplineSet
144 494 m 257
 94 528 l 257
 23 434 l 257
 39 423 l 257
 48 413 l 257
 56 400 l 257
 59 393 l 257
 58 373 l 257
 56 229 l 257
 55 189 l 257
 55 160 l 257
 48 132 l 257
 40 117 l 257
 31 104 l 257
 27 98 l 257
 128 17 l 257
 227 134 l 257
 216 140 l 257
 208 145 l 257
 198 154 l 257
 190 163 l 257
 183 175 l 257
 179 194 l 257
 180 230 l 257
 183 377 l 257
 195 393 l 257
 212 415 l 257
 221 408 l 257
 232 396 l 257
 244 383 l 257
 255 371 l 257
 263 361 l 257
 268 353 l 257
 269 341 l 257
 269 327 l 257
 267 298 l 257
 268 277 l 257
 267 241 l 257
 270 200 l 257
 270 174 l 257
 266 146 l 257
 259 126 l 257
 241 100 l 257
 344 13 l 257
 440 135 l 257
 426 141 l 257
 409 153 l 257
 397 168 l 257
 392 188 l 257
 390 206 l 257
 391 221 l 257
 393 250 l 257
 399 377 l 257
 410 396 l 257
 419 411 l 257
 429 401 l 257
 441 390 l 257
 452 379 l 257
 461 368 l 257
 469 354 l 257
 471 347 l 257
 470 300 l 257
 470 268 l 257
 469 233 l 257
 468 201 l 257
 467 154 l 257
 468 131 l 257
 470 112 l 257
 476 85 l 257
 481 73 l 257
 488 64 l 257
 500 51 l 257
 509 43 l 257
 519 34 l 257
 532 22 l 257
 542 14 l 257
 640 133 l 257
 629 138 l 257
 620 143 l 257
 609 152 l 257
 601 163 l 257
 594 173 l 257
 591 193 l 257
 594 250 l 257
 596 286 l 257
 597 302 l 257
 598 325 l 257
 598 355 l 257
 613 414 l 257
 584 435 l 257
 564 449 l 257
 536 469 l 257
 511 487 l 257
 498 497 l 257
 476 514 l 257
 459 526 l 257
 447 515 l 257
 436 505 l 257
 416 475 l 257
 384 437 l 257
 370 447 l 257
 354 457 l 257
 335 471 l 257
 314 486 l 257
 301 496 l 257
 281 510 l 257
 270 519 l 257
 258 527 l 257
 246 512 l 257
 238 502 l 257
 227 488 l 257
 215 473 l 257
 200 455 l 257
 144 494 l 257
EndSplineSet
EndChar

StartChar: macron
Encoding: 199 175 199
GlifName: macron
Width: 300
VWidth: 0
GlyphClass: 2
Flags: HW
LayerCount: 2
Fore
SplineSet
10 750 m 257
 10 694 l 257
 293 694 l 257
 293 750 l 257
 10 750 l 257
EndSplineSet
EndChar

StartChar: macroncomb
Encoding: 200 772 200
GlifName: macroncomb
Width: 0
VWidth: 0
GlyphClass: 4
Flags: H
AnchorPoint: "top" 3 573 mark 0
LayerCount: 2
Fore
SplineSet
-121 696 m 257
 -121 642 l 257
 120 642 l 257
 120 696 l 257
 -121 696 l 257
EndSplineSet
EndChar

StartChar: micro
Encoding: 201 181 201
GlifName: micro
Width: 470
VWidth: 0
GlyphClass: 2
Flags: HW
LayerCount: 2
Fore
SplineSet
209 475 m 257
 93 525 l 257
 21 433 l 257
 47.6666666667 419.666666667 60.3333333333 400.666666667 59 376 c 256
 55 280 53 231 53 229 c 256
 53 215.666666667 51.1666666667 176.666666667 47.5 112 c 0
 43.8333333333 47.3333333333 41 8.33333333333 39 -5 c 256
 37.6666666667 -13.6666666667 34.3333333333 -31.8333333333 29 -59.5 c 0
 23.6666666667 -87.1666666667 18.8333333333 -112.333333333 14.5 -135 c 0
 8 -169 l 256
 20.6666666667 -171.666666667 31.3333333333 -175 40 -179 c 0
 48.6666666667 -183 54.1666666667 -186.333333333 56.5 -189 c 0
 60 -193 l 257
 60.6666666667 -191.666666667 71 -164.166666667 91 -110.5 c 0
 111 -56.8333333333 125.666666667 -14 135 18 c 256
 135.666666667 20.6666666667 160 39.3333333333 208 74 c 256
 211.333333333 76.6666666667 218.5 81.5 229.5 88.5 c 0
 246 99 246 99 257 106 c 257
 268.333333333 97.3333333333 282.833333333 85.3333333333 300.5 70 c 0
 318.166666667 54.6666666667 332.833333333 41.8333333333 344.5 31.5 c 0
 356.166666667 21.1666666667 362.333333333 16 363 16 c 256
 376 31.5 l 0
 384.666666667 41.8333333333 397.166666667 57 413.5 77 c 0
 429.833333333 97 445.666666667 116 461 134 c 257
 448.333333333 139.333333333 435.666666667 148.333333333 423 161 c 257
 415 175 l 257
 413 188 l 257
 413 202 414.333333333 238.166666667 417 296.5 c 0
 419.666666667 354.833333333 420.666666667 389 420 399 c 256
 419.333333333 405.666666667 425.666666667 431.333333333 439 476 c 257
 331 526 l 257
 256 435 l 257
 278.666666667 421 290.333333333 406.666666667 291 392 c 256
 291.666666667 380 291.666666667 343.166666667 291 281.5 c 0
 290.333333333 219.833333333 289.666666667 188.666666667 289 188 c 256
 255.666666667 158 228.666666667 143 208 143 c 256
 193.333333333 151.666666667 184.333333333 169.333333333 181 196 c 0
 177.666666667 222.666666667 177.666666667 259.5 181 306.5 c 0
 184.333333333 353.5 185.666666667 385.666666667 185 403 c 256
 185 403.666666667 186.166666667 408.333333333 188.5 417 c 0
 190.833333333 425.666666667 194.166666667 435.666666667 198.5 447 c 0
 202.833333333 458.333333333 207 466.333333333 211 471 c 257
 209 475 l 257
EndSplineSet
EndChar

StartChar: minus
Encoding: 202 8722 202
GlifName: minus
Width: 550
VWidth: 0
GlyphClass: 2
Flags: HW
LayerCount: 2
Fore
SplineSet
47 412 m 257
 47 363 l 257
 501 363 l 257
 501 412 l 257
 47 412 l 257
EndSplineSet
EndChar

StartChar: multiply
Encoding: 203 215 203
GlifName: multiply
Width: 500
VWidth: 0
GlyphClass: 2
Flags: HW
LayerCount: 2
Fore
SplineSet
122 499 m 257
 70 449 l 257
 170 342 l 257
 64 245 l 257
 115 191 l 257
 220 289 l 257
 320 183 l 257
 373 235 l 257
 272 341 l 257
 381 440 l 257
 329 496 l 257
 223 396 l 257
 122 499 l 257
EndSplineSet
EndChar

StartChar: n
Encoding: 204 110 204
GlifName: n
Width: 500
VWidth: 0
GlyphClass: 2
Flags: HW
LayerCount: 2
Fore
SplineSet
94 527 m 257
 62 487 l 257
 20 435 l 257
 24 432 l 257
 29 428 l 257
 32 426 l 257
 39 420 l 257
 42 417 l 257
 45 414 l 257
 50 407 l 257
 52 404 l 257
 55 396 l 257
 56 389 l 257
 56 380 l 257
 54 283 l 257
 53 196 l 257
 53 186 l 257
 53 179 l 257
 52 167 l 257
 52 161 l 257
 51 151 l 257
 49 144 l 257
 47 136 l 257
 44 129 l 257
 40 122 l 257
 37 116 l 257
 32 109 l 257
 24 99 l 257
 127 16 l 257
 225 134 l 257
 219 137 l 257
 212 141 l 257
 207 144 l 257
 201 148 l 257
 196 153 l 257
 190 159 l 257
 183 169 l 257
 180 175 l 257
 178 182 l 257
 177 189 l 257
 180 271 l 257
 186 384 l 257
 189 389 l 257
 191 392 l 257
 194 397 l 257
 198 403 l 257
 200 406 l 257
 206 415 l 257
 212 410 l 257
 217 406 l 257
 224 400 l 257
 230 395 l 257
 237 389 l 257
 243 383 l 257
 252 374 l 257
 257 368 l 257
 261 363 l 257
 266 355 l 257
 268 349 l 257
 268 343 l 257
 266 257 l 257
 264 162 l 257
 264 148 l 257
 264 138 l 257
 264 128 l 257
 266 114 l 257
 268 102 l 257
 272 88 l 257
 277 75 l 257
 280 70 l 257
 285 65 l 257
 296 52 l 257
 307 41 l 257
 322 29 l 257
 339 15 l 257
 385 72 l 257
 437 134 l 257
 431 137 l 257
 426 140 l 257
 417 146 l 257
 410 151 l 257
 405 156 l 257
 400 162 l 257
 395 170 l 257
 393 174 l 257
 391 181 l 257
 390 188 l 257
 389 200 l 257
 390 219 l 257
 392 275 l 257
 396 357 l 257
 397 363 l 257
 399 371 l 257
 402 382 l 257
 404 390 l 257
 407 402 l 257
 410 414 l 257
 389 430 l 257
 371 443 l 257
 353 456 l 257
 336 468 l 257
 317 482 l 257
 303 492 l 257
 291 501 l 257
 277 511 l 257
 254 527 l 257
 246 517 l 257
 237 506 l 257
 229 496 l 257
 222 487 l 257
 214 477 l 257
 209 471 l 257
 200 460 l 257
 197 456 l 257
 193 459 l 257
 180 468 l 257
 170 475 l 257
 148 490 l 257
 135 499 l 257
 122 508 l 257
 109 517 l 257
 94 527 l 257
EndSplineSet
EndChar

